<svg id="visual" viewBox="0 0 1440 1024" width="1440" height="1024" xmlns="http://www.w3.org/2000/svg" xmlns:xlink="http://www.w3.org/1999/xlink" version="1.1"><g stroke-width="1" stroke-linejoin="bevel"><path d="M674 593.1L837 559.1L650 443.9Z" fill="#a1cb9c" stroke="#a1cb9c"></path><path d="M837 559.1L790 405.9L650 443.9Z" fill="#85bf8d" stroke="#85bf8d"></path><path d="M943 473.9L820 319.6L790 405.9Z" fill="#bbd8ae" stroke="#bbd8ae"></path><path d="M790 405.9L627 313.6L650 443.9Z" fill="#c1dbb3" stroke="#c1dbb3"></path><path d="M837 559.1L943 473.9L790 405.9Z" fill="#8dc290" stroke="#8dc290"></path><path d="M674 593.1L815 698.4L837 559.1Z" fill="#94c594" stroke="#94c594"></path><path d="M837 559.1L965 621.1L943 473.9Z" fill="#c1dbb3" stroke="#c1dbb3"></path><path d="M820 319.6L627 313.6L790 405.9Z" fill="#a1cb9c" stroke="#a1cb9c"></path><path d="M457 728.4L664 755.4L674 593.1Z" fill="#94c594" stroke="#94c594"></path><path d="M815 698.4L965 621.1L837 559.1Z" fill="#8dc290" stroke="#8dc290"></path><path d="M466 566.1L674 593.1L650 443.9Z" fill="#aed1a5" stroke="#aed1a5"></path><path d="M674 593.1L664 755.4L815 698.4Z" fill="#a1cb9c" stroke="#a1cb9c"></path><path d="M466 429.9L466 566.1L650 443.9Z" fill="#8dc290" stroke="#8dc290"></path><path d="M627 313.6L466 429.9L650 443.9Z" fill="#a8cea0" stroke="#a8cea0"></path><path d="M815 698.4L996 701.4L965 621.1Z" fill="#bbd8ae" stroke="#bbd8ae"></path><path d="M965 621.1L1124 571.1L943 473.9Z" fill="#9ac898" stroke="#9ac898"></path><path d="M933 856.7L996 701.4L815 698.4Z" fill="#bbd8ae" stroke="#bbd8ae"></path><path d="M627 313.6L470 319.6L466 429.9Z" fill="#7ebc89" stroke="#7ebc89"></path><path d="M1142 300.6L979 275.6L943 473.9Z" fill="#b5d5a9" stroke="#b5d5a9"></path><path d="M943 473.9L979 275.6L820 319.6Z" fill="#85bf8d" stroke="#85bf8d"></path><path d="M820 319.6L631 134.3L627 313.6Z" fill="#aed1a5" stroke="#aed1a5"></path><path d="M627 313.6L454 162.3L470 319.6Z" fill="#94c594" stroke="#94c594"></path><path d="M480 852.7L660 852.7L664 755.4Z" fill="#94c594" stroke="#94c594"></path><path d="M664 755.4L812 869.7L815 698.4Z" fill="#a8cea0" stroke="#a8cea0"></path><path d="M353 588.1L457 728.4L466 566.1Z" fill="#a1cb9c" stroke="#a1cb9c"></path><path d="M466 566.1L457 728.4L674 593.1Z" fill="#9ac898" stroke="#9ac898"></path><path d="M660 852.7L812 869.7L664 755.4Z" fill="#7ebc89" stroke="#7ebc89"></path><path d="M820 111.3L631 134.3L820 319.6Z" fill="#94c594" stroke="#94c594"></path><path d="M996 701.4L1124 571.1L965 621.1Z" fill="#7ebc89" stroke="#7ebc89"></path><path d="M466 429.9L353 588.1L466 566.1Z" fill="#94c594" stroke="#94c594"></path><path d="M287 398.9L353 588.1L466 429.9Z" fill="#aed1a5" stroke="#aed1a5"></path><path d="M812 869.7L933 856.7L815 698.4Z" fill="#8dc290" stroke="#8dc290"></path><path d="M996 701.4L1085 724.4L1124 571.1Z" fill="#a1cb9c" stroke="#a1cb9c"></path><path d="M979 275.6L820 111.3L820 319.6Z" fill="#c1dbb3" stroke="#c1dbb3"></path><path d="M1106 840.7L1085 724.4L996 701.4Z" fill="#a1cb9c" stroke="#a1cb9c"></path><path d="M1300 471.9L1154 477.9L1315 550.1Z" fill="#a8cea0" stroke="#a8cea0"></path><path d="M1124 571.1L1154 477.9L943 473.9Z" fill="#bbd8ae" stroke="#bbd8ae"></path><path d="M457 728.4L480 852.7L664 755.4Z" fill="#a1cb9c" stroke="#a1cb9c"></path><path d="M660 852.7L805 1024L812 869.7Z" fill="#85bf8d" stroke="#85bf8d"></path><path d="M302 886.7L480 852.7L457 728.4Z" fill="#c1dbb3" stroke="#c1dbb3"></path><path d="M631 134.3L454 162.3L627 313.6Z" fill="#a1cb9c" stroke="#a1cb9c"></path><path d="M470 319.6L287 398.9L466 429.9Z" fill="#a8cea0" stroke="#a8cea0"></path><path d="M1154 477.9L1142 300.6L943 473.9Z" fill="#85bf8d" stroke="#85bf8d"></path><path d="M979 275.6L975 106.3L820 111.3Z" fill="#9ac898" stroke="#9ac898"></path><path d="M1157 127.3L975 106.3L979 275.6Z" fill="#94c594" stroke="#94c594"></path><path d="M336 253.6L287 398.9L470 319.6Z" fill="#b5d5a9" stroke="#b5d5a9"></path><path d="M454 162.3L336 253.6L470 319.6Z" fill="#bbd8ae" stroke="#bbd8ae"></path><path d="M933 856.7L1106 840.7L996 701.4Z" fill="#9ac898" stroke="#9ac898"></path><path d="M1085 724.4L1243 742.4L1124 571.1Z" fill="#7ebc89" stroke="#7ebc89"></path><path d="M924 1024L1106 840.7L933 856.7Z" fill="#7ebc89" stroke="#7ebc89"></path><path d="M194 549.1L288 715.4L353 588.1Z" fill="#b5d5a9" stroke="#b5d5a9"></path><path d="M353 588.1L288 715.4L457 728.4Z" fill="#7ebc89" stroke="#7ebc89"></path><path d="M975 106.3L833 0L820 111.3Z" fill="#85bf8d" stroke="#85bf8d"></path><path d="M820 111.3L601 0L631 134.3Z" fill="#94c594" stroke="#94c594"></path><path d="M631 134.3L488 0L454 162.3Z" fill="#8dc290" stroke="#8dc290"></path><path d="M488 0L358 152.3L454 162.3Z" fill="#94c594" stroke="#94c594"></path><path d="M454 162.3L358 152.3L336 253.6Z" fill="#a8cea0" stroke="#a8cea0"></path><path d="M148 423.9L194 549.1L287 398.9Z" fill="#a8cea0" stroke="#a8cea0"></path><path d="M610 1024L805 1024L660 852.7Z" fill="#bbd8ae" stroke="#bbd8ae"></path><path d="M812 869.7L924 1024L933 856.7Z" fill="#b5d5a9" stroke="#b5d5a9"></path><path d="M833 0L601 0L820 111.3Z" fill="#b5d5a9" stroke="#b5d5a9"></path><path d="M468 1024L610 1024L480 852.7Z" fill="#8dc290" stroke="#8dc290"></path><path d="M480 852.7L610 1024L660 852.7Z" fill="#8dc290" stroke="#8dc290"></path><path d="M287 398.9L194 549.1L353 588.1Z" fill="#94c594" stroke="#94c594"></path><path d="M148 423.9L287 398.9L192 260.6Z" fill="#a1cb9c" stroke="#a1cb9c"></path><path d="M805 1024L924 1024L812 869.7Z" fill="#94c594" stroke="#94c594"></path><path d="M1264 875.7L1243 742.4L1106 840.7Z" fill="#9ac898" stroke="#9ac898"></path><path d="M1106 840.7L1243 742.4L1085 724.4Z" fill="#a8cea0" stroke="#a8cea0"></path><path d="M1300 471.9L1240 258.6L1142 300.6Z" fill="#9ac898" stroke="#9ac898"></path><path d="M1142 300.6L1157 127.3L979 275.6Z" fill="#b5d5a9" stroke="#b5d5a9"></path><path d="M975 106.3L989 0L833 0Z" fill="#a1cb9c" stroke="#a1cb9c"></path><path d="M1300 471.9L1142 300.6L1154 477.9Z" fill="#a1cb9c" stroke="#a1cb9c"></path><path d="M1315 550.1L1154 477.9L1124 571.1Z" fill="#8dc290" stroke="#8dc290"></path><path d="M1240 258.6L1157 127.3L1142 300.6Z" fill="#a8cea0" stroke="#a8cea0"></path><path d="M1131 0L989 0L975 106.3Z" fill="#bbd8ae" stroke="#bbd8ae"></path><path d="M601 0L488 0L631 134.3Z" fill="#94c594" stroke="#94c594"></path><path d="M1243 742.4L1315 550.1L1124 571.1Z" fill="#a1cb9c" stroke="#a1cb9c"></path><path d="M288 715.4L302 886.7L457 728.4Z" fill="#94c594" stroke="#94c594"></path><path d="M164 900.7L302 886.7L288 715.4Z" fill="#a1cb9c" stroke="#a1cb9c"></path><path d="M302 886.7L468 1024L480 852.7Z" fill="#94c594" stroke="#94c594"></path><path d="M192 260.6L287 398.9L336 253.6Z" fill="#9ac898" stroke="#9ac898"></path><path d="M194 549.1L157 705.4L288 715.4Z" fill="#9ac898" stroke="#9ac898"></path><path d="M189 147.3L192 260.6L336 253.6Z" fill="#7ebc89" stroke="#7ebc89"></path><path d="M189 147.3L336 253.6L358 152.3Z" fill="#b5d5a9" stroke="#b5d5a9"></path><path d="M0 596.1L157 705.4L194 549.1Z" fill="#9ac898" stroke="#9ac898"></path><path d="M1298 0L1131 0L1157 127.3Z" fill="#b5d5a9" stroke="#b5d5a9"></path><path d="M1157 127.3L1131 0L975 106.3Z" fill="#8dc290" stroke="#8dc290"></path><path d="M1141 1024L1264 875.7L1106 840.7Z" fill="#9ac898" stroke="#9ac898"></path><path d="M1440 576.1L1440 473.9L1315 550.1Z" fill="#c1dbb3" stroke="#c1dbb3"></path><path d="M924 1024L1141 1024L1106 840.7Z" fill="#8dc290" stroke="#8dc290"></path><path d="M488 0L321 0L358 152.3Z" fill="#8dc290" stroke="#8dc290"></path><path d="M0 258.6L0 456.9L148 423.9Z" fill="#a8cea0" stroke="#a8cea0"></path><path d="M321 0L189 147.3L358 152.3Z" fill="#8dc290" stroke="#8dc290"></path><path d="M165 1024L317 1024L302 886.7Z" fill="#a8cea0" stroke="#a8cea0"></path><path d="M302 886.7L317 1024L468 1024Z" fill="#c1dbb3" stroke="#c1dbb3"></path><path d="M1440 143.3L1299 113.3L1240 258.6Z" fill="#a8cea0" stroke="#a8cea0"></path><path d="M1240 258.6L1299 113.3L1157 127.3Z" fill="#aed1a5" stroke="#aed1a5"></path><path d="M1440 297.6L1240 258.6L1300 471.9Z" fill="#b5d5a9" stroke="#b5d5a9"></path><path d="M157 705.4L164 900.7L288 715.4Z" fill="#85bf8d" stroke="#85bf8d"></path><path d="M1440 576.1L1315 550.1L1440 720.4Z" fill="#94c594" stroke="#94c594"></path><path d="M1315 550.1L1440 473.9L1300 471.9Z" fill="#85bf8d" stroke="#85bf8d"></path><path d="M1440 720.4L1315 550.1L1243 742.4Z" fill="#c1dbb3" stroke="#c1dbb3"></path><path d="M1141 1024L1244 1024L1264 875.7Z" fill="#9ac898" stroke="#9ac898"></path><path d="M1264 875.7L1440 720.4L1243 742.4Z" fill="#85bf8d" stroke="#85bf8d"></path><path d="M1440 473.9L1440 297.6L1300 471.9Z" fill="#a1cb9c" stroke="#a1cb9c"></path><path d="M1440 881.7L1440 720.4L1264 875.7Z" fill="#c1dbb3" stroke="#c1dbb3"></path><path d="M0 258.6L148 423.9L192 260.6Z" fill="#9ac898" stroke="#9ac898"></path><path d="M148 423.9L0 456.9L194 549.1Z" fill="#c1dbb3" stroke="#c1dbb3"></path><path d="M157 705.4L0 760.4L164 900.7Z" fill="#7ebc89" stroke="#7ebc89"></path><path d="M0 456.9L0 596.1L194 549.1Z" fill="#a1cb9c" stroke="#a1cb9c"></path><path d="M1440 0L1298 0L1299 113.3Z" fill="#a8cea0" stroke="#a8cea0"></path><path d="M1299 113.3L1298 0L1157 127.3Z" fill="#9ac898" stroke="#9ac898"></path><path d="M164 900.7L165 1024L302 886.7Z" fill="#a1cb9c" stroke="#a1cb9c"></path><path d="M0 1024L165 1024L164 900.7Z" fill="#7ebc89" stroke="#7ebc89"></path><path d="M189 147.3L0 258.6L192 260.6Z" fill="#bbd8ae" stroke="#bbd8ae"></path><path d="M0 132.3L0 258.6L189 147.3Z" fill="#c1dbb3" stroke="#c1dbb3"></path><path d="M0 596.1L0 760.4L157 705.4Z" fill="#bbd8ae" stroke="#bbd8ae"></path><path d="M1440 297.6L1440 143.3L1240 258.6Z" fill="#8dc290" stroke="#8dc290"></path><path d="M321 0L134 0L189 147.3Z" fill="#c1dbb3" stroke="#c1dbb3"></path><path d="M1440 1024L1440 881.7L1264 875.7Z" fill="#94c594" stroke="#94c594"></path><path d="M134 0L0 132.3L189 147.3Z" fill="#aed1a5" stroke="#aed1a5"></path><path d="M0 760.4L0 891.7L164 900.7Z" fill="#9ac898" stroke="#9ac898"></path><path d="M1440 143.3L1440 0L1299 113.3Z" fill="#85bf8d" stroke="#85bf8d"></path><path d="M1244 1024L1440 1024L1264 875.7Z" fill="#7ebc89" stroke="#7ebc89"></path><path d="M134 0L0 0L0 132.3Z" fill="#7ebc89" stroke="#7ebc89"></path><path d="M0 891.7L0 1024L164 900.7Z" fill="#8dc290" stroke="#8dc290"></path></g></svg>