<svg width="524" height="210" viewBox="0 0 524 210" fill="none" xmlns="http://www.w3.org/2000/svg">
  <path d="M482.5 141.611L492 158.5L523.894 209.361L438.5 162L461.5 153L482.5 141.611Z"
    fill="#C4C6C1" />
  <ellipse cx="260" cy="94" rx="260" ry="94" fill="#C4C6C1" />
  <path
    d="M68.3395 65.4531C68.2732 64.8329 67.9938 64.3499 67.5014 64.0043C67.0137 63.6586 66.3793 63.4858 65.598 63.4858C65.0488 63.4858 64.5777 63.5687 64.1847 63.7344C63.7917 63.9001 63.491 64.125 63.2827 64.4091C63.0743 64.6932 62.9678 65.0175 62.9631 65.3821C62.9631 65.6851 63.0317 65.9479 63.169 66.1705C63.3111 66.393 63.5028 66.5824 63.7443 66.7386C63.9858 66.8902 64.2533 67.018 64.5469 67.1222C64.8404 67.2263 65.1364 67.3139 65.4347 67.3849L66.7983 67.7259C67.3475 67.8537 67.8755 68.0265 68.3821 68.2443C68.8935 68.4621 69.3504 68.7367 69.7528 69.0682C70.16 69.3996 70.482 69.7997 70.7188 70.2685C70.9555 70.7372 71.0739 71.2865 71.0739 71.9162C71.0739 72.7685 70.8561 73.5189 70.4205 74.1676C69.9848 74.8116 69.3551 75.3158 68.5312 75.6804C67.7121 76.0402 66.7202 76.2202 65.5554 76.2202C64.4238 76.2202 63.4413 76.045 62.608 75.6946C61.7794 75.3442 61.1307 74.8329 60.6619 74.1605C60.1979 73.4882 59.947 72.669 59.9091 71.7031H62.5014C62.5393 72.2098 62.6955 72.6312 62.9702 72.9673C63.2448 73.3035 63.6023 73.5545 64.0426 73.7202C64.4877 73.8859 64.9848 73.9688 65.5341 73.9688C66.107 73.9688 66.6089 73.8835 67.0398 73.7131C67.4754 73.5379 67.8163 73.2964 68.0625 72.9886C68.3087 72.6761 68.4342 72.3116 68.4389 71.8949C68.4342 71.5161 68.3229 71.2036 68.1051 70.9574C67.8873 70.7064 67.5819 70.4981 67.1889 70.3324C66.8007 70.1619 66.3461 70.0104 65.8253 69.8778L64.1705 69.4517C62.9725 69.1439 62.0256 68.6776 61.3295 68.0526C60.6383 67.4228 60.2926 66.5871 60.2926 65.5455C60.2926 64.6884 60.5246 63.938 60.9886 63.294C61.4574 62.6501 62.0942 62.1506 62.8991 61.7955C63.7041 61.4356 64.6155 61.2557 65.6335 61.2557C66.6657 61.2557 67.5701 61.4356 68.3466 61.7955C69.1278 62.1506 69.741 62.6454 70.1861 63.2798C70.6312 63.9096 70.8608 64.634 70.875 65.4531H68.3395ZM78.1388 76.2131C77.0451 76.2131 76.1005 75.9858 75.305 75.5312C74.5143 75.072 73.9059 74.4233 73.4798 73.5852C73.0536 72.7424 72.8406 71.7505 72.8406 70.6094C72.8406 69.4872 73.0536 68.5024 73.4798 67.6548C73.9106 66.8026 74.512 66.1397 75.2837 65.6662C76.0555 65.188 76.9622 64.9489 78.0039 64.9489C78.6763 64.9489 79.3107 65.0578 79.9073 65.2756C80.5086 65.4886 81.0389 65.8201 81.4982 66.2699C81.9622 66.7197 82.3268 67.2926 82.592 67.9886C82.8571 68.6799 82.9897 69.5038 82.9897 70.4602V71.2486H74.0479V69.5156H80.5252C80.5205 69.0232 80.4139 68.5852 80.2056 68.2017C79.9973 67.8134 79.7061 67.508 79.332 67.2855C78.9627 67.063 78.5318 66.9517 78.0394 66.9517C77.5138 66.9517 77.0522 67.0795 76.6545 67.3352C76.2567 67.5862 75.9466 67.9176 75.7241 68.3295C75.5063 68.7367 75.395 69.1842 75.3903 69.6719V71.1847C75.3903 71.8191 75.5063 72.3636 75.7383 72.8182C75.9703 73.268 76.2946 73.6136 76.7113 73.8551C77.128 74.0919 77.6156 74.2102 78.1744 74.2102C78.5484 74.2102 78.887 74.1581 79.19 74.054C79.493 73.9451 79.7558 73.7865 79.9783 73.5781C80.2009 73.3698 80.369 73.1117 80.4826 72.804L82.8832 73.0739C82.7317 73.7083 82.4428 74.2623 82.0167 74.7358C81.5953 75.2045 81.0555 75.5691 80.3974 75.8295C79.7392 76.0852 78.9864 76.2131 78.1388 76.2131ZM89.9943 76.2131C88.9006 76.2131 87.956 75.9858 87.1605 75.5312C86.3698 75.072 85.7614 74.4233 85.3352 73.5852C84.9091 72.7424 84.696 71.7505 84.696 70.6094C84.696 69.4872 84.9091 68.5024 85.3352 67.6548C85.7661 66.8026 86.3674 66.1397 87.1392 65.6662C87.911 65.188 88.8177 64.9489 89.8594 64.9489C90.5317 64.9489 91.1662 65.0578 91.7628 65.2756C92.3641 65.4886 92.8944 65.8201 93.3537 66.2699C93.8177 66.7197 94.1823 67.2926 94.4474 67.9886C94.7126 68.6799 94.8452 69.5038 94.8452 70.4602V71.2486H85.9034V69.5156H92.3807C92.3759 69.0232 92.2694 68.5852 92.0611 68.2017C91.8527 67.8134 91.5616 67.508 91.1875 67.2855C90.8182 67.063 90.3873 66.9517 89.8949 66.9517C89.3693 66.9517 88.9077 67.0795 88.5099 67.3352C88.1122 67.5862 87.8021 67.9176 87.5795 68.3295C87.3617 68.7367 87.2505 69.1842 87.2457 69.6719V71.1847C87.2457 71.8191 87.3617 72.3636 87.5938 72.8182C87.8258 73.268 88.1501 73.6136 88.5668 73.8551C88.9834 74.0919 89.4711 74.2102 90.0298 74.2102C90.4039 74.2102 90.7424 74.1581 91.0455 74.054C91.3485 73.9451 91.6113 73.7865 91.8338 73.5781C92.0563 73.3698 92.2244 73.1117 92.3381 72.804L94.7386 73.0739C94.5871 73.7083 94.2983 74.2623 93.8722 74.7358C93.4508 75.2045 92.911 75.5691 92.2528 75.8295C91.5947 76.0852 90.8419 76.2131 89.9943 76.2131ZM103.579 80.0909C103.229 80.0909 102.904 80.0625 102.606 80.0057C102.313 79.9536 102.078 79.892 101.903 79.821L102.5 77.8182C102.874 77.9271 103.208 77.9792 103.501 77.9744C103.795 77.9697 104.053 77.8774 104.275 77.6974C104.502 77.5223 104.694 77.2287 104.85 76.8168L105.071 76.2273L101.115 65.0909H103.842L106.356 73.3295H106.47L108.991 65.0909H111.725L107.358 77.321C107.154 77.8987 106.884 78.3935 106.548 78.8054C106.212 79.2221 105.8 79.5393 105.312 79.7571C104.829 79.9796 104.252 80.0909 103.579 80.0909ZM117.892 76.2131C116.827 76.2131 115.903 75.9787 115.122 75.5099C114.341 75.0412 113.735 74.3854 113.304 73.5426C112.878 72.6998 112.665 71.715 112.665 70.5881C112.665 69.4612 112.878 68.474 113.304 67.6264C113.735 66.7789 114.341 66.1207 115.122 65.652C115.903 65.1832 116.827 64.9489 117.892 64.9489C118.957 64.9489 119.881 65.1832 120.662 65.652C121.443 66.1207 122.047 66.7789 122.473 67.6264C122.904 68.474 123.119 69.4612 123.119 70.5881C123.119 71.715 122.904 72.6998 122.473 73.5426C122.047 74.3854 121.443 75.0412 120.662 75.5099C119.881 75.9787 118.957 76.2131 117.892 76.2131ZM117.906 74.1534C118.484 74.1534 118.967 73.9948 119.355 73.6776C119.743 73.3556 120.032 72.9247 120.222 72.3849C120.416 71.8452 120.513 71.2438 120.513 70.581C120.513 69.9134 120.416 69.3097 120.222 68.7699C120.032 68.2254 119.743 67.7921 119.355 67.4702C118.967 67.1482 118.484 66.9872 117.906 66.9872C117.314 66.9872 116.822 67.1482 116.429 67.4702C116.041 67.7921 115.75 68.2254 115.555 68.7699C115.366 69.3097 115.271 69.9134 115.271 70.581C115.271 71.2438 115.366 71.8452 115.555 72.3849C115.75 72.9247 116.041 73.3556 116.429 73.6776C116.822 73.9948 117.314 74.1534 117.906 74.1534ZM132.255 71.4119V65.0909H134.826V76H132.333V74.0611H132.219C131.973 74.6719 131.568 75.1714 131.005 75.5597C130.446 75.9479 129.757 76.142 128.938 76.142C128.223 76.142 127.591 75.9834 127.042 75.6662C126.497 75.3442 126.071 74.8778 125.763 74.267C125.455 73.6515 125.301 72.9081 125.301 72.0369V65.0909H127.873V71.6392C127.873 72.3305 128.062 72.8797 128.441 73.2869C128.819 73.6941 129.317 73.8977 129.932 73.8977C130.311 73.8977 130.678 73.8054 131.033 73.6207C131.388 73.4361 131.679 73.1615 131.907 72.7969C132.139 72.4276 132.255 71.9659 132.255 71.4119ZM146.479 76.1918C145.622 76.1918 144.855 75.9716 144.178 75.5312C143.5 75.0909 142.965 74.4517 142.572 73.6136C142.179 72.7756 141.983 71.7576 141.983 70.5597C141.983 69.3475 142.182 68.3248 142.58 67.4915C142.982 66.6534 143.524 66.0213 144.206 65.5952C144.888 65.1643 145.648 64.9489 146.486 64.9489C147.125 64.9489 147.651 65.0578 148.062 65.2756C148.474 65.4886 148.801 65.7467 149.043 66.0497C149.284 66.348 149.471 66.6297 149.604 66.8949H149.71V61.4545H152.288V76H149.76V74.2812H149.604C149.471 74.5464 149.279 74.8281 149.028 75.1264C148.777 75.42 148.446 75.6709 148.034 75.8793C147.622 76.0876 147.104 76.1918 146.479 76.1918ZM147.196 74.0824C147.741 74.0824 148.205 73.9356 148.588 73.642C148.972 73.3437 149.263 72.9295 149.462 72.3991C149.661 71.8688 149.76 71.2509 149.76 70.5455C149.76 69.84 149.661 69.2268 149.462 68.706C149.268 68.1851 148.979 67.7803 148.595 67.4915C148.216 67.2027 147.75 67.0582 147.196 67.0582C146.623 67.0582 146.145 67.2074 145.761 67.5057C145.378 67.804 145.089 68.2159 144.895 68.7415C144.701 69.267 144.604 69.8684 144.604 70.5455C144.604 71.2273 144.701 71.8357 144.895 72.3707C145.094 72.901 145.385 73.3201 145.768 73.6278C146.157 73.9309 146.633 74.0824 147.196 74.0824ZM159.787 76.2131C158.721 76.2131 157.798 75.9787 157.017 75.5099C156.235 75.0412 155.629 74.3854 155.199 73.5426C154.772 72.6998 154.559 71.715 154.559 70.5881C154.559 69.4612 154.772 68.474 155.199 67.6264C155.629 66.7789 156.235 66.1207 157.017 65.652C157.798 65.1832 158.721 64.9489 159.787 64.9489C160.852 64.9489 161.775 65.1832 162.556 65.652C163.338 66.1207 163.941 66.7789 164.368 67.6264C164.798 68.474 165.014 69.4612 165.014 70.5881C165.014 71.715 164.798 72.6998 164.368 73.5426C163.941 74.3854 163.338 75.0412 162.556 75.5099C161.775 75.9787 160.852 76.2131 159.787 76.2131ZM159.801 74.1534C160.378 74.1534 160.861 73.9948 161.25 73.6776C161.638 73.3556 161.927 72.9247 162.116 72.3849C162.31 71.8452 162.407 71.2438 162.407 70.581C162.407 69.9134 162.31 69.3097 162.116 68.7699C161.927 68.2254 161.638 67.7921 161.25 67.4702C160.861 67.1482 160.378 66.9872 159.801 66.9872C159.209 66.9872 158.717 67.1482 158.324 67.4702C157.935 67.7921 157.644 68.2254 157.45 68.7699C157.261 69.3097 157.166 69.9134 157.166 70.581C157.166 71.2438 157.261 71.8452 157.45 72.3849C157.644 72.9247 157.935 73.3556 158.324 73.6776C158.717 73.9948 159.209 74.1534 159.801 74.1534ZM169.767 69.608V76H167.196V65.0909H169.653V66.9446H169.781C170.032 66.3338 170.432 65.8485 170.982 65.4886C171.536 65.1288 172.22 64.9489 173.034 64.9489C173.787 64.9489 174.443 65.1098 175.001 65.4318C175.565 65.7538 176 66.2202 176.308 66.831C176.621 67.4418 176.775 68.1828 176.77 69.054V76H174.199V69.4517C174.199 68.7225 174.009 68.152 173.631 67.7401C173.257 67.3281 172.738 67.1222 172.075 67.1222C171.625 67.1222 171.225 67.2216 170.875 67.4205C170.529 67.6146 170.257 67.8963 170.058 68.2656C169.864 68.6349 169.767 69.0824 169.767 69.608ZM181.564 61.4545V62.9034C181.564 63.3201 181.483 63.7533 181.322 64.2031C181.166 64.6482 180.951 65.0743 180.676 65.4815C180.402 65.884 180.089 66.2296 179.739 66.5185L178.545 65.7443C178.806 65.3513 179.033 64.9276 179.227 64.473C179.421 64.0137 179.518 63.4953 179.518 62.9176V61.4545H181.564ZM189.46 65.0909V67.0795H183.189V65.0909H189.46ZM184.737 62.4773H187.308V72.7188C187.308 73.0644 187.36 73.3295 187.464 73.5142C187.573 73.6941 187.715 73.8172 187.89 73.8835C188.065 73.9498 188.26 73.983 188.473 73.983C188.634 73.983 188.78 73.9711 188.913 73.9474C189.05 73.9238 189.154 73.9025 189.225 73.8835L189.659 75.8935C189.521 75.9408 189.325 75.9929 189.069 76.0497C188.818 76.1065 188.511 76.1397 188.146 76.1491C187.502 76.1681 186.922 76.071 186.406 75.858C185.89 75.6402 185.48 75.304 185.177 74.8494C184.879 74.3949 184.732 73.8267 184.737 73.1449V62.4773ZM199.142 69.608V76H196.571V61.4545H199.085V66.9446H199.213C199.469 66.3291 199.864 65.8437 200.399 65.4886C200.939 65.1288 201.625 64.9489 202.459 64.9489C203.216 64.9489 203.877 65.1075 204.44 65.4247C205.004 65.742 205.439 66.206 205.747 66.8168C206.06 67.4276 206.216 68.1733 206.216 69.054V76H203.645V69.4517C203.645 68.7178 203.455 68.1473 203.077 67.7401C202.703 67.3281 202.177 67.1222 201.5 67.1222C201.045 67.1222 200.638 67.2216 200.278 67.4205C199.923 67.6146 199.644 67.8963 199.44 68.2656C199.241 68.6349 199.142 69.0824 199.142 69.608ZM211.976 76.2202C211.285 76.2202 210.662 76.0971 210.108 75.8509C209.559 75.5999 209.123 75.2306 208.801 74.7429C208.484 74.2552 208.325 73.6539 208.325 72.9389C208.325 72.3234 208.439 71.8144 208.666 71.4119C208.893 71.0095 209.204 70.6875 209.597 70.446C209.99 70.2045 210.432 70.0223 210.925 69.8991C211.422 69.7713 211.936 69.679 212.466 69.6222C213.105 69.5559 213.624 69.4967 214.021 69.4446C214.419 69.3878 214.708 69.3026 214.888 69.1889C215.072 69.0705 215.165 68.8883 215.165 68.642V68.5994C215.165 68.0644 215.006 67.6501 214.689 67.3565C214.372 67.063 213.915 66.9162 213.318 66.9162C212.688 66.9162 212.189 67.0535 211.82 67.3281C211.455 67.6027 211.209 67.9271 211.081 68.3011L208.68 67.9602C208.87 67.2973 209.182 66.7434 209.618 66.2983C210.054 65.8485 210.586 65.5123 211.216 65.2898C211.846 65.0625 212.542 64.9489 213.304 64.9489C213.83 64.9489 214.353 65.0104 214.874 65.1335C215.394 65.2566 215.87 65.4602 216.301 65.7443C216.732 66.0237 217.078 66.4048 217.338 66.8878C217.603 67.3707 217.736 67.9744 217.736 68.6989V76H215.264V74.5014H215.179C215.023 74.8045 214.803 75.0885 214.518 75.3537C214.239 75.6141 213.886 75.8248 213.46 75.9858C213.039 76.142 212.544 76.2202 211.976 76.2202ZM212.643 74.331C213.16 74.331 213.607 74.2292 213.986 74.0256C214.365 73.8172 214.656 73.5426 214.859 73.2017C215.068 72.8608 215.172 72.4891 215.172 72.0866V70.8011C215.091 70.8674 214.954 70.929 214.76 70.9858C214.571 71.0426 214.357 71.0923 214.121 71.1349C213.884 71.1776 213.65 71.2154 213.418 71.2486C213.186 71.2817 212.984 71.3101 212.814 71.3338C212.43 71.3859 212.087 71.4711 211.784 71.5895C211.481 71.7079 211.242 71.8736 211.067 72.0866C210.892 72.295 210.804 72.5649 210.804 72.8963C210.804 73.3698 210.977 73.7273 211.322 73.9688C211.668 74.2102 212.108 74.331 212.643 74.331ZM229.675 65.0909L225.79 76H222.949L219.064 65.0909H221.805L224.312 73.1946H224.426L226.94 65.0909H229.675ZM235.912 76.2131C234.819 76.2131 233.874 75.9858 233.078 75.5312C232.288 75.072 231.679 74.4233 231.253 73.5852C230.827 72.7424 230.614 71.7505 230.614 70.6094C230.614 69.4872 230.827 68.5024 231.253 67.6548C231.684 66.8026 232.285 66.1397 233.057 65.6662C233.829 65.188 234.736 64.9489 235.777 64.9489C236.45 64.9489 237.084 65.0578 237.681 65.2756C238.282 65.4886 238.812 65.8201 239.272 66.2699C239.736 66.7197 240.1 67.2926 240.365 67.9886C240.631 68.6799 240.763 69.5038 240.763 70.4602V71.2486H231.821V69.5156H238.299C238.294 69.0232 238.187 68.5852 237.979 68.2017C237.771 67.8134 237.48 67.508 237.105 67.2855C236.736 67.063 236.305 66.9517 235.813 66.9517C235.287 66.9517 234.826 67.0795 234.428 67.3352C234.03 67.5862 233.72 67.9176 233.498 68.3295C233.28 68.7367 233.168 69.1842 233.164 69.6719V71.1847C233.164 71.8191 233.28 72.3636 233.512 72.8182C233.744 73.268 234.068 73.6136 234.485 73.8551C234.901 74.0919 235.389 74.2102 235.948 74.2102C236.322 74.2102 236.66 74.1581 236.963 74.054C237.266 73.9451 237.529 73.7865 237.752 73.5781C237.974 73.3698 238.142 73.1117 238.256 72.804L240.657 73.0739C240.505 73.7083 240.216 74.2623 239.79 74.7358C239.369 75.2045 238.829 75.5691 238.171 75.8295C237.513 76.0852 236.76 76.2131 235.912 76.2131ZM251.038 76.2202C250.347 76.2202 249.724 76.0971 249.17 75.8509C248.621 75.5999 248.186 75.2306 247.864 74.7429C247.546 74.2552 247.388 73.6539 247.388 72.9389C247.388 72.3234 247.501 71.8144 247.729 71.4119C247.956 71.0095 248.266 70.6875 248.659 70.446C249.052 70.2045 249.495 70.0223 249.987 69.8991C250.484 69.7713 250.998 69.679 251.528 69.6222C252.168 69.5559 252.686 69.4967 253.084 69.4446C253.482 69.3878 253.77 69.3026 253.95 69.1889C254.135 69.0705 254.227 68.8883 254.227 68.642V68.5994C254.227 68.0644 254.069 67.6501 253.751 67.3565C253.434 67.063 252.977 66.9162 252.381 66.9162C251.751 66.9162 251.251 67.0535 250.882 67.3281C250.518 67.6027 250.271 67.9271 250.143 68.3011L247.743 67.9602C247.932 67.2973 248.245 66.7434 248.68 66.2983C249.116 65.8485 249.649 65.5123 250.278 65.2898C250.908 65.0625 251.604 64.9489 252.366 64.9489C252.892 64.9489 253.415 65.0104 253.936 65.1335C254.457 65.2566 254.933 65.4602 255.364 65.7443C255.795 66.0237 256.14 66.4048 256.401 66.8878C256.666 67.3707 256.798 67.9744 256.798 68.6989V76H254.327V74.5014H254.241C254.085 74.8045 253.865 75.0885 253.581 75.3537C253.302 75.6141 252.949 75.8248 252.523 75.9858C252.101 76.142 251.607 76.2202 251.038 76.2202ZM251.706 74.331C252.222 74.331 252.67 74.2292 253.048 74.0256C253.427 73.8172 253.718 73.5426 253.922 73.2017C254.13 72.8608 254.234 72.4891 254.234 72.0866V70.8011C254.154 70.8674 254.017 70.929 253.822 70.9858C253.633 71.0426 253.42 71.0923 253.183 71.1349C252.946 71.1776 252.712 71.2154 252.48 71.2486C252.248 71.2817 252.047 71.3101 251.876 71.3338C251.493 71.3859 251.15 71.4711 250.847 71.5895C250.544 71.7079 250.304 71.8736 250.129 72.0866C249.954 72.295 249.866 72.5649 249.866 72.8963C249.866 73.3698 250.039 73.7273 250.385 73.9688C250.731 74.2102 251.171 74.331 251.706 74.331ZM261.955 69.608V76H259.384V65.0909H261.841V66.9446H261.969C262.22 66.3338 262.62 65.8485 263.169 65.4886C263.723 65.1288 264.407 64.9489 265.222 64.9489C265.974 64.9489 266.63 65.1098 267.189 65.4318C267.752 65.7538 268.188 66.2202 268.496 66.831C268.808 67.4418 268.962 68.1828 268.957 69.054V76H266.386V69.4517C266.386 68.7225 266.197 68.152 265.818 67.7401C265.444 67.3281 264.926 67.1222 264.263 67.1222C263.813 67.1222 263.413 67.2216 263.062 67.4205C262.717 67.6146 262.445 67.8963 262.246 68.2656C262.052 68.6349 261.955 69.0824 261.955 69.608ZM272.778 80.0909C272.428 80.0909 272.104 80.0625 271.805 80.0057C271.512 79.9536 271.277 79.892 271.102 79.821L271.699 77.8182C272.073 77.9271 272.407 77.9792 272.7 77.9744C272.994 77.9697 273.252 77.8774 273.474 77.6974C273.702 77.5223 273.893 77.2287 274.05 76.8168L274.27 76.2273L270.314 65.0909H273.041L275.555 73.3295H275.669L278.19 65.0909H280.925L276.557 77.321C276.353 77.8987 276.083 78.3935 275.747 78.8054C275.411 79.2221 274.999 79.5393 274.511 79.7571C274.028 79.9796 273.451 80.0909 272.778 80.0909ZM293.112 65.0909V67.0795H286.841V65.0909H293.112ZM288.389 62.4773H290.96V72.7188C290.96 73.0644 291.012 73.3295 291.116 73.5142C291.225 73.6941 291.367 73.8172 291.543 73.8835C291.718 73.9498 291.912 73.983 292.125 73.983C292.286 73.983 292.433 73.9711 292.565 73.9474C292.703 73.9238 292.807 73.9025 292.878 73.8835L293.311 75.8935C293.174 75.9408 292.977 75.9929 292.722 76.0497C292.471 76.1065 292.163 76.1397 291.798 76.1491C291.154 76.1681 290.574 76.071 290.058 75.858C289.542 75.6402 289.133 75.304 288.83 74.8494C288.531 74.3949 288.384 73.8267 288.389 73.1449V62.4773ZM299.975 76.2131C298.881 76.2131 297.936 75.9858 297.141 75.5312C296.35 75.072 295.742 74.4233 295.316 73.5852C294.89 72.7424 294.676 71.7505 294.676 70.6094C294.676 69.4872 294.89 68.5024 295.316 67.6548C295.747 66.8026 296.348 66.1397 297.12 65.6662C297.891 65.188 298.798 64.9489 299.84 64.9489C300.512 64.9489 301.147 65.0578 301.743 65.2756C302.345 65.4886 302.875 65.8201 303.334 66.2699C303.798 66.7197 304.163 67.2926 304.428 67.9886C304.693 68.6799 304.826 69.5038 304.826 70.4602V71.2486H295.884V69.5156H302.361C302.356 69.0232 302.25 68.5852 302.042 68.2017C301.833 67.8134 301.542 67.508 301.168 67.2855C300.799 67.063 300.368 66.9517 299.875 66.9517C299.35 66.9517 298.888 67.0795 298.49 67.3352C298.093 67.5862 297.783 67.9176 297.56 68.3295C297.342 68.7367 297.231 69.1842 297.226 69.6719V71.1847C297.226 71.8191 297.342 72.3636 297.574 72.8182C297.806 73.268 298.131 73.6136 298.547 73.8551C298.964 74.0919 299.452 74.2102 300.01 74.2102C300.384 74.2102 300.723 74.1581 301.026 74.054C301.329 73.9451 301.592 73.7865 301.814 73.5781C302.037 73.3698 302.205 73.1117 302.319 72.804L304.719 73.0739C304.568 73.7083 304.279 74.2623 303.853 74.7358C303.431 75.2045 302.891 75.5691 302.233 75.8295C301.575 76.0852 300.822 76.2131 299.975 76.2131ZM307.001 76V65.0909H309.458V66.9446H309.586C309.813 66.3196 310.19 65.8319 310.715 65.4815C311.241 65.1264 311.868 64.9489 312.597 64.9489C313.336 64.9489 313.959 65.1288 314.465 65.4886C314.977 65.8437 315.336 66.3291 315.545 66.9446H315.658C315.9 66.3385 316.307 65.8556 316.88 65.4957C317.458 65.1312 318.142 64.9489 318.933 64.9489C319.936 64.9489 320.755 65.2661 321.39 65.9006C322.024 66.535 322.342 67.4607 322.342 68.6776V76H319.763V69.0753C319.763 68.3982 319.584 67.9034 319.224 67.5909C318.864 67.2737 318.424 67.1151 317.903 67.1151C317.282 67.1151 316.797 67.3092 316.447 67.6974C316.101 68.081 315.928 68.5805 315.928 69.196V76H313.407V68.9688C313.407 68.4053 313.237 67.9555 312.896 67.6193C312.559 67.2831 312.119 67.1151 311.575 67.1151C311.205 67.1151 310.869 67.2098 310.566 67.3991C310.263 67.5838 310.022 67.8466 309.842 68.1875C309.662 68.5237 309.572 68.9167 309.572 69.3665V76H307.001ZM324.95 80.0909V65.0909H327.478V66.8949H327.627C327.76 66.6297 327.947 66.348 328.189 66.0497C328.43 65.7467 328.757 65.4886 329.169 65.2756C329.581 65.0578 330.106 64.9489 330.745 64.9489C331.588 64.9489 332.348 65.1643 333.025 65.5952C333.707 66.0213 334.247 66.6534 334.645 67.4915C335.047 68.3248 335.248 69.3475 335.248 70.5597C335.248 71.7576 335.052 72.7756 334.659 73.6136C334.266 74.4517 333.731 75.0909 333.054 75.5312C332.377 75.9716 331.609 76.1918 330.752 76.1918C330.127 76.1918 329.609 76.0876 329.197 75.8793C328.785 75.6709 328.454 75.42 328.203 75.1264C327.957 74.8281 327.765 74.5464 327.627 74.2812H327.521V80.0909H324.95ZM327.471 70.5455C327.471 71.2509 327.571 71.8688 327.77 72.3991C327.973 72.9295 328.264 73.3437 328.643 73.642C329.027 73.9356 329.491 74.0824 330.035 74.0824C330.603 74.0824 331.079 73.9309 331.463 73.6278C331.846 73.3201 332.135 72.901 332.329 72.3707C332.528 71.8357 332.627 71.2273 332.627 70.5455C332.627 69.8684 332.53 69.267 332.336 68.7415C332.142 68.2159 331.853 67.804 331.47 67.5057C331.086 67.2074 330.608 67.0582 330.035 67.0582C329.486 67.0582 329.02 67.2027 328.636 67.4915C328.252 67.7803 327.961 68.1851 327.762 68.706C327.568 69.2268 327.471 69.84 327.471 70.5455ZM340.021 61.4545V76H337.45V61.4545H340.021ZM345.804 76.2202C345.113 76.2202 344.49 76.0971 343.936 75.8509C343.387 75.5999 342.951 75.2306 342.629 74.7429C342.312 74.2552 342.153 73.6539 342.153 72.9389C342.153 72.3234 342.267 71.8144 342.494 71.4119C342.722 71.0095 343.032 70.6875 343.425 70.446C343.818 70.2045 344.26 70.0223 344.753 69.8991C345.25 69.7713 345.764 69.679 346.294 69.6222C346.933 69.5559 347.452 69.4967 347.849 69.4446C348.247 69.3878 348.536 69.3026 348.716 69.1889C348.901 69.0705 348.993 68.8883 348.993 68.642V68.5994C348.993 68.0644 348.834 67.6501 348.517 67.3565C348.2 67.063 347.743 66.9162 347.146 66.9162C346.517 66.9162 346.017 67.0535 345.648 67.3281C345.283 67.6027 345.037 67.9271 344.909 68.3011L342.509 67.9602C342.698 67.2973 343.01 66.7434 343.446 66.2983C343.882 65.8485 344.414 65.5123 345.044 65.2898C345.674 65.0625 346.37 64.9489 347.132 64.9489C347.658 64.9489 348.181 65.0104 348.702 65.1335C349.223 65.2566 349.698 65.4602 350.129 65.7443C350.56 66.0237 350.906 66.4048 351.166 66.8878C351.431 67.3707 351.564 67.9744 351.564 68.6989V76H349.092V74.5014H349.007C348.851 74.8045 348.631 75.0885 348.347 75.3537C348.067 75.6141 347.714 75.8248 347.288 75.9858C346.867 76.142 346.372 76.2202 345.804 76.2202ZM346.472 74.331C346.988 74.331 347.435 74.2292 347.814 74.0256C348.193 73.8172 348.484 73.5426 348.688 73.2017C348.896 72.8608 349 72.4891 349 72.0866V70.8011C348.92 70.8674 348.782 70.929 348.588 70.9858C348.399 71.0426 348.186 71.0923 347.949 71.1349C347.712 71.1776 347.478 71.2154 347.246 71.2486C347.014 71.2817 346.813 71.3101 346.642 71.3338C346.259 71.3859 345.915 71.4711 345.612 71.5895C345.309 71.7079 345.07 71.8736 344.895 72.0866C344.72 72.295 344.632 72.5649 344.632 72.8963C344.632 73.3698 344.805 73.7273 345.151 73.9688C345.496 74.2102 345.937 74.331 346.472 74.331ZM359.597 65.0909V67.0795H353.325V65.0909H359.597ZM354.874 62.4773H357.445V72.7188C357.445 73.0644 357.497 73.3295 357.601 73.5142C357.71 73.6941 357.852 73.8172 358.027 73.8835C358.202 73.9498 358.396 73.983 358.609 73.983C358.77 73.983 358.917 73.9711 359.05 73.9474C359.187 73.9238 359.291 73.9025 359.362 73.8835L359.795 75.8935C359.658 75.9408 359.462 75.9929 359.206 76.0497C358.955 76.1065 358.647 76.1397 358.283 76.1491C357.639 76.1681 357.059 76.071 356.543 75.858C356.027 75.6402 355.617 75.304 355.314 74.8494C355.016 74.3949 354.869 73.8267 354.874 73.1449V62.4773ZM366.459 76.2131C365.365 76.2131 364.421 75.9858 363.625 75.5312C362.835 75.072 362.226 74.4233 361.8 73.5852C361.374 72.7424 361.161 71.7505 361.161 70.6094C361.161 69.4872 361.374 68.5024 361.8 67.6548C362.231 66.8026 362.832 66.1397 363.604 65.6662C364.376 65.188 365.283 64.9489 366.324 64.9489C366.997 64.9489 367.631 65.0578 368.228 65.2756C368.829 65.4886 369.359 65.8201 369.819 66.2699C370.283 66.7197 370.647 67.2926 370.912 67.9886C371.177 68.6799 371.31 69.5038 371.31 70.4602V71.2486H362.368V69.5156H368.846C368.841 69.0232 368.734 68.5852 368.526 68.2017C368.318 67.8134 368.026 67.508 367.652 67.2855C367.283 67.063 366.852 66.9517 366.36 66.9517C365.834 66.9517 365.373 67.0795 364.975 67.3352C364.577 67.5862 364.267 67.9176 364.044 68.3295C363.827 68.7367 363.715 69.1842 363.711 69.6719V71.1847C363.711 71.8191 363.827 72.3636 364.059 72.8182C364.291 73.268 364.615 73.6136 365.032 73.8551C365.448 74.0919 365.936 74.2102 366.495 74.2102C366.869 74.2102 367.207 74.1581 367.51 74.054C367.813 73.9451 368.076 73.7865 368.299 73.5781C368.521 73.3698 368.689 73.1117 368.803 72.804L371.203 73.0739C371.052 73.7083 370.763 74.2623 370.337 74.7358C369.916 75.2045 369.376 75.5691 368.718 75.8295C368.06 76.0852 367.307 76.2131 366.459 76.2131ZM383.205 76.2131C382.116 76.2131 381.18 75.974 380.399 75.4957C379.623 75.0175 379.024 74.357 378.602 73.5142C378.186 72.6667 377.977 71.6913 377.977 70.5881C377.977 69.4801 378.19 68.5024 378.616 67.6548C379.043 66.8026 379.644 66.1397 380.42 65.6662C381.202 65.188 382.125 64.9489 383.19 64.9489C384.076 64.9489 384.859 65.1122 385.541 65.4389C386.228 65.7609 386.775 66.2178 387.182 66.8097C387.589 67.3968 387.821 68.0833 387.878 68.8693H385.42C385.321 68.3437 385.084 67.9058 384.71 67.5554C384.341 67.2003 383.846 67.0227 383.226 67.0227C382.7 67.0227 382.239 67.1648 381.841 67.4489C381.443 67.7282 381.133 68.1307 380.911 68.6562C380.693 69.1818 380.584 69.8116 380.584 70.5455C380.584 71.2888 380.693 71.928 380.911 72.4631C381.128 72.9934 381.434 73.4029 381.827 73.6918C382.224 73.9759 382.691 74.1179 383.226 74.1179C383.605 74.1179 383.943 74.0469 384.241 73.9048C384.545 73.758 384.798 73.5473 385.001 73.2727C385.205 72.9981 385.345 72.6643 385.42 72.2713H387.878C387.816 73.0431 387.589 73.7273 387.196 74.3239C386.803 74.9157 386.268 75.3797 385.591 75.7159C384.914 76.0473 384.118 76.2131 383.205 76.2131ZM389.989 76V65.0909H392.482V66.9091H392.596C392.794 66.2794 393.135 65.794 393.618 65.4531C394.106 65.1075 394.662 64.9347 395.287 64.9347C395.429 64.9347 395.588 64.9418 395.763 64.956C395.943 64.9654 396.092 64.982 396.211 65.0057V67.3707C396.102 67.3329 395.929 67.2997 395.692 67.2713C395.46 67.2382 395.235 67.2216 395.017 67.2216C394.549 67.2216 394.127 67.3234 393.753 67.527C393.384 67.7259 393.093 68.0028 392.88 68.358C392.667 68.7131 392.56 69.1226 392.56 69.5866V76H389.989ZM402.299 76.2131C401.205 76.2131 400.261 75.9858 399.465 75.5312C398.674 75.072 398.066 74.4233 397.64 73.5852C397.214 72.7424 397.001 71.7505 397.001 70.6094C397.001 69.4872 397.214 68.5024 397.64 67.6548C398.071 66.8026 398.672 66.1397 399.444 65.6662C400.216 65.188 401.122 64.9489 402.164 64.9489C402.836 64.9489 403.471 65.0578 404.067 65.2756C404.669 65.4886 405.199 65.8201 405.658 66.2699C406.122 66.7197 406.487 67.2926 406.752 67.9886C407.017 68.6799 407.15 69.5038 407.15 70.4602V71.2486H398.208V69.5156H404.685C404.681 69.0232 404.574 68.5852 404.366 68.2017C404.157 67.8134 403.866 67.508 403.492 67.2855C403.123 67.063 402.692 66.9517 402.2 66.9517C401.674 66.9517 401.212 67.0795 400.815 67.3352C400.417 67.5862 400.107 67.9176 399.884 68.3295C399.666 68.7367 399.555 69.1842 399.55 69.6719V71.1847C399.55 71.8191 399.666 72.3636 399.898 72.8182C400.13 73.268 400.455 73.6136 400.871 73.8551C401.288 74.0919 401.776 74.2102 402.335 74.2102C402.709 74.2102 403.047 74.1581 403.35 74.054C403.653 73.9451 403.916 73.7865 404.138 73.5781C404.361 73.3698 404.529 73.1117 404.643 72.804L407.043 73.0739C406.892 73.7083 406.603 74.2623 406.177 74.7358C405.755 75.2045 405.216 75.5691 404.558 75.8295C403.899 76.0852 403.147 76.2131 402.299 76.2131ZM412.464 76.2202C411.773 76.2202 411.15 76.0971 410.596 75.8509C410.047 75.5999 409.611 75.2306 409.289 74.7429C408.972 74.2552 408.814 73.6539 408.814 72.9389C408.814 72.3234 408.927 71.8144 409.154 71.4119C409.382 71.0095 409.692 70.6875 410.085 70.446C410.478 70.2045 410.921 70.0223 411.413 69.8991C411.91 69.7713 412.424 69.679 412.954 69.6222C413.593 69.5559 414.112 69.4967 414.51 69.4446C414.907 69.3878 415.196 69.3026 415.376 69.1889C415.561 69.0705 415.653 68.8883 415.653 68.642V68.5994C415.653 68.0644 415.494 67.6501 415.177 67.3565C414.86 67.063 414.403 66.9162 413.806 66.9162C413.177 66.9162 412.677 67.0535 412.308 67.3281C411.943 67.6027 411.697 67.9271 411.569 68.3011L409.169 67.9602C409.358 67.2973 409.671 66.7434 410.106 66.2983C410.542 65.8485 411.074 65.5123 411.704 65.2898C412.334 65.0625 413.03 64.9489 413.792 64.9489C414.318 64.9489 414.841 65.0104 415.362 65.1335C415.883 65.2566 416.359 65.4602 416.789 65.7443C417.22 66.0237 417.566 66.4048 417.826 66.8878C418.092 67.3707 418.224 67.9744 418.224 68.6989V76H415.752V74.5014H415.667C415.511 74.8045 415.291 75.0885 415.007 75.3537C414.727 75.6141 414.375 75.8248 413.949 75.9858C413.527 76.142 413.032 76.2202 412.464 76.2202ZM413.132 74.331C413.648 74.331 414.095 74.2292 414.474 74.0256C414.853 73.8172 415.144 73.5426 415.348 73.2017C415.556 72.8608 415.66 72.4891 415.66 72.0866V70.8011C415.58 70.8674 415.442 70.929 415.248 70.9858C415.059 71.0426 414.846 71.0923 414.609 71.1349C414.372 71.1776 414.138 71.2154 413.906 71.2486C413.674 71.2817 413.473 71.3101 413.302 71.3338C412.919 71.3859 412.575 71.4711 412.272 71.5895C411.969 71.7079 411.73 71.8736 411.555 72.0866C411.38 72.295 411.292 72.5649 411.292 72.8963C411.292 73.3698 411.465 73.7273 411.811 73.9688C412.156 74.2102 412.597 74.331 413.132 74.331ZM426.257 65.0909V67.0795H419.985V65.0909H426.257ZM421.534 62.4773H424.105V72.7188C424.105 73.0644 424.157 73.3295 424.261 73.5142C424.37 73.6941 424.512 73.8172 424.687 73.8835C424.862 73.9498 425.056 73.983 425.27 73.983C425.431 73.983 425.577 73.9711 425.71 73.9474C425.847 73.9238 425.951 73.9025 426.022 73.8835L426.456 75.8935C426.318 75.9408 426.122 75.9929 425.866 76.0497C425.615 76.1065 425.307 76.1397 424.943 76.1491C424.299 76.1681 423.719 76.071 423.203 75.858C422.687 75.6402 422.277 75.304 421.974 74.8494C421.676 74.3949 421.529 73.8267 421.534 73.1449V62.4773ZM433.119 76.2131C432.026 76.2131 431.081 75.9858 430.286 75.5312C429.495 75.072 428.886 74.4233 428.46 73.5852C428.034 72.7424 427.821 71.7505 427.821 70.6094C427.821 69.4872 428.034 68.5024 428.46 67.6548C428.891 66.8026 429.492 66.1397 430.264 65.6662C431.036 65.188 431.943 64.9489 432.984 64.9489C433.657 64.9489 434.291 65.0578 434.888 65.2756C435.489 65.4886 436.019 65.8201 436.479 66.2699C436.943 66.7197 437.307 67.2926 437.572 67.9886C437.838 68.6799 437.97 69.5038 437.97 70.4602V71.2486H429.028V69.5156H435.506C435.501 69.0232 435.394 68.5852 435.186 68.2017C434.978 67.8134 434.687 67.508 434.312 67.2855C433.943 67.063 433.512 66.9517 433.02 66.9517C432.494 66.9517 432.033 67.0795 431.635 67.3352C431.237 67.5862 430.927 67.9176 430.705 68.3295C430.487 68.7367 430.375 69.1842 430.371 69.6719V71.1847C430.371 71.8191 430.487 72.3636 430.719 72.8182C430.951 73.268 431.275 73.6136 431.692 73.8551C432.108 74.0919 432.596 74.2102 433.155 74.2102C433.529 74.2102 433.867 74.1581 434.17 74.054C434.473 73.9451 434.736 73.7865 434.959 73.5781C435.181 73.3698 435.349 73.1117 435.463 72.804L437.864 73.0739C437.712 73.7083 437.423 74.2623 436.997 74.7358C436.576 75.2045 436.036 75.5691 435.378 75.8295C434.72 76.0852 433.967 76.2131 433.119 76.2131ZM444.194 76.1918C443.337 76.1918 442.569 75.9716 441.892 75.5312C441.215 75.0909 440.68 74.4517 440.287 73.6136C439.894 72.7756 439.698 71.7576 439.698 70.5597C439.698 69.3475 439.897 68.3248 440.294 67.4915C440.697 66.6534 441.239 66.0213 441.921 65.5952C442.603 65.1643 443.363 64.9489 444.201 64.9489C444.84 64.9489 445.365 65.0578 445.777 65.2756C446.189 65.4886 446.516 65.7467 446.757 66.0497C446.999 66.348 447.186 66.6297 447.319 66.8949H447.425V61.4545H450.003V76H447.475V74.2812H447.319C447.186 74.5464 446.994 74.8281 446.743 75.1264C446.492 75.42 446.161 75.6709 445.749 75.8793C445.337 76.0876 444.819 76.1918 444.194 76.1918ZM444.911 74.0824C445.455 74.0824 445.919 73.9356 446.303 73.642C446.686 73.3437 446.978 72.9295 447.176 72.3991C447.375 71.8688 447.475 71.2509 447.475 70.5455C447.475 69.84 447.375 69.2268 447.176 68.706C446.982 68.1851 446.694 67.7803 446.31 67.4915C445.931 67.2027 445.465 67.0582 444.911 67.0582C444.338 67.0582 443.86 67.2074 443.476 67.5057C443.093 67.804 442.804 68.2159 442.61 68.7415C442.416 69.267 442.319 69.8684 442.319 70.5455C442.319 71.2273 442.416 71.8357 442.61 72.3707C442.809 72.901 443.1 73.3201 443.483 73.6278C443.872 73.9309 444.347 74.0824 444.911 74.0824ZM63.4957 100L59.3906 85.4545H62.2244L64.8452 96.1435H64.9801L67.7784 85.4545H70.3565L73.1619 96.1506H73.2898L75.9105 85.4545H78.7443L74.6392 100H72.0398L69.1278 89.794H69.0142L66.0952 100H63.4957ZM84.103 100.213C83.0376 100.213 82.1143 99.9787 81.3331 99.5099C80.5518 99.0412 79.9458 98.3854 79.5149 97.5426C79.0888 96.6998 78.8757 95.715 78.8757 94.5881C78.8757 93.4612 79.0888 92.474 79.5149 91.6264C79.9458 90.7789 80.5518 90.1207 81.3331 89.652C82.1143 89.1832 83.0376 88.9489 84.103 88.9489C85.1683 88.9489 86.0916 89.1832 86.8729 89.652C87.6541 90.1207 88.2578 90.7789 88.6839 91.6264C89.1148 92.474 89.3303 93.4612 89.3303 94.5881C89.3303 95.715 89.1148 96.6998 88.6839 97.5426C88.2578 98.3854 87.6541 99.0412 86.8729 99.5099C86.0916 99.9787 85.1683 100.213 84.103 100.213ZM84.1172 98.1534C84.6948 98.1534 85.1778 97.9948 85.5661 97.6776C85.9543 97.3556 86.2431 96.9247 86.4325 96.3849C86.6267 95.8452 86.7237 95.2438 86.7237 94.581C86.7237 93.9134 86.6267 93.3097 86.4325 92.7699C86.2431 92.2254 85.9543 91.7921 85.5661 91.4702C85.1778 91.1482 84.6948 90.9872 84.1172 90.9872C83.5253 90.9872 83.0329 91.1482 82.6399 91.4702C82.2517 91.7921 81.9605 92.2254 81.7663 92.7699C81.5769 93.3097 81.4822 93.9134 81.4822 94.581C81.4822 95.2438 81.5769 95.8452 81.7663 96.3849C81.9605 96.9247 82.2517 97.3556 82.6399 97.6776C83.0329 97.9948 83.5253 98.1534 84.1172 98.1534ZM98.4656 95.4119V89.0909H101.037V100H98.5437V98.0611H98.43C98.1838 98.6719 97.779 99.1714 97.2156 99.5597C96.6568 99.9479 95.9679 100.142 95.1488 100.142C94.4338 100.142 93.8017 99.9834 93.2525 99.6662C92.708 99.3442 92.2818 98.8778 91.9741 98.267C91.6663 97.6515 91.5124 96.9081 91.5124 96.0369V89.0909H94.0835V95.6392C94.0835 96.3305 94.2728 96.8797 94.6516 97.2869C95.0304 97.6941 95.5276 97.8977 96.1431 97.8977C96.5219 97.8977 96.8888 97.8054 97.244 97.6207C97.5991 97.4361 97.8903 97.1615 98.1175 96.7969C98.3496 96.4276 98.4656 95.9659 98.4656 95.4119ZM106.251 85.4545V100H103.68V85.4545H106.251ZM112.944 100.192C112.087 100.192 111.319 99.9716 110.642 99.5312C109.965 99.0909 109.43 98.4517 109.037 97.6136C108.644 96.7756 108.448 95.7576 108.448 94.5597C108.448 93.3475 108.647 92.3248 109.044 91.4915C109.447 90.6534 109.989 90.0213 110.671 89.5952C111.353 89.1643 112.113 88.9489 112.951 88.9489C113.59 88.9489 114.115 89.0578 114.527 89.2756C114.939 89.4886 115.266 89.7467 115.507 90.0497C115.749 90.348 115.936 90.6297 116.069 90.8949H116.175V85.4545H118.753V100H116.225V98.2812H116.069C115.936 98.5464 115.744 98.8281 115.493 99.1264C115.242 99.42 114.911 99.6709 114.499 99.8793C114.087 100.088 113.569 100.192 112.944 100.192ZM113.661 98.0824C114.205 98.0824 114.669 97.9356 115.053 97.642C115.436 97.3437 115.728 96.9295 115.926 96.3991C116.125 95.8688 116.225 95.2509 116.225 94.5455C116.225 93.84 116.125 93.2268 115.926 92.706C115.732 92.1851 115.444 91.7803 115.06 91.4915C114.681 91.2027 114.215 91.0582 113.661 91.0582C113.088 91.0582 112.61 91.2074 112.226 91.5057C111.843 91.804 111.554 92.2159 111.36 92.7415C111.166 93.267 111.069 93.8684 111.069 94.5455C111.069 95.2273 111.166 95.8357 111.36 96.3707C111.559 96.901 111.85 97.3201 112.233 97.6278C112.622 97.9309 113.097 98.0824 113.661 98.0824ZM128.052 104.091C127.701 104.091 127.377 104.063 127.079 104.006C126.785 103.954 126.551 103.892 126.376 103.821L126.972 101.818C127.346 101.927 127.68 101.979 127.974 101.974C128.267 101.97 128.525 101.877 128.748 101.697C128.975 101.522 129.167 101.229 129.323 100.817L129.543 100.227L125.587 89.0909H128.315L130.829 97.3295H130.942L133.464 89.0909H136.198L131.83 101.321C131.627 101.899 131.357 102.393 131.021 102.805C130.684 103.222 130.272 103.539 129.785 103.757C129.302 103.98 128.724 104.091 128.052 104.091ZM142.365 100.213C141.299 100.213 140.376 99.9787 139.595 99.5099C138.814 99.0412 138.208 98.3854 137.777 97.5426C137.35 96.6998 137.137 95.715 137.137 94.5881C137.137 93.4612 137.35 92.474 137.777 91.6264C138.208 90.7789 138.814 90.1207 139.595 89.652C140.376 89.1832 141.299 88.9489 142.365 88.9489C143.43 88.9489 144.353 89.1832 145.135 89.652C145.916 90.1207 146.52 90.7789 146.946 91.6264C147.377 92.474 147.592 93.4612 147.592 94.5881C147.592 95.715 147.377 96.6998 146.946 97.5426C146.52 98.3854 145.916 99.0412 145.135 99.5099C144.353 99.9787 143.43 100.213 142.365 100.213ZM142.379 98.1534C142.957 98.1534 143.44 97.9948 143.828 97.6776C144.216 97.3556 144.505 96.9247 144.694 96.3849C144.888 95.8452 144.985 95.2438 144.985 94.581C144.985 93.9134 144.888 93.3097 144.694 92.7699C144.505 92.2254 144.216 91.7921 143.828 91.4702C143.44 91.1482 142.957 90.9872 142.379 90.9872C141.787 90.9872 141.295 91.1482 140.902 91.4702C140.513 91.7921 140.222 92.2254 140.028 92.7699C139.839 93.3097 139.744 93.9134 139.744 94.581C139.744 95.2438 139.839 95.8452 140.028 96.3849C140.222 96.9247 140.513 97.3556 140.902 97.6776C141.295 97.9948 141.787 98.1534 142.379 98.1534ZM156.727 95.4119V89.0909H159.298V100H156.805V98.0611H156.692C156.446 98.6719 156.041 99.1714 155.477 99.5597C154.919 99.9479 154.23 100.142 153.411 100.142C152.696 100.142 152.063 99.9834 151.514 99.6662C150.97 99.3442 150.544 98.8778 150.236 98.267C149.928 97.6515 149.774 96.9081 149.774 96.0369V89.0909H152.345V95.6392C152.345 96.3305 152.535 96.8797 152.913 97.2869C153.292 97.6941 153.789 97.8977 154.405 97.8977C154.784 97.8977 155.151 97.8054 155.506 97.6207C155.861 97.4361 156.152 97.1615 156.379 96.7969C156.611 96.4276 156.727 95.9659 156.727 95.4119ZM169.474 85.4545V100H166.903V85.4545H169.474ZM172.118 100V89.0909H174.689V100H172.118ZM173.411 87.5426C173.003 87.5426 172.653 87.4077 172.359 87.1378C172.066 86.8632 171.919 86.5341 171.919 86.1506C171.919 85.7623 172.066 85.4332 172.359 85.1634C172.653 84.8887 173.003 84.7514 173.411 84.7514C173.822 84.7514 174.173 84.8887 174.462 85.1634C174.755 85.4332 174.902 85.7623 174.902 86.1506C174.902 86.5341 174.755 86.8632 174.462 87.1378C174.173 87.4077 173.822 87.5426 173.411 87.5426ZM179.676 96.5767L179.669 93.473H180.081L184.002 89.0909H187.006L182.184 94.4602H181.651L179.676 96.5767ZM177.333 100V85.4545H179.904V100H177.333ZM184.179 100L180.628 95.0355L182.361 93.2244L187.255 100H184.179ZM193.1 100.213C192.006 100.213 191.061 99.9858 190.266 99.5312C189.475 99.072 188.867 98.4233 188.441 97.5852C188.015 96.7424 187.801 95.7505 187.801 94.6094C187.801 93.4872 188.015 92.5024 188.441 91.6548C188.872 90.8026 189.473 90.1397 190.245 89.6662C191.016 89.188 191.923 88.9489 192.965 88.9489C193.637 88.9489 194.272 89.0578 194.868 89.2756C195.47 89.4886 196 89.8201 196.459 90.2699C196.923 90.7197 197.288 91.2926 197.553 91.9886C197.818 92.6799 197.951 93.5038 197.951 94.4602V95.2486H189.009V93.5156H195.486C195.481 93.0232 195.375 92.5852 195.167 92.2017C194.958 91.8134 194.667 91.508 194.293 91.2855C193.924 91.063 193.493 90.9517 193 90.9517C192.475 90.9517 192.013 91.0795 191.615 91.3352C191.218 91.5862 190.908 91.9176 190.685 92.3295C190.467 92.7367 190.356 93.1842 190.351 93.6719V95.1847C190.351 95.8191 190.467 96.3636 190.699 96.8182C190.931 97.268 191.256 97.6136 191.672 97.8551C192.089 98.0919 192.577 98.2102 193.135 98.2102C193.509 98.2102 193.848 98.1581 194.151 98.054C194.454 97.9451 194.717 97.7865 194.939 97.5781C195.162 97.3698 195.33 97.1117 195.444 96.804L197.844 97.0739C197.693 97.7083 197.404 98.2623 196.978 98.7358C196.556 99.2045 196.016 99.5691 195.358 99.8295C194.7 100.085 193.947 100.213 193.1 100.213ZM210.534 89.0909V91.0795H204.263V89.0909H210.534ZM205.811 86.4773H208.382V96.7188C208.382 97.0644 208.434 97.3295 208.538 97.5142C208.647 97.6941 208.789 97.8172 208.964 97.8835C209.14 97.9498 209.334 97.983 209.547 97.983C209.708 97.983 209.855 97.9711 209.987 97.9474C210.125 97.9238 210.229 97.9025 210.3 97.8835L210.733 99.8935C210.596 99.9408 210.399 99.9929 210.143 100.05C209.893 100.107 209.585 100.14 209.22 100.149C208.576 100.168 207.996 100.071 207.48 99.858C206.964 99.6402 206.554 99.304 206.251 98.8494C205.953 98.3949 205.806 97.8267 205.811 97.1449V86.4773ZM217.326 100.213C216.26 100.213 215.337 99.9787 214.556 99.5099C213.775 99.0412 213.168 98.3854 212.738 97.5426C212.311 96.6998 212.098 95.715 212.098 94.5881C212.098 93.4612 212.311 92.474 212.738 91.6264C213.168 90.7789 213.775 90.1207 214.556 89.652C215.337 89.1832 216.26 88.9489 217.326 88.9489C218.391 88.9489 219.314 89.1832 220.096 89.652C220.877 90.1207 221.48 90.7789 221.907 91.6264C222.337 92.474 222.553 93.4612 222.553 94.5881C222.553 95.715 222.337 96.6998 221.907 97.5426C221.48 98.3854 220.877 99.0412 220.096 99.5099C219.314 99.9787 218.391 100.213 217.326 100.213ZM217.34 98.1534C217.917 98.1534 218.4 97.9948 218.789 97.6776C219.177 97.3556 219.466 96.9247 219.655 96.3849C219.849 95.8452 219.946 95.2438 219.946 94.581C219.946 93.9134 219.849 93.3097 219.655 92.7699C219.466 92.2254 219.177 91.7921 218.789 91.4702C218.4 91.1482 217.917 90.9872 217.34 90.9872C216.748 90.9872 216.256 91.1482 215.863 91.4702C215.474 91.7921 215.183 92.2254 214.989 92.7699C214.8 93.3097 214.705 93.9134 214.705 94.581C214.705 95.2438 214.8 95.8452 214.989 96.3849C215.183 96.9247 215.474 97.3556 215.863 97.6776C216.256 97.9948 216.748 98.1534 217.34 98.1534ZM234.455 100.213C233.366 100.213 232.43 99.974 231.649 99.4957C230.873 99.0175 230.274 98.357 229.852 97.5142C229.436 96.6667 229.227 95.6913 229.227 94.5881C229.227 93.4801 229.44 92.5024 229.866 91.6548C230.293 90.8026 230.894 90.1397 231.67 89.6662C232.452 89.188 233.375 88.9489 234.44 88.9489C235.326 88.9489 236.109 89.1122 236.791 89.4389C237.478 89.7609 238.025 90.2178 238.432 90.8097C238.839 91.3968 239.071 92.0833 239.128 92.8693H236.67C236.571 92.3437 236.334 91.9058 235.96 91.5554C235.591 91.2003 235.096 91.0227 234.476 91.0227C233.95 91.0227 233.489 91.1648 233.091 91.4489C232.693 91.7282 232.383 92.1307 232.161 92.6562C231.943 93.1818 231.834 93.8116 231.834 94.5455C231.834 95.2888 231.943 95.928 232.161 96.4631C232.378 96.9934 232.684 97.4029 233.077 97.6918C233.474 97.9759 233.941 98.1179 234.476 98.1179C234.855 98.1179 235.193 98.0469 235.491 97.9048C235.795 97.758 236.048 97.5473 236.251 97.2727C236.455 96.9981 236.595 96.6643 236.67 96.2713H239.128C239.066 97.0431 238.839 97.7273 238.446 98.3239C238.053 98.9157 237.518 99.3797 236.841 99.7159C236.164 100.047 235.368 100.213 234.455 100.213ZM241.239 100V89.0909H243.732V90.9091H243.846C244.044 90.2794 244.385 89.794 244.868 89.4531C245.356 89.1075 245.912 88.9347 246.537 88.9347C246.679 88.9347 246.838 88.9418 247.013 88.956C247.193 88.9654 247.342 88.982 247.461 89.0057V91.3707C247.352 91.3329 247.179 91.2997 246.942 91.2713C246.71 91.2382 246.485 91.2216 246.267 91.2216C245.799 91.2216 245.377 91.3234 245.003 91.527C244.634 91.7259 244.343 92.0028 244.13 92.358C243.917 92.7131 243.81 93.1226 243.81 93.5866V100H241.239ZM253.549 100.213C252.455 100.213 251.511 99.9858 250.715 99.5312C249.924 99.072 249.316 98.4233 248.89 97.5852C248.464 96.7424 248.251 95.7505 248.251 94.6094C248.251 93.4872 248.464 92.5024 248.89 91.6548C249.321 90.8026 249.922 90.1397 250.694 89.6662C251.466 89.188 252.372 88.9489 253.414 88.9489C254.086 88.9489 254.721 89.0578 255.317 89.2756C255.919 89.4886 256.449 89.8201 256.908 90.2699C257.372 90.7197 257.737 91.2926 258.002 91.9886C258.267 92.6799 258.4 93.5038 258.4 94.4602V95.2486H249.458V93.5156H255.935C255.931 93.0232 255.824 92.5852 255.616 92.2017C255.407 91.8134 255.116 91.508 254.742 91.2855C254.373 91.063 253.942 90.9517 253.45 90.9517C252.924 90.9517 252.462 91.0795 252.065 91.3352C251.667 91.5862 251.357 91.9176 251.134 92.3295C250.916 92.7367 250.805 93.1842 250.8 93.6719V95.1847C250.8 95.8191 250.916 96.3636 251.148 96.8182C251.38 97.268 251.705 97.6136 252.121 97.8551C252.538 98.0919 253.026 98.2102 253.585 98.2102C253.959 98.2102 254.297 98.1581 254.6 98.054C254.903 97.9451 255.166 97.7865 255.388 97.5781C255.611 97.3698 255.779 97.1117 255.893 96.804L258.293 97.0739C258.142 97.7083 257.853 98.2623 257.427 98.7358C257.005 99.2045 256.466 99.5691 255.808 99.8295C255.149 100.085 254.397 100.213 253.549 100.213ZM263.714 100.22C263.023 100.22 262.4 100.097 261.846 99.8509C261.297 99.5999 260.861 99.2306 260.539 98.7429C260.222 98.2552 260.064 97.6539 260.064 96.9389C260.064 96.3234 260.177 95.8144 260.404 95.4119C260.632 95.0095 260.942 94.6875 261.335 94.446C261.728 94.2045 262.171 94.0223 262.663 93.8991C263.16 93.7713 263.674 93.679 264.204 93.6222C264.843 93.5559 265.362 93.4967 265.76 93.4446C266.157 93.3878 266.446 93.3026 266.626 93.1889C266.811 93.0705 266.903 92.8883 266.903 92.642V92.5994C266.903 92.0644 266.744 91.6501 266.427 91.3565C266.11 91.063 265.653 90.9162 265.056 90.9162C264.427 90.9162 263.927 91.0535 263.558 91.3281C263.193 91.6027 262.947 91.9271 262.819 92.3011L260.419 91.9602C260.608 91.2973 260.921 90.7434 261.356 90.2983C261.792 89.8485 262.324 89.5123 262.954 89.2898C263.584 89.0625 264.28 88.9489 265.042 88.9489C265.568 88.9489 266.091 89.0104 266.612 89.1335C267.133 89.2566 267.609 89.4602 268.039 89.7443C268.47 90.0237 268.816 90.4048 269.076 90.8878C269.342 91.3707 269.474 91.9744 269.474 92.6989V100H267.002V98.5014H266.917C266.761 98.8045 266.541 99.0885 266.257 99.3537C265.977 99.6141 265.625 99.8248 265.199 99.9858C264.777 100.142 264.282 100.22 263.714 100.22ZM264.382 98.331C264.898 98.331 265.345 98.2292 265.724 98.0256C266.103 97.8172 266.394 97.5426 266.598 97.2017C266.806 96.8608 266.91 96.4891 266.91 96.0866V94.8011C266.83 94.8674 266.692 94.929 266.498 94.9858C266.309 95.0426 266.096 95.0923 265.859 95.1349C265.622 95.1776 265.388 95.2154 265.156 95.2486C264.924 95.2817 264.723 95.3101 264.552 95.3338C264.169 95.3859 263.825 95.4711 263.522 95.5895C263.219 95.7079 262.98 95.8736 262.805 96.0866C262.63 96.295 262.542 96.5649 262.542 96.8963C262.542 97.3698 262.715 97.7273 263.061 97.9688C263.406 98.2102 263.847 98.331 264.382 98.331ZM277.507 89.0909V91.0795H271.235V89.0909H277.507ZM272.784 86.4773H275.355V96.7188C275.355 97.0644 275.407 97.3295 275.511 97.5142C275.62 97.6941 275.762 97.8172 275.937 97.8835C276.112 97.9498 276.306 97.983 276.52 97.983C276.681 97.983 276.827 97.9711 276.96 97.9474C277.097 97.9238 277.201 97.9025 277.272 97.8835L277.706 99.8935C277.568 99.9408 277.372 99.9929 277.116 100.05C276.865 100.107 276.557 100.14 276.193 100.149C275.549 100.168 274.969 100.071 274.453 99.858C273.937 99.6402 273.527 99.304 273.224 98.8494C272.926 98.3949 272.779 97.8267 272.784 97.1449V86.4773ZM284.369 100.213C283.276 100.213 282.331 99.9858 281.536 99.5312C280.745 99.072 280.136 98.4233 279.71 97.5852C279.284 96.7424 279.071 95.7505 279.071 94.6094C279.071 93.4872 279.284 92.5024 279.71 91.6548C280.141 90.8026 280.742 90.1397 281.514 89.6662C282.286 89.188 283.193 88.9489 284.234 88.9489C284.907 88.9489 285.541 89.0578 286.138 89.2756C286.739 89.4886 287.269 89.8201 287.729 90.2699C288.193 90.7197 288.557 91.2926 288.822 91.9886C289.088 92.6799 289.22 93.5038 289.22 94.4602V95.2486H280.278V93.5156H286.756C286.751 93.0232 286.644 92.5852 286.436 92.2017C286.228 91.8134 285.937 91.508 285.562 91.2855C285.193 91.063 284.762 90.9517 284.27 90.9517C283.744 90.9517 283.283 91.0795 282.885 91.3352C282.487 91.5862 282.177 91.9176 281.955 92.3295C281.737 92.7367 281.625 93.1842 281.621 93.6719V95.1847C281.621 95.8191 281.737 96.3636 281.969 96.8182C282.201 97.268 282.525 97.6136 282.942 97.8551C283.358 98.0919 283.846 98.2102 284.405 98.2102C284.779 98.2102 285.117 98.1581 285.42 98.054C285.723 97.9451 285.986 97.7865 286.209 97.5781C286.431 97.3698 286.599 97.1117 286.713 96.804L289.114 97.0739C288.962 97.7083 288.673 98.2623 288.247 98.7358C287.826 99.2045 287.286 99.5691 286.628 99.8295C285.97 100.085 285.217 100.213 284.369 100.213ZM301.115 100.213C300.049 100.213 299.126 99.9787 298.345 99.5099C297.564 99.0412 296.958 98.3854 296.527 97.5426C296.1 96.6998 295.887 95.715 295.887 94.5881C295.887 93.4612 296.1 92.474 296.527 91.6264C296.958 90.7789 297.564 90.1207 298.345 89.652C299.126 89.1832 300.049 88.9489 301.115 88.9489C302.18 88.9489 303.103 89.1832 303.885 89.652C304.666 90.1207 305.27 90.7789 305.696 91.6264C306.127 92.474 306.342 93.4612 306.342 94.5881C306.342 95.715 306.127 96.6998 305.696 97.5426C305.27 98.3854 304.666 99.0412 303.885 99.5099C303.103 99.9787 302.18 100.213 301.115 100.213ZM301.129 98.1534C301.707 98.1534 302.19 97.9948 302.578 97.6776C302.966 97.3556 303.255 96.9247 303.444 96.3849C303.638 95.8452 303.735 95.2438 303.735 94.581C303.735 93.9134 303.638 93.3097 303.444 92.7699C303.255 92.2254 302.966 91.7921 302.578 91.4702C302.19 91.1482 301.707 90.9872 301.129 90.9872C300.537 90.9872 300.045 91.1482 299.652 91.4702C299.263 91.7921 298.972 92.2254 298.778 92.7699C298.589 93.3097 298.494 93.9134 298.494 94.581C298.494 95.2438 298.589 95.8452 298.778 96.3849C298.972 96.9247 299.263 97.3556 299.652 97.6776C300.045 97.9948 300.537 98.1534 301.129 98.1534ZM311.095 93.608V100H308.524V89.0909H310.982V90.9446H311.109C311.36 90.3338 311.76 89.8485 312.31 89.4886C312.864 89.1288 313.548 88.9489 314.362 88.9489C315.115 88.9489 315.771 89.1098 316.33 89.4318C316.893 89.7538 317.329 90.2202 317.636 90.831C317.949 91.4418 318.103 92.1828 318.098 93.054V100H315.527V93.4517C315.527 92.7225 315.338 92.152 314.959 91.7401C314.585 91.3281 314.066 91.1222 313.403 91.1222C312.954 91.1222 312.554 91.2216 312.203 91.4205C311.857 91.6146 311.585 91.8963 311.386 92.2656C311.192 92.6349 311.095 93.0824 311.095 93.608ZM325.541 100.213C324.447 100.213 323.503 99.9858 322.707 99.5312C321.917 99.072 321.308 98.4233 320.882 97.5852C320.456 96.7424 320.243 95.7505 320.243 94.6094C320.243 93.4872 320.456 92.5024 320.882 91.6548C321.313 90.8026 321.914 90.1397 322.686 89.6662C323.458 89.188 324.365 88.9489 325.406 88.9489C326.079 88.9489 326.713 89.0578 327.31 89.2756C327.911 89.4886 328.441 89.8201 328.901 90.2699C329.365 90.7197 329.729 91.2926 329.994 91.9886C330.259 92.6799 330.392 93.5038 330.392 94.4602V95.2486H321.45V93.5156H327.928C327.923 93.0232 327.816 92.5852 327.608 92.2017C327.4 91.8134 327.108 91.508 326.734 91.2855C326.365 91.063 325.934 90.9517 325.442 90.9517C324.916 90.9517 324.455 91.0795 324.057 91.3352C323.659 91.5862 323.349 91.9176 323.126 92.3295C322.909 92.7367 322.797 93.1842 322.793 93.6719V95.1847C322.793 95.8191 322.909 96.3636 323.141 96.8182C323.373 97.268 323.697 97.6136 324.114 97.8551C324.53 98.0919 325.018 98.2102 325.577 98.2102C325.951 98.2102 326.289 98.1581 326.592 98.054C326.895 97.9451 327.158 97.7865 327.381 97.5781C327.603 97.3698 327.771 97.1117 327.885 96.804L330.286 97.0739C330.134 97.7083 329.845 98.2623 329.419 98.7358C328.998 99.2045 328.458 99.5691 327.8 99.8295C327.142 100.085 326.389 100.213 325.541 100.213ZM335.025 95.7244V95.5398C335.029 94.6828 335.11 94.0009 335.266 93.4943C335.427 92.9877 335.654 92.5805 335.948 92.2727C336.241 91.9602 336.599 91.6738 337.02 91.4134C337.309 91.2334 337.567 91.0369 337.794 90.8239C338.026 90.6061 338.209 90.3646 338.341 90.0994C338.474 89.8295 338.54 89.5289 338.54 89.1974C338.54 88.8234 338.453 88.4991 338.277 88.2244C338.102 87.9498 337.865 87.7367 337.567 87.5852C337.274 87.4337 336.944 87.358 336.58 87.358C336.244 87.358 335.924 87.4313 335.621 87.5781C335.323 87.7202 335.074 87.938 334.875 88.2315C334.681 88.5204 334.572 88.8873 334.549 89.3324H332.02C332.044 88.4328 332.262 87.6799 332.674 87.0739C333.09 86.4678 333.64 86.0133 334.321 85.7102C335.008 85.4072 335.766 85.2557 336.594 85.2557C337.498 85.2557 338.294 85.4143 338.98 85.7315C339.672 86.0488 340.209 86.5009 340.593 87.0881C340.981 87.6705 341.175 88.3617 341.175 89.1619C341.175 89.7017 341.087 90.1847 340.912 90.6108C340.742 91.0369 340.498 91.4157 340.181 91.7472C339.864 92.0786 339.487 92.3745 339.051 92.6349C338.668 92.8717 338.353 93.1179 338.107 93.3736C337.865 93.6293 337.685 93.9299 337.567 94.2756C337.453 94.6165 337.394 95.0379 337.39 95.5398V95.7244H335.025ZM336.26 100.156C335.834 100.156 335.467 100.005 335.159 99.7017C334.852 99.3987 334.698 99.0294 334.698 98.5938C334.698 98.1676 334.852 97.803 335.159 97.5C335.467 97.197 335.834 97.0455 336.26 97.0455C336.682 97.0455 337.046 97.197 337.354 97.5C337.667 97.803 337.823 98.1676 337.823 98.5938C337.823 98.8826 337.749 99.1454 337.603 99.3821C337.461 99.6188 337.271 99.8082 337.034 99.9503C336.802 100.088 336.544 100.156 336.26 100.156ZM66.1733 109.455H68.7869V119.682C68.7822 120.619 68.5833 121.427 68.1903 122.104C67.7973 122.776 67.2481 123.295 66.5426 123.659C65.8419 124.019 65.0251 124.199 64.0923 124.199C63.2401 124.199 62.473 124.047 61.7912 123.744C61.1141 123.437 60.5767 122.982 60.179 122.381C59.7813 121.779 59.5824 121.031 59.5824 120.136H62.2031C62.2079 120.529 62.2931 120.868 62.4588 121.152C62.6293 121.436 62.8636 121.654 63.1619 121.805C63.4602 121.957 63.8035 122.033 64.1918 122.033C64.6132 122.033 64.9706 121.945 65.2642 121.77C65.5578 121.59 65.7803 121.325 65.9318 120.974C66.0881 120.624 66.1686 120.193 66.1733 119.682V109.455ZM78.4851 119.412V113.091H81.0561V124H78.5632V122.061H78.4496C78.2034 122.672 77.7985 123.171 77.2351 123.56C76.6764 123.948 75.9875 124.142 75.1683 124.142C74.4534 124.142 73.8213 123.983 73.272 123.666C72.7275 123.344 72.3014 122.878 71.9936 122.267C71.6858 121.652 71.532 120.908 71.532 120.037V113.091H74.103V119.639C74.103 120.33 74.2924 120.88 74.6712 121.287C75.05 121.694 75.5471 121.898 76.1626 121.898C76.5414 121.898 76.9084 121.805 77.2635 121.621C77.6186 121.436 77.9098 121.161 78.1371 120.797C78.3691 120.428 78.4851 119.966 78.4851 119.412ZM92.3221 115.974L89.9783 116.23C89.9121 115.993 89.796 115.771 89.6303 115.562C89.4693 115.354 89.2515 115.186 88.9769 115.058C88.7023 114.93 88.3661 114.866 87.9684 114.866C87.4334 114.866 86.9835 114.982 86.619 115.214C86.2591 115.446 86.0816 115.747 86.0863 116.116C86.0816 116.434 86.1976 116.692 86.4343 116.891C86.6758 117.089 87.0735 117.253 87.6275 117.381L89.4883 117.778C90.5205 118.001 91.2875 118.354 91.7894 118.837C92.296 119.32 92.5517 119.952 92.5565 120.733C92.5517 121.42 92.3505 122.026 91.9528 122.551C91.5598 123.072 91.0129 123.479 90.3121 123.773C89.6114 124.066 88.8065 124.213 87.8974 124.213C86.5621 124.213 85.4873 123.934 84.6729 123.375C83.8585 122.812 83.3732 122.028 83.217 121.024L85.7241 120.783C85.8377 121.275 86.0792 121.647 86.4485 121.898C86.8178 122.149 87.2984 122.274 87.8903 122.274C88.5011 122.274 88.9911 122.149 89.3604 121.898C89.7345 121.647 89.9215 121.337 89.9215 120.967C89.9215 120.655 89.8008 120.397 89.5593 120.193C89.3226 119.99 88.9532 119.833 88.4513 119.724L86.5906 119.334C85.5442 119.116 84.77 118.749 84.2681 118.233C83.7662 117.712 83.5176 117.054 83.5224 116.259C83.5176 115.586 83.6999 115.004 84.0692 114.511C84.4433 114.014 84.9618 113.631 85.6246 113.361C86.2923 113.086 87.0617 112.949 87.9329 112.949C89.2113 112.949 90.2174 113.221 90.9513 113.766C91.69 114.31 92.1469 115.046 92.3221 115.974ZM100.124 113.091V115.08H93.8526V113.091H100.124ZM95.4009 110.477H97.9719V120.719C97.9719 121.064 98.024 121.33 98.1282 121.514C98.2371 121.694 98.3791 121.817 98.5543 121.884C98.7295 121.95 98.9237 121.983 99.1367 121.983C99.2977 121.983 99.4445 121.971 99.5771 121.947C99.7144 121.924 99.8185 121.902 99.8896 121.884L100.323 123.893C100.185 123.941 99.989 123.993 99.7333 124.05C99.4824 124.107 99.1746 124.14 98.81 124.149C98.1661 124.168 97.5861 124.071 97.07 123.858C96.5539 123.64 96.1443 123.304 95.8413 122.849C95.543 122.395 95.3962 121.827 95.4009 121.145V110.477ZM107.235 128.091V113.091H109.763V114.895H109.913C110.045 114.63 110.232 114.348 110.474 114.05C110.715 113.747 111.042 113.489 111.454 113.276C111.866 113.058 112.391 112.949 113.031 112.949C113.873 112.949 114.633 113.164 115.31 113.595C115.992 114.021 116.532 114.653 116.93 115.491C117.332 116.325 117.533 117.348 117.533 118.56C117.533 119.758 117.337 120.776 116.944 121.614C116.551 122.452 116.016 123.091 115.339 123.531C114.662 123.972 113.895 124.192 113.038 124.192C112.413 124.192 111.894 124.088 111.482 123.879C111.07 123.671 110.739 123.42 110.488 123.126C110.242 122.828 110.05 122.546 109.913 122.281H109.806V128.091H107.235ZM109.756 118.545C109.756 119.251 109.856 119.869 110.055 120.399C110.258 120.929 110.549 121.344 110.928 121.642C111.312 121.936 111.776 122.082 112.32 122.082C112.888 122.082 113.364 121.931 113.748 121.628C114.131 121.32 114.42 120.901 114.614 120.371C114.813 119.836 114.913 119.227 114.913 118.545C114.913 117.868 114.816 117.267 114.621 116.741C114.427 116.216 114.138 115.804 113.755 115.506C113.371 115.207 112.893 115.058 112.32 115.058C111.771 115.058 111.305 115.203 110.921 115.491C110.538 115.78 110.246 116.185 110.048 116.706C109.853 117.227 109.756 117.84 109.756 118.545ZM119.735 124V113.091H122.228V114.909H122.342C122.54 114.279 122.881 113.794 123.364 113.453C123.852 113.107 124.408 112.935 125.033 112.935C125.175 112.935 125.334 112.942 125.509 112.956C125.689 112.965 125.838 112.982 125.957 113.006V115.371C125.848 115.333 125.675 115.3 125.438 115.271C125.206 115.238 124.981 115.222 124.763 115.222C124.295 115.222 123.873 115.323 123.499 115.527C123.13 115.726 122.839 116.003 122.626 116.358C122.413 116.713 122.306 117.123 122.306 117.587V124H119.735ZM132.045 124.213C130.951 124.213 130.007 123.986 129.211 123.531C128.421 123.072 127.812 122.423 127.386 121.585C126.96 120.742 126.747 119.75 126.747 118.609C126.747 117.487 126.96 116.502 127.386 115.655C127.817 114.803 128.418 114.14 129.19 113.666C129.962 113.188 130.868 112.949 131.91 112.949C132.583 112.949 133.217 113.058 133.814 113.276C134.415 113.489 134.945 113.82 135.404 114.27C135.868 114.72 136.233 115.293 136.498 115.989C136.763 116.68 136.896 117.504 136.896 118.46V119.249H127.954V117.516H134.431C134.427 117.023 134.32 116.585 134.112 116.202C133.904 115.813 133.612 115.508 133.238 115.286C132.869 115.063 132.438 114.952 131.946 114.952C131.42 114.952 130.958 115.08 130.561 115.335C130.163 115.586 129.853 115.918 129.63 116.33C129.413 116.737 129.301 117.184 129.297 117.672V119.185C129.297 119.819 129.413 120.364 129.645 120.818C129.877 121.268 130.201 121.614 130.618 121.855C131.034 122.092 131.522 122.21 132.081 122.21C132.455 122.21 132.793 122.158 133.096 122.054C133.399 121.945 133.662 121.786 133.885 121.578C134.107 121.37 134.275 121.112 134.389 120.804L136.789 121.074C136.638 121.708 136.349 122.262 135.923 122.736C135.502 123.205 134.962 123.569 134.304 123.83C133.645 124.085 132.893 124.213 132.045 124.213ZM147.693 115.974L145.349 116.23C145.283 115.993 145.167 115.771 145.001 115.562C144.84 115.354 144.623 115.186 144.348 115.058C144.073 114.93 143.737 114.866 143.339 114.866C142.804 114.866 142.355 114.982 141.99 115.214C141.63 115.446 141.453 115.747 141.457 116.116C141.453 116.434 141.569 116.692 141.805 116.891C142.047 117.089 142.445 117.253 142.999 117.381L144.859 117.778C145.892 118.001 146.659 118.354 147.161 118.837C147.667 119.32 147.923 119.952 147.928 120.733C147.923 121.42 147.722 122.026 147.324 122.551C146.931 123.072 146.384 123.479 145.683 123.773C144.982 124.066 144.178 124.213 143.268 124.213C141.933 124.213 140.858 123.934 140.044 123.375C139.23 122.812 138.744 122.028 138.588 121.024L141.095 120.783C141.209 121.275 141.45 121.647 141.82 121.898C142.189 122.149 142.67 122.274 143.261 122.274C143.872 122.274 144.362 122.149 144.732 121.898C145.106 121.647 145.293 121.337 145.293 120.967C145.293 120.655 145.172 120.397 144.93 120.193C144.694 119.99 144.324 119.833 143.822 119.724L141.962 119.334C140.915 119.116 140.141 118.749 139.639 118.233C139.137 117.712 138.889 117.054 138.893 116.259C138.889 115.586 139.071 115.004 139.44 114.511C139.814 114.014 140.333 113.631 140.996 113.361C141.663 113.086 142.433 112.949 143.304 112.949C144.582 112.949 145.589 113.221 146.322 113.766C147.061 114.31 147.518 115.046 147.693 115.974ZM158.67 115.974L156.326 116.23C156.26 115.993 156.144 115.771 155.978 115.562C155.817 115.354 155.599 115.186 155.325 115.058C155.05 114.93 154.714 114.866 154.316 114.866C153.781 114.866 153.331 114.982 152.967 115.214C152.607 115.446 152.429 115.747 152.434 116.116C152.429 116.434 152.545 116.692 152.782 116.891C153.023 117.089 153.421 117.253 153.975 117.381L155.836 117.778C156.868 118.001 157.635 118.354 158.137 118.837C158.644 119.32 158.899 119.952 158.904 120.733C158.899 121.42 158.698 122.026 158.3 122.551C157.907 123.072 157.361 123.479 156.66 123.773C155.959 124.066 155.154 124.213 154.245 124.213C152.91 124.213 151.835 123.934 151.021 123.375C150.206 122.812 149.721 122.028 149.565 121.024L152.072 120.783C152.185 121.275 152.427 121.647 152.796 121.898C153.165 122.149 153.646 122.274 154.238 122.274C154.849 122.274 155.339 122.149 155.708 121.898C156.082 121.647 156.269 121.337 156.269 120.967C156.269 120.655 156.148 120.397 155.907 120.193C155.67 119.99 155.301 119.833 154.799 119.724L152.938 119.334C151.892 119.116 151.118 118.749 150.616 118.233C150.114 117.712 149.865 117.054 149.87 116.259C149.865 115.586 150.048 115.004 150.417 114.511C150.791 114.014 151.309 113.631 151.972 113.361C152.64 113.086 153.409 112.949 154.281 112.949C155.559 112.949 156.565 113.221 157.299 113.766C158.038 114.31 158.495 115.046 158.67 115.974ZM170.744 124.213C169.678 124.213 168.755 123.979 167.974 123.51C167.192 123.041 166.586 122.385 166.156 121.543C165.729 120.7 165.516 119.715 165.516 118.588C165.516 117.461 165.729 116.474 166.156 115.626C166.586 114.779 167.192 114.121 167.974 113.652C168.755 113.183 169.678 112.949 170.744 112.949C171.809 112.949 172.732 113.183 173.513 113.652C174.295 114.121 174.898 114.779 175.325 115.626C175.755 116.474 175.971 117.461 175.971 118.588C175.971 119.715 175.755 120.7 175.325 121.543C174.898 122.385 174.295 123.041 173.513 123.51C172.732 123.979 171.809 124.213 170.744 124.213ZM170.758 122.153C171.335 122.153 171.818 121.995 172.207 121.678C172.595 121.356 172.884 120.925 173.073 120.385C173.267 119.845 173.364 119.244 173.364 118.581C173.364 117.913 173.267 117.31 173.073 116.77C172.884 116.225 172.595 115.792 172.207 115.47C171.818 115.148 171.335 114.987 170.758 114.987C170.166 114.987 169.674 115.148 169.281 115.47C168.892 115.792 168.601 116.225 168.407 116.77C168.218 117.31 168.123 117.913 168.123 118.581C168.123 119.244 168.218 119.845 168.407 120.385C168.601 120.925 168.892 121.356 169.281 121.678C169.674 121.995 170.166 122.153 170.758 122.153ZM180.724 117.608V124H178.153V113.091H180.61V114.945H180.738C180.989 114.334 181.389 113.848 181.939 113.489C182.493 113.129 183.177 112.949 183.991 112.949C184.744 112.949 185.4 113.11 185.958 113.432C186.522 113.754 186.958 114.22 187.265 114.831C187.578 115.442 187.732 116.183 187.727 117.054V124H185.156V117.452C185.156 116.723 184.967 116.152 184.588 115.74C184.214 115.328 183.695 115.122 183.032 115.122C182.583 115.122 182.182 115.222 181.832 115.42C181.486 115.615 181.214 115.896 181.015 116.266C180.821 116.635 180.724 117.082 180.724 117.608ZM195.17 124.213C194.076 124.213 193.132 123.986 192.336 123.531C191.546 123.072 190.937 122.423 190.511 121.585C190.085 120.742 189.872 119.75 189.872 118.609C189.872 117.487 190.085 116.502 190.511 115.655C190.942 114.803 191.543 114.14 192.315 113.666C193.087 113.188 193.993 112.949 195.035 112.949C195.708 112.949 196.342 113.058 196.939 113.276C197.54 113.489 198.07 113.82 198.529 114.27C198.993 114.72 199.358 115.293 199.623 115.989C199.888 116.68 200.021 117.504 200.021 118.46V119.249H191.079V117.516H197.556C197.552 117.023 197.445 116.585 197.237 116.202C197.029 115.813 196.737 115.508 196.363 115.286C195.994 115.063 195.563 114.952 195.071 114.952C194.545 114.952 194.083 115.08 193.686 115.335C193.288 115.586 192.978 115.918 192.755 116.33C192.538 116.737 192.426 117.184 192.422 117.672V119.185C192.422 119.819 192.538 120.364 192.77 120.818C193.002 121.268 193.326 121.614 193.743 121.855C194.159 122.092 194.647 122.21 195.206 122.21C195.58 122.21 195.918 122.158 196.221 122.054C196.524 121.945 196.787 121.786 197.01 121.578C197.232 121.37 197.4 121.112 197.514 120.804L199.914 121.074C199.763 121.708 199.474 122.262 199.048 122.736C198.627 123.205 198.087 123.569 197.429 123.83C196.77 124.085 196.018 124.213 195.17 124.213ZM211.915 124.213C210.85 124.213 209.927 123.979 209.146 123.51C208.364 123.041 207.758 122.385 207.327 121.543C206.901 120.7 206.688 119.715 206.688 118.588C206.688 117.461 206.901 116.474 207.327 115.626C207.758 114.779 208.364 114.121 209.146 113.652C209.927 113.183 210.85 112.949 211.915 112.949C212.981 112.949 213.904 113.183 214.685 113.652C215.467 114.121 216.07 114.779 216.496 115.626C216.927 116.474 217.143 117.461 217.143 118.588C217.143 119.715 216.927 120.7 216.496 121.543C216.07 122.385 215.467 123.041 214.685 123.51C213.904 123.979 212.981 124.213 211.915 124.213ZM211.93 122.153C212.507 122.153 212.99 121.995 213.379 121.678C213.767 121.356 214.056 120.925 214.245 120.385C214.439 119.845 214.536 119.244 214.536 118.581C214.536 117.913 214.439 117.31 214.245 116.77C214.056 116.225 213.767 115.792 213.379 115.47C212.99 115.148 212.507 114.987 211.93 114.987C211.338 114.987 210.845 115.148 210.452 115.47C210.064 115.792 209.773 116.225 209.579 116.77C209.389 117.31 209.295 117.913 209.295 118.581C209.295 119.244 209.389 119.845 209.579 120.385C209.773 120.925 210.064 121.356 210.452 121.678C210.845 121.995 211.338 122.153 211.93 122.153ZM224.85 113.091V115.08H218.402V113.091H224.85ZM220.014 124V112.061C220.014 111.327 220.165 110.716 220.468 110.229C220.776 109.741 221.188 109.376 221.704 109.135C222.22 108.893 222.793 108.773 223.423 108.773C223.868 108.773 224.263 108.808 224.609 108.879C224.955 108.95 225.21 109.014 225.376 109.071L224.865 111.06C224.756 111.027 224.618 110.993 224.453 110.96C224.287 110.922 224.102 110.903 223.899 110.903C223.421 110.903 223.082 111.019 222.883 111.251C222.689 111.479 222.592 111.805 222.592 112.232V124H220.014ZM237.272 113.091V115.08H231.001V113.091H237.272ZM232.549 110.477H235.12V120.719C235.12 121.064 235.172 121.33 235.277 121.514C235.386 121.694 235.528 121.817 235.703 121.884C235.878 121.95 236.072 121.983 236.285 121.983C236.446 121.983 236.593 121.971 236.725 121.947C236.863 121.924 236.967 121.902 237.038 121.884L237.471 123.893C237.334 123.941 237.137 123.993 236.882 124.05C236.631 124.107 236.323 124.14 235.958 124.149C235.315 124.168 234.734 124.071 234.218 123.858C233.702 123.64 233.293 123.304 232.99 122.849C232.691 122.395 232.545 121.827 232.549 121.145V110.477ZM242.228 117.608V124H239.657V109.455H242.171V114.945H242.299C242.555 114.329 242.95 113.844 243.485 113.489C244.025 113.129 244.711 112.949 245.545 112.949C246.302 112.949 246.963 113.107 247.526 113.425C248.09 113.742 248.525 114.206 248.833 114.817C249.146 115.428 249.302 116.173 249.302 117.054V124H246.731V117.452C246.731 116.718 246.541 116.147 246.163 115.74C245.789 115.328 245.263 115.122 244.586 115.122C244.131 115.122 243.724 115.222 243.364 115.42C243.009 115.615 242.73 115.896 242.526 116.266C242.327 116.635 242.228 117.082 242.228 117.608ZM256.752 124.213C255.658 124.213 254.714 123.986 253.918 123.531C253.128 123.072 252.519 122.423 252.093 121.585C251.667 120.742 251.454 119.75 251.454 118.609C251.454 117.487 251.667 116.502 252.093 115.655C252.524 114.803 253.125 114.14 253.897 113.666C254.669 113.188 255.576 112.949 256.617 112.949C257.29 112.949 257.924 113.058 258.521 113.276C259.122 113.489 259.652 113.82 260.112 114.27C260.576 114.72 260.94 115.293 261.205 115.989C261.47 116.68 261.603 117.504 261.603 118.46V119.249H252.661V117.516H259.138C259.134 117.023 259.027 116.585 258.819 116.202C258.611 115.813 258.319 115.508 257.945 115.286C257.576 115.063 257.145 114.952 256.653 114.952C256.127 114.952 255.665 115.08 255.268 115.335C254.87 115.586 254.56 115.918 254.337 116.33C254.12 116.737 254.008 117.184 254.004 117.672V119.185C254.004 119.819 254.12 120.364 254.352 120.818C254.584 121.268 254.908 121.614 255.325 121.855C255.741 122.092 256.229 122.21 256.788 122.21C257.162 122.21 257.5 122.158 257.803 122.054C258.106 121.945 258.369 121.786 258.592 121.578C258.814 121.37 258.982 121.112 259.096 120.804L261.496 121.074C261.345 121.708 261.056 122.262 260.63 122.736C260.209 123.205 259.669 123.569 259.011 123.83C258.353 124.085 257.6 124.213 256.752 124.213ZM268.853 124V109.455H271.424V114.895H271.53C271.663 114.63 271.85 114.348 272.091 114.05C272.333 113.747 272.659 113.489 273.071 113.276C273.483 113.058 274.009 112.949 274.648 112.949C275.491 112.949 276.251 113.164 276.928 113.595C277.61 114.021 278.15 114.653 278.547 115.491C278.95 116.325 279.151 117.348 279.151 118.56C279.151 119.758 278.954 120.776 278.561 121.614C278.168 122.452 277.633 123.091 276.956 123.531C276.279 123.972 275.512 124.192 274.655 124.192C274.03 124.192 273.512 124.088 273.1 123.879C272.688 123.671 272.356 123.42 272.105 123.126C271.859 122.828 271.667 122.546 271.53 122.281H271.381V124H268.853ZM271.374 118.545C271.374 119.251 271.473 119.869 271.672 120.399C271.876 120.929 272.167 121.344 272.546 121.642C272.929 121.936 273.393 122.082 273.938 122.082C274.506 122.082 274.982 121.931 275.365 121.628C275.749 121.32 276.038 120.901 276.232 120.371C276.431 119.836 276.53 119.227 276.53 118.545C276.53 117.868 276.433 117.267 276.239 116.741C276.045 116.216 275.756 115.804 275.373 115.506C274.989 115.207 274.511 115.058 273.938 115.058C273.389 115.058 272.922 115.203 272.539 115.491C272.155 115.78 271.864 116.185 271.665 116.706C271.471 117.227 271.374 117.84 271.374 118.545ZM288.29 119.412V113.091H290.861V124H288.368V122.061H288.254C288.008 122.672 287.603 123.171 287.04 123.56C286.481 123.948 285.792 124.142 284.973 124.142C284.258 124.142 283.626 123.983 283.077 123.666C282.532 123.344 282.106 122.878 281.798 122.267C281.491 121.652 281.337 120.908 281.337 120.037V113.091H283.908V119.639C283.908 120.33 284.097 120.88 284.476 121.287C284.855 121.694 285.352 121.898 285.967 121.898C286.346 121.898 286.713 121.805 287.068 121.621C287.423 121.436 287.714 121.161 287.942 120.797C288.174 120.428 288.29 119.966 288.29 119.412ZM298.952 113.091V115.08H292.681V113.091H298.952ZM294.229 110.477H296.8V120.719C296.8 121.064 296.852 121.33 296.956 121.514C297.065 121.694 297.207 121.817 297.382 121.884C297.558 121.95 297.752 121.983 297.965 121.983C298.126 121.983 298.273 121.971 298.405 121.947C298.542 121.924 298.647 121.902 298.718 121.884L299.151 123.893C299.014 123.941 298.817 123.993 298.561 124.05C298.31 124.107 298.003 124.14 297.638 124.149C296.994 124.168 296.414 124.071 295.898 123.858C295.382 123.64 294.972 123.304 294.669 122.849C294.371 122.395 294.224 121.827 294.229 121.145V110.477ZM306.55 113.091V115.08H300.278V113.091H306.55ZM301.827 110.477H304.398V120.719C304.398 121.064 304.45 121.33 304.554 121.514C304.663 121.694 304.805 121.817 304.98 121.884C305.155 121.95 305.349 121.983 305.562 121.983C305.723 121.983 305.87 121.971 306.003 121.947C306.14 121.924 306.244 121.902 306.315 121.884L306.749 123.893C306.611 123.941 306.415 123.993 306.159 124.05C305.908 124.107 305.6 124.14 305.236 124.149C304.592 124.168 304.012 124.071 303.496 123.858C302.98 123.64 302.57 123.304 302.267 122.849C301.969 122.395 301.822 121.827 301.827 121.145V110.477ZM313.341 124.213C312.276 124.213 311.353 123.979 310.571 123.51C309.79 123.041 309.184 122.385 308.753 121.543C308.327 120.7 308.114 119.715 308.114 118.588C308.114 117.461 308.327 116.474 308.753 115.626C309.184 114.779 309.79 114.121 310.571 113.652C311.353 113.183 312.276 112.949 313.341 112.949C314.407 112.949 315.33 113.183 316.111 113.652C316.892 114.121 317.496 114.779 317.922 115.626C318.353 116.474 318.569 117.461 318.569 118.588C318.569 119.715 318.353 120.7 317.922 121.543C317.496 122.385 316.892 123.041 316.111 123.51C315.33 123.979 314.407 124.213 313.341 124.213ZM313.355 122.153C313.933 122.153 314.416 121.995 314.804 121.678C315.193 121.356 315.481 120.925 315.671 120.385C315.865 119.845 315.962 119.244 315.962 118.581C315.962 117.913 315.865 117.31 315.671 116.77C315.481 116.225 315.193 115.792 314.804 115.47C314.416 115.148 313.933 114.987 313.355 114.987C312.764 114.987 312.271 115.148 311.878 115.47C311.49 115.792 311.199 116.225 311.005 116.77C310.815 117.31 310.721 117.913 310.721 118.581C310.721 119.244 310.815 119.845 311.005 120.385C311.199 120.925 311.49 121.356 311.878 121.678C312.271 121.995 312.764 122.153 313.355 122.153ZM323.322 117.608V124H320.751V113.091H323.208V114.945H323.336C323.587 114.334 323.987 113.848 324.536 113.489C325.09 113.129 325.774 112.949 326.589 112.949C327.342 112.949 327.997 113.11 328.556 113.432C329.12 113.754 329.555 114.22 329.863 114.831C330.175 115.442 330.329 116.183 330.325 117.054V124H327.754V117.452C327.754 116.723 327.564 116.152 327.185 115.74C326.811 115.328 326.293 115.122 325.63 115.122C325.18 115.122 324.78 115.222 324.43 115.42C324.084 115.615 323.812 115.896 323.613 116.266C323.419 116.635 323.322 117.082 323.322 117.608ZM341.56 115.974L339.217 116.23C339.15 115.993 339.034 115.771 338.869 115.562C338.708 115.354 338.49 115.186 338.215 115.058C337.941 114.93 337.604 114.866 337.207 114.866C336.672 114.866 336.222 114.982 335.857 115.214C335.497 115.446 335.32 115.747 335.325 116.116C335.32 116.434 335.436 116.692 335.673 116.891C335.914 117.089 336.312 117.253 336.866 117.381L338.727 117.778C339.759 118.001 340.526 118.354 341.028 118.837C341.534 119.32 341.79 119.952 341.795 120.733C341.79 121.42 341.589 122.026 341.191 122.551C340.798 123.072 340.251 123.479 339.55 123.773C338.85 124.066 338.045 124.213 337.136 124.213C335.8 124.213 334.726 123.934 333.911 123.375C333.097 122.812 332.612 122.028 332.455 121.024L334.962 120.783C335.076 121.275 335.317 121.647 335.687 121.898C336.056 122.149 336.537 122.274 337.129 122.274C337.739 122.274 338.229 122.149 338.599 121.898C338.973 121.647 339.16 121.337 339.16 120.967C339.16 120.655 339.039 120.397 338.798 120.193C338.561 119.99 338.192 119.833 337.69 119.724L335.829 119.334C334.782 119.116 334.008 118.749 333.506 118.233C333.004 117.712 332.756 117.054 332.761 116.259C332.756 115.586 332.938 115.004 333.308 114.511C333.682 114.014 334.2 113.631 334.863 113.361C335.531 113.086 336.3 112.949 337.171 112.949C338.45 112.949 339.456 113.221 340.19 113.766C340.928 114.31 341.385 115.046 341.56 115.974ZM348.989 124V109.455H351.56V114.895H351.667C351.799 114.63 351.987 114.348 352.228 114.05C352.469 113.747 352.796 113.489 353.208 113.276C353.62 113.058 354.146 112.949 354.785 112.949C355.628 112.949 356.388 113.164 357.065 113.595C357.746 114.021 358.286 114.653 358.684 115.491C359.086 116.325 359.288 117.348 359.288 118.56C359.288 119.758 359.091 120.776 358.698 121.614C358.305 122.452 357.77 123.091 357.093 123.531C356.416 123.972 355.649 124.192 354.792 124.192C354.167 124.192 353.648 124.088 353.237 123.879C352.825 123.671 352.493 123.42 352.242 123.126C351.996 122.828 351.804 122.546 351.667 122.281H351.518V124H348.989ZM351.511 118.545C351.511 119.251 351.61 119.869 351.809 120.399C352.013 120.929 352.304 121.344 352.683 121.642C353.066 121.936 353.53 122.082 354.075 122.082C354.643 122.082 355.119 121.931 355.502 121.628C355.886 121.32 356.174 120.901 356.369 120.371C356.567 119.836 356.667 119.227 356.667 118.545C356.667 117.868 356.57 117.267 356.376 116.741C356.182 116.216 355.893 115.804 355.509 115.506C355.126 115.207 354.647 115.058 354.075 115.058C353.525 115.058 353.059 115.203 352.675 115.491C352.292 115.78 352.001 116.185 351.802 116.706C351.608 117.227 351.511 117.84 351.511 118.545ZM366.303 124.213C365.209 124.213 364.265 123.986 363.469 123.531C362.678 123.072 362.07 122.423 361.644 121.585C361.218 120.742 361.005 119.75 361.005 118.609C361.005 117.487 361.218 116.502 361.644 115.655C362.075 114.803 362.676 114.14 363.448 113.666C364.22 113.188 365.126 112.949 366.168 112.949C366.84 112.949 367.475 113.058 368.071 113.276C368.673 113.489 369.203 113.82 369.662 114.27C370.126 114.72 370.491 115.293 370.756 115.989C371.021 116.68 371.154 117.504 371.154 118.46V119.249H362.212V117.516H368.689C368.685 117.023 368.578 116.585 368.37 116.202C368.161 115.813 367.87 115.508 367.496 115.286C367.127 115.063 366.696 114.952 366.203 114.952C365.678 114.952 365.216 115.08 364.819 115.335C364.421 115.586 364.111 115.918 363.888 116.33C363.67 116.737 363.559 117.184 363.554 117.672V119.185C363.554 119.819 363.67 120.364 363.902 120.818C364.134 121.268 364.459 121.614 364.875 121.855C365.292 122.092 365.78 122.21 366.338 122.21C366.712 122.21 367.051 122.158 367.354 122.054C367.657 121.945 367.92 121.786 368.142 121.578C368.365 121.37 368.533 121.112 368.647 120.804L371.047 121.074C370.896 121.708 370.607 122.262 370.181 122.736C369.759 123.205 369.22 123.569 368.561 123.83C367.903 124.085 367.15 124.213 366.303 124.213ZM375.9 109.455V124H373.329V109.455H375.9ZM383.302 124.213C382.237 124.213 381.314 123.979 380.532 123.51C379.751 123.041 379.145 122.385 378.714 121.543C378.288 120.7 378.075 119.715 378.075 118.588C378.075 117.461 378.288 116.474 378.714 115.626C379.145 114.779 379.751 114.121 380.532 113.652C381.314 113.183 382.237 112.949 383.302 112.949C384.368 112.949 385.291 113.183 386.072 113.652C386.853 114.121 387.457 114.779 387.883 115.626C388.314 116.474 388.529 117.461 388.529 118.588C388.529 119.715 388.314 120.7 387.883 121.543C387.457 122.385 386.853 123.041 386.072 123.51C385.291 123.979 384.368 124.213 383.302 124.213ZM383.316 122.153C383.894 122.153 384.377 121.995 384.765 121.678C385.154 121.356 385.442 120.925 385.632 120.385C385.826 119.845 385.923 119.244 385.923 118.581C385.923 117.913 385.826 117.31 385.632 116.77C385.442 116.225 385.154 115.792 384.765 115.47C384.377 115.148 383.894 114.987 383.316 114.987C382.725 114.987 382.232 115.148 381.839 115.47C381.451 115.792 381.16 116.225 380.966 116.77C380.776 117.31 380.681 117.913 380.681 118.581C380.681 119.244 380.776 119.845 380.966 120.385C381.16 120.925 381.451 121.356 381.839 121.678C382.232 121.995 382.725 122.153 383.316 122.153ZM392.651 124L389.568 113.091H392.189L394.107 120.761H394.206L396.166 113.091H398.759L400.719 120.719H400.825L402.714 113.091H405.342L402.253 124H399.575L397.53 116.628H397.381L395.335 124H392.651Z"
    fill="black" />
</svg>
