<svg width="524" height="210" viewBox="0 0 524 210" fill="none" xmlns="http://www.w3.org/2000/svg">
<path d="M482.5 141.611L492 158.5L523.894 209.361L438.5 162L461.5 153L482.5 141.611Z" fill="#C4C6C1"/>
<ellipse cx="260" cy="94" rx="260" ry="94" fill="#C4C6C1"/>
<path d="M72.3878 46.4545V61H70.044L63.1903 51.0923H63.0696V61H60.4347V46.4545H62.7926L69.6392 56.3693H69.767V46.4545H72.3878ZM79.9038 61.2131C78.8384 61.2131 77.9151 60.9787 77.1339 60.5099C76.3526 60.0412 75.7466 59.3854 75.3157 58.5426C74.8896 57.6998 74.6765 56.715 74.6765 55.5881C74.6765 54.4612 74.8896 53.474 75.3157 52.6264C75.7466 51.7789 76.3526 51.1207 77.1339 50.652C77.9151 50.1832 78.8384 49.9489 79.9038 49.9489C80.9691 49.9489 81.8924 50.1832 82.6737 50.652C83.4549 51.1207 84.0586 51.7789 84.4847 52.6264C84.9156 53.474 85.131 54.4612 85.131 55.5881C85.131 56.715 84.9156 57.6998 84.4847 58.5426C84.0586 59.3854 83.4549 60.0412 82.6737 60.5099C81.8924 60.9787 80.9691 61.2131 79.9038 61.2131ZM79.918 59.1534C80.4956 59.1534 80.9786 58.9948 81.3668 58.6776C81.7551 58.3556 82.0439 57.9247 82.2333 57.3849C82.4274 56.8452 82.5245 56.2438 82.5245 55.581C82.5245 54.9134 82.4274 54.3097 82.2333 53.7699C82.0439 53.2254 81.7551 52.7921 81.3668 52.4702C80.9786 52.1482 80.4956 51.9872 79.918 51.9872C79.3261 51.9872 78.8337 52.1482 78.4407 52.4702C78.0524 52.7921 77.7612 53.2254 77.5671 53.7699C77.3777 54.3097 77.283 54.9134 77.283 55.581C77.283 56.2438 77.3777 56.8452 77.5671 57.3849C77.7612 57.9247 78.0524 58.3556 78.4407 58.6776C78.8337 58.9948 79.3261 59.1534 79.918 59.1534ZM92.2741 65.0909V50.0909H94.8026V51.8949H94.9517C95.0843 51.6297 95.2713 51.348 95.5128 51.0497C95.7543 50.7467 96.081 50.4886 96.4929 50.2756C96.9048 50.0578 97.4304 49.9489 98.0696 49.9489C98.9124 49.9489 99.6723 50.1643 100.349 50.5952C101.031 51.0213 101.571 51.6534 101.969 52.4915C102.371 53.3248 102.572 54.3475 102.572 55.5597C102.572 56.7576 102.376 57.7756 101.983 58.6136C101.59 59.4517 101.055 60.0909 100.378 60.5312C99.7008 60.9716 98.9337 61.1918 98.0767 61.1918C97.4517 61.1918 96.9332 61.0876 96.5213 60.8793C96.1094 60.6709 95.7779 60.42 95.527 60.1264C95.2808 59.8281 95.089 59.5464 94.9517 59.2812H94.8452V65.0909H92.2741ZM94.7955 55.5455C94.7955 56.2509 94.8949 56.8688 95.0938 57.3991C95.2973 57.9295 95.5885 58.3437 95.9673 58.642C96.3509 58.9356 96.8149 59.0824 97.3594 59.0824C97.9276 59.0824 98.4034 58.9309 98.7869 58.6278C99.1705 58.3201 99.4593 57.901 99.6534 57.3707C99.8523 56.8357 99.9517 56.2273 99.9517 55.5455C99.9517 54.8684 99.8546 54.267 99.6605 53.7415C99.4664 53.2159 99.1776 52.804 98.794 52.5057C98.4105 52.2074 97.9323 52.0582 97.3594 52.0582C96.8101 52.0582 96.3438 52.2027 95.9602 52.4915C95.5767 52.7803 95.2855 53.1851 95.0866 53.706C94.8925 54.2268 94.7955 54.84 94.7955 55.5455ZM107.913 61.2202C107.222 61.2202 106.599 61.0971 106.045 60.8509C105.496 60.5999 105.061 60.2306 104.739 59.7429C104.421 59.2552 104.263 58.6539 104.263 57.9389C104.263 57.3234 104.376 56.8144 104.604 56.4119C104.831 56.0095 105.141 55.6875 105.534 55.446C105.927 55.2045 106.37 55.0223 106.862 54.8991C107.359 54.7713 107.873 54.679 108.403 54.6222C109.043 54.5559 109.561 54.4967 109.959 54.4446C110.357 54.3878 110.645 54.3026 110.825 54.1889C111.01 54.0705 111.102 53.8883 111.102 53.642V53.5994C111.102 53.0644 110.944 52.6501 110.626 52.3565C110.309 52.063 109.852 51.9162 109.256 51.9162C108.626 51.9162 108.126 52.0535 107.757 52.3281C107.393 52.6027 107.146 52.9271 107.018 53.3011L104.618 52.9602C104.807 52.2973 105.12 51.7434 105.555 51.2983C105.991 50.8485 106.524 50.5123 107.153 50.2898C107.783 50.0625 108.479 49.9489 109.241 49.9489C109.767 49.9489 110.29 50.0104 110.811 50.1335C111.332 50.2566 111.808 50.4602 112.239 50.7443C112.67 51.0237 113.015 51.4048 113.276 51.8878C113.541 52.3707 113.673 52.9744 113.673 53.6989V61H111.202V59.5014H111.116C110.96 59.8045 110.74 60.0885 110.456 60.3537C110.177 60.6141 109.824 60.8248 109.398 60.9858C108.976 61.142 108.482 61.2202 107.913 61.2202ZM108.581 59.331C109.097 59.331 109.545 59.2292 109.923 59.0256C110.302 58.8172 110.593 58.5426 110.797 58.2017C111.005 57.8608 111.109 57.4891 111.109 57.0866V55.8011C111.029 55.8674 110.892 55.929 110.697 55.9858C110.508 56.0426 110.295 56.0923 110.058 56.1349C109.821 56.1776 109.587 56.2154 109.355 56.2486C109.123 56.2817 108.922 56.3101 108.751 56.3338C108.368 56.3859 108.025 56.4711 107.722 56.5895C107.419 56.7079 107.179 56.8736 107.004 57.0866C106.829 57.295 106.741 57.5649 106.741 57.8963C106.741 58.3698 106.914 58.7273 107.26 58.9688C107.606 59.2102 108.046 59.331 108.581 59.331ZM116.259 61V50.0909H118.751V51.9091H118.865C119.064 51.2794 119.405 50.794 119.888 50.4531C120.375 50.1075 120.932 49.9347 121.557 49.9347C121.699 49.9347 121.857 49.9418 122.033 49.956C122.213 49.9654 122.362 49.982 122.48 50.0057V52.3707C122.371 52.3329 122.198 52.2997 121.962 52.2713C121.73 52.2382 121.505 52.2216 121.287 52.2216C120.818 52.2216 120.397 52.3234 120.023 52.527C119.653 52.7259 119.362 53.0028 119.149 53.358C118.936 53.7131 118.83 54.1226 118.83 54.5866V61H116.259ZM128.569 61.2131C127.475 61.2131 126.53 60.9858 125.735 60.5312C124.944 60.072 124.336 59.4233 123.909 58.5852C123.483 57.7424 123.27 56.7505 123.27 55.6094C123.27 54.4872 123.483 53.5024 123.909 52.6548C124.34 51.8026 124.942 51.1397 125.713 50.6662C126.485 50.188 127.392 49.9489 128.434 49.9489C129.106 49.9489 129.74 50.0578 130.337 50.2756C130.938 50.4886 131.469 50.8201 131.928 51.2699C132.392 51.7197 132.757 52.2926 133.022 52.9886C133.287 53.6799 133.419 54.5038 133.419 55.4602V56.2486H124.478V54.5156H130.955C130.95 54.0232 130.844 53.5852 130.635 53.2017C130.427 52.8134 130.136 52.508 129.762 52.2855C129.392 52.063 128.962 51.9517 128.469 51.9517C127.944 51.9517 127.482 52.0795 127.084 52.3352C126.686 52.5862 126.376 52.9176 126.154 53.3295C125.936 53.7367 125.825 54.1842 125.82 54.6719V56.1847C125.82 56.8191 125.936 57.3636 126.168 57.8182C126.4 58.268 126.724 58.6136 127.141 58.8551C127.558 59.0919 128.045 59.2102 128.604 59.2102C128.978 59.2102 129.317 59.1581 129.62 59.054C129.923 58.9451 130.185 58.7865 130.408 58.5781C130.631 58.3698 130.799 58.1117 130.912 57.804L133.313 58.0739C133.161 58.7083 132.873 59.2623 132.446 59.7358C132.025 60.2045 131.485 60.5691 130.827 60.8295C130.169 61.0852 129.416 61.2131 128.569 61.2131ZM140.353 61.2131C139.264 61.2131 138.329 60.974 137.548 60.4957C136.771 60.0175 136.172 59.357 135.751 58.5142C135.334 57.6667 135.126 56.6913 135.126 55.5881C135.126 54.4801 135.339 53.5024 135.765 52.6548C136.191 51.8026 136.792 51.1397 137.569 50.6662C138.35 50.188 139.273 49.9489 140.339 49.9489C141.224 49.9489 142.008 50.1122 142.69 50.4389C143.376 50.7609 143.923 51.2178 144.33 51.8097C144.737 52.3968 144.969 53.0833 145.026 53.8693H142.569C142.469 53.3437 142.233 52.9058 141.859 52.5554C141.489 52.2003 140.995 52.0227 140.374 52.0227C139.849 52.0227 139.387 52.1648 138.989 52.4489C138.592 52.7282 138.281 53.1307 138.059 53.6562C137.841 54.1818 137.732 54.8116 137.732 55.5455C137.732 56.2888 137.841 56.928 138.059 57.4631C138.277 57.9934 138.582 58.4029 138.975 58.6918C139.373 58.9759 139.839 59.1179 140.374 59.1179C140.753 59.1179 141.092 59.0469 141.39 58.9048C141.693 58.758 141.946 58.5473 142.15 58.2727C142.353 57.9981 142.493 57.6643 142.569 57.2713H145.026C144.965 58.0431 144.737 58.7273 144.344 59.3239C143.951 59.9157 143.416 60.3797 142.739 60.7159C142.062 61.0473 141.267 61.2131 140.353 61.2131ZM151.967 61.2131C150.873 61.2131 149.929 60.9858 149.133 60.5312C148.342 60.072 147.734 59.4233 147.308 58.5852C146.882 57.7424 146.669 56.7505 146.669 55.6094C146.669 54.4872 146.882 53.5024 147.308 52.6548C147.739 51.8026 148.34 51.1397 149.112 50.6662C149.884 50.188 150.79 49.9489 151.832 49.9489C152.504 49.9489 153.139 50.0578 153.735 50.2756C154.337 50.4886 154.867 50.8201 155.326 51.2699C155.79 51.7197 156.155 52.2926 156.42 52.9886C156.685 53.6799 156.818 54.5038 156.818 55.4602V56.2486H147.876V54.5156H154.353C154.349 54.0232 154.242 53.5852 154.034 53.2017C153.825 52.8134 153.534 52.508 153.16 52.2855C152.791 52.063 152.36 51.9517 151.868 51.9517C151.342 51.9517 150.88 52.0795 150.483 52.3352C150.085 52.5862 149.775 52.9176 149.552 53.3295C149.334 53.7367 149.223 54.1842 149.218 54.6719V56.1847C149.218 56.8191 149.334 57.3636 149.566 57.8182C149.798 58.268 150.123 58.6136 150.539 58.8551C150.956 59.0919 151.444 59.2102 152.002 59.2102C152.377 59.2102 152.715 59.1581 153.018 59.054C153.321 58.9451 153.584 58.7865 153.806 58.5781C154.029 58.3698 154.197 58.1117 154.311 57.804L156.711 58.0739C156.56 58.7083 156.271 59.2623 155.845 59.7358C155.423 60.2045 154.884 60.5691 154.225 60.8295C153.567 61.0852 152.815 61.2131 151.967 61.2131ZM171.234 65.0909V59.2812H171.127C170.995 59.5464 170.803 59.8281 170.552 60.1264C170.301 60.42 169.969 60.6709 169.558 60.8793C169.146 61.0876 168.627 61.1918 168.002 61.1918C167.145 61.1918 166.378 60.9716 165.701 60.5312C165.024 60.0909 164.489 59.4517 164.096 58.6136C163.703 57.7756 163.506 56.7576 163.506 55.5597C163.506 54.3475 163.705 53.3248 164.103 52.4915C164.505 51.6534 165.048 51.0213 165.729 50.5952C166.411 50.1643 167.171 49.9489 168.009 49.9489C168.648 49.9489 169.174 50.0578 169.586 50.2756C169.998 50.4886 170.325 50.7467 170.566 51.0497C170.808 51.348 170.995 51.6297 171.127 51.8949H171.283V50.0909H173.812V65.0909H171.234ZM168.719 59.0824C169.264 59.0824 169.728 58.9356 170.112 58.642C170.495 58.3437 170.786 57.9295 170.985 57.3991C171.184 56.8688 171.283 56.2509 171.283 55.5455C171.283 54.84 171.184 54.2268 170.985 53.706C170.791 53.1851 170.502 52.7803 170.119 52.4915C169.74 52.2027 169.273 52.0582 168.719 52.0582C168.147 52.0582 167.668 52.2074 167.285 52.5057C166.901 52.804 166.612 53.2159 166.418 53.7415C166.224 54.267 166.127 54.8684 166.127 55.5455C166.127 56.2273 166.224 56.8357 166.418 57.3707C166.617 57.901 166.908 58.3201 167.292 58.6278C167.68 58.9309 168.156 59.0824 168.719 59.0824ZM183.407 56.4119V50.0909H185.978V61H183.485V59.0611H183.371C183.125 59.6719 182.72 60.1714 182.157 60.5597C181.598 60.9479 180.909 61.142 180.09 61.142C179.375 61.142 178.743 60.9834 178.194 60.6662C177.649 60.3442 177.223 59.8778 176.915 59.267C176.608 58.6515 176.454 57.9081 176.454 57.0369V50.0909H179.025V56.6392C179.025 57.3305 179.214 57.8797 179.593 58.2869C179.972 58.6941 180.469 58.8977 181.085 58.8977C181.463 58.8977 181.83 58.8054 182.185 58.6207C182.54 58.4361 182.832 58.1615 183.059 57.7969C183.291 57.4276 183.407 56.9659 183.407 56.4119ZM193.451 61.2131C192.358 61.2131 191.413 60.9858 190.618 60.5312C189.827 60.072 189.218 59.4233 188.792 58.5852C188.366 57.7424 188.153 56.7505 188.153 55.6094C188.153 54.4872 188.366 53.5024 188.792 52.6548C189.223 51.8026 189.824 51.1397 190.596 50.6662C191.368 50.188 192.275 49.9489 193.316 49.9489C193.989 49.9489 194.623 50.0578 195.22 50.2756C195.821 50.4886 196.351 50.8201 196.811 51.2699C197.275 51.7197 197.639 52.2926 197.904 52.9886C198.17 53.6799 198.302 54.5038 198.302 55.4602V56.2486H189.36V54.5156H195.838C195.833 54.0232 195.726 53.5852 195.518 53.2017C195.31 52.8134 195.019 52.508 194.645 52.2855C194.275 52.063 193.844 51.9517 193.352 51.9517C192.826 51.9517 192.365 52.0795 191.967 52.3352C191.569 52.5862 191.259 52.9176 191.037 53.3295C190.819 53.7367 190.708 54.1842 190.703 54.6719V56.1847C190.703 56.8191 190.819 57.3636 191.051 57.8182C191.283 58.268 191.607 58.6136 192.024 58.8551C192.44 59.0919 192.928 59.2102 193.487 59.2102C193.861 59.2102 194.199 59.1581 194.502 59.054C194.806 58.9451 195.068 58.7865 195.291 58.5781C195.513 58.3698 195.681 58.1117 195.795 57.804L198.196 58.0739C198.044 58.7083 197.755 59.2623 197.329 59.7358C196.908 60.2045 196.368 60.5691 195.71 60.8295C195.052 61.0852 194.299 61.2131 193.451 61.2131ZM210.886 50.0909V52.0795H204.614V50.0909H210.886ZM206.163 47.4773H208.734V57.7188C208.734 58.0644 208.786 58.3295 208.89 58.5142C208.999 58.6941 209.141 58.8172 209.316 58.8835C209.491 58.9498 209.685 58.983 209.898 58.983C210.059 58.983 210.206 58.9711 210.339 58.9474C210.476 58.9238 210.58 58.9025 210.651 58.8835L211.085 60.8935C210.947 60.9408 210.751 60.9929 210.495 61.0497C210.244 61.1065 209.936 61.1397 209.572 61.1491C208.928 61.1681 208.348 61.071 207.832 60.858C207.316 60.6402 206.906 60.304 206.603 59.8494C206.305 59.3949 206.158 58.8267 206.163 58.1449V47.4773ZM217.748 61.2131C216.654 61.2131 215.71 60.9858 214.914 60.5312C214.124 60.072 213.515 59.4233 213.089 58.5852C212.663 57.7424 212.45 56.7505 212.45 55.6094C212.45 54.4872 212.663 53.5024 213.089 52.6548C213.52 51.8026 214.121 51.1397 214.893 50.6662C215.665 50.188 216.572 49.9489 217.613 49.9489C218.286 49.9489 218.92 50.0578 219.517 50.2756C220.118 50.4886 220.648 50.8201 221.108 51.2699C221.572 51.7197 221.936 52.2926 222.201 52.9886C222.467 53.6799 222.599 54.5038 222.599 55.4602V56.2486H213.657V54.5156H220.135C220.13 54.0232 220.023 53.5852 219.815 53.2017C219.607 52.8134 219.315 52.508 218.941 52.2855C218.572 52.063 218.141 51.9517 217.649 51.9517C217.123 51.9517 216.662 52.0795 216.264 52.3352C215.866 52.5862 215.556 52.9176 215.333 53.3295C215.116 53.7367 215.004 54.1842 215 54.6719V56.1847C215 56.8191 215.116 57.3636 215.348 57.8182C215.58 58.268 215.904 58.6136 216.321 58.8551C216.737 59.0919 217.225 59.2102 217.784 59.2102C218.158 59.2102 218.496 59.1581 218.799 59.054C219.102 58.9451 219.365 58.7865 219.588 58.5781C219.81 58.3698 219.978 58.1117 220.092 57.804L222.493 58.0739C222.341 58.7083 222.052 59.2623 221.626 59.7358C221.205 60.2045 220.665 60.5691 220.007 60.8295C219.349 61.0852 218.596 61.2131 217.748 61.2131ZM227.345 54.608V61H224.774V50.0909H227.232V51.9446H227.359C227.61 51.3338 228.01 50.8485 228.56 50.4886C229.114 50.1288 229.798 49.9489 230.612 49.9489C231.365 49.9489 232.021 50.1098 232.58 50.4318C233.143 50.7538 233.579 51.2202 233.886 51.831C234.199 52.4418 234.353 53.1828 234.348 54.054V61H231.777V54.4517C231.777 53.7225 231.588 53.152 231.209 52.7401C230.835 52.3281 230.316 52.1222 229.653 52.1222C229.204 52.1222 228.804 52.2216 228.453 52.4205C228.107 52.6146 227.835 52.8963 227.636 53.2656C227.442 53.6349 227.345 54.0824 227.345 54.608ZM241.706 65.3182C240.783 65.3182 239.99 65.1927 239.327 64.9418C238.664 64.6955 238.131 64.3641 237.729 63.9474C237.326 63.5308 237.047 63.0691 236.891 62.5625L239.206 62.0014C239.31 62.2145 239.462 62.4252 239.661 62.6335C239.859 62.8466 240.127 63.0218 240.463 63.1591C240.804 63.3011 241.232 63.3722 241.749 63.3722C242.478 63.3722 243.081 63.1946 243.56 62.8395C244.038 62.4891 244.277 61.9115 244.277 61.1065V59.0398H244.149C244.017 59.3049 243.822 59.5772 243.567 59.8565C243.316 60.1359 242.982 60.3703 242.565 60.5597C242.153 60.7491 241.635 60.8438 241.01 60.8438C240.172 60.8438 239.412 60.6473 238.73 60.2543C238.053 59.8565 237.513 59.2647 237.111 58.4787C236.713 57.688 236.514 56.6984 236.514 55.5099C236.514 54.312 236.713 53.3011 237.111 52.4773C237.513 51.6487 238.055 51.0213 238.737 50.5952C239.419 50.1643 240.179 49.9489 241.017 49.9489C241.656 49.9489 242.182 50.0578 242.594 50.2756C243.01 50.4886 243.342 50.7467 243.588 51.0497C243.834 51.348 244.021 51.6297 244.149 51.8949H244.291V50.0909H246.827V61.1776C246.827 62.1103 246.604 62.8821 246.159 63.4929C245.714 64.1037 245.106 64.5606 244.334 64.8636C243.562 65.1667 242.686 65.3182 241.706 65.3182ZM241.727 58.8267C242.272 58.8267 242.736 58.6941 243.119 58.429C243.503 58.1638 243.794 57.7827 243.993 57.2855C244.192 56.7884 244.291 56.1918 244.291 55.4957C244.291 54.8092 244.192 54.2079 243.993 53.6918C243.799 53.1757 243.51 52.7756 243.126 52.4915C242.748 52.2027 242.281 52.0582 241.727 52.0582C241.154 52.0582 240.676 52.2074 240.293 52.5057C239.909 52.804 239.62 53.2135 239.426 53.7344C239.232 54.2505 239.135 54.8376 239.135 55.4957C239.135 56.1634 239.232 56.7481 239.426 57.25C239.625 57.7472 239.916 58.1354 240.3 58.4148C240.688 58.6894 241.164 58.8267 241.727 58.8267ZM252.601 61.2202C251.91 61.2202 251.287 61.0971 250.733 60.8509C250.184 60.5999 249.748 60.2306 249.426 59.7429C249.109 59.2552 248.95 58.6539 248.95 57.9389C248.95 57.3234 249.064 56.8144 249.291 56.4119C249.518 56.0095 249.829 55.6875 250.222 55.446C250.615 55.2045 251.057 55.0223 251.55 54.8991C252.047 54.7713 252.561 54.679 253.091 54.6222C253.73 54.5559 254.249 54.4967 254.646 54.4446C255.044 54.3878 255.333 54.3026 255.513 54.1889C255.697 54.0705 255.79 53.8883 255.79 53.642V53.5994C255.79 53.0644 255.631 52.6501 255.314 52.3565C254.997 52.063 254.54 51.9162 253.943 51.9162C253.313 51.9162 252.814 52.0535 252.445 52.3281C252.08 52.6027 251.834 52.9271 251.706 53.3011L249.305 52.9602C249.495 52.2973 249.807 51.7434 250.243 51.2983C250.679 50.8485 251.211 50.5123 251.841 50.2898C252.471 50.0625 253.167 49.9489 253.929 49.9489C254.455 49.9489 254.978 50.0104 255.499 50.1335C256.019 50.2566 256.495 50.4602 256.926 50.7443C257.357 51.0237 257.703 51.4048 257.963 51.8878C258.228 52.3707 258.361 52.9744 258.361 53.6989V61H255.889V59.5014H255.804C255.648 59.8045 255.428 60.0885 255.143 60.3537C254.864 60.6141 254.511 60.8248 254.085 60.9858C253.664 61.142 253.169 61.2202 252.601 61.2202ZM253.268 59.331C253.785 59.331 254.232 59.2292 254.611 59.0256C254.99 58.8172 255.281 58.5426 255.484 58.2017C255.693 57.8608 255.797 57.4891 255.797 57.0866V55.8011C255.716 55.8674 255.579 55.929 255.385 55.9858C255.196 56.0426 254.982 56.0923 254.746 56.1349C254.509 56.1776 254.275 56.2154 254.043 56.2486C253.811 56.2817 253.609 56.3101 253.439 56.3338C253.055 56.3859 252.712 56.4711 252.409 56.5895C252.106 56.7079 251.867 56.8736 251.692 57.0866C251.517 57.295 251.429 57.5649 251.429 57.8963C251.429 58.3698 251.602 58.7273 251.947 58.9688C252.293 59.2102 252.733 59.331 253.268 59.331ZM269.568 52.9744L267.224 53.2301C267.158 52.9934 267.042 52.7708 266.876 52.5625C266.715 52.3542 266.498 52.1861 266.223 52.0582C265.948 51.9304 265.612 51.8665 265.214 51.8665C264.679 51.8665 264.23 51.9825 263.865 52.2145C263.505 52.4465 263.328 52.7472 263.332 53.1165C263.328 53.4337 263.444 53.6918 263.68 53.8906C263.922 54.0895 264.32 54.2528 264.874 54.3807L266.734 54.7784C267.767 55.0009 268.534 55.3537 269.036 55.8366C269.542 56.3196 269.798 56.9517 269.803 57.733C269.798 58.4195 269.597 59.0256 269.199 59.5511C268.806 60.072 268.259 60.4792 267.558 60.7727C266.857 61.0663 266.053 61.2131 265.143 61.2131C263.808 61.2131 262.733 60.9337 261.919 60.375C261.105 59.8116 260.619 59.0279 260.463 58.0241L262.97 57.7827C263.084 58.2751 263.325 58.6468 263.695 58.8977C264.064 59.1487 264.545 59.2741 265.136 59.2741C265.747 59.2741 266.237 59.1487 266.607 58.8977C266.981 58.6468 267.168 58.3366 267.168 57.9673C267.168 57.6548 267.047 57.3968 266.805 57.1932C266.569 56.9896 266.199 56.8333 265.697 56.7244L263.837 56.3338C262.79 56.116 262.016 55.7491 261.514 55.233C261.012 54.7121 260.764 54.054 260.768 53.2585C260.764 52.5862 260.946 52.0038 261.315 51.5114C261.689 51.0142 262.208 50.6307 262.871 50.3608C263.538 50.0862 264.308 49.9489 265.179 49.9489C266.457 49.9489 267.464 50.2211 268.197 50.7656C268.936 51.3101 269.393 52.0464 269.568 52.9744ZM279.455 54.608V61H276.884V50.0909H279.341V51.9446H279.469C279.72 51.3338 280.12 50.8485 280.669 50.4886C281.223 50.1288 281.907 49.9489 282.722 49.9489C283.474 49.9489 284.13 50.1098 284.689 50.4318C285.252 50.7538 285.688 51.2202 285.996 51.831C286.308 52.4418 286.462 53.1828 286.457 54.054V61H283.886V54.4517C283.886 53.7225 283.697 53.152 283.318 52.7401C282.944 52.3281 282.426 52.1222 281.763 52.1222C281.313 52.1222 280.913 52.2216 280.562 52.4205C280.217 52.6146 279.945 52.8963 279.746 53.2656C279.552 53.6349 279.455 54.0824 279.455 54.608ZM289.071 61V50.0909H291.642V61H289.071ZM290.364 48.5426C289.956 48.5426 289.606 48.4077 289.312 48.1378C289.019 47.8632 288.872 47.5341 288.872 47.1506C288.872 46.7623 289.019 46.4332 289.312 46.1634C289.606 45.8887 289.956 45.7514 290.364 45.7514C290.776 45.7514 291.126 45.8887 291.415 46.1634C291.708 46.4332 291.855 46.7623 291.855 47.1506C291.855 47.5341 291.708 47.8632 291.415 48.1378C291.126 48.4077 290.776 48.5426 290.364 48.5426ZM296.857 54.608V61H294.286V50.0909H296.743V51.9446H296.871C297.122 51.3338 297.522 50.8485 298.071 50.4886C298.625 50.1288 299.31 49.9489 300.124 49.9489C300.877 49.9489 301.533 50.1098 302.091 50.4318C302.655 50.7538 303.09 51.2202 303.398 51.831C303.711 52.4418 303.864 53.1828 303.86 54.054V61H301.289V54.4517C301.289 53.7225 301.099 53.152 300.721 52.7401C300.346 52.3281 299.828 52.1222 299.165 52.1222C298.715 52.1222 298.315 52.2216 297.965 52.4205C297.619 52.6146 297.347 52.8963 297.148 53.2656C296.954 53.6349 296.857 54.0824 296.857 54.608ZM311.218 65.3182C310.294 65.3182 309.501 65.1927 308.838 64.9418C308.176 64.6955 307.643 64.3641 307.24 63.9474C306.838 63.5308 306.559 63.0691 306.402 62.5625L308.718 62.0014C308.822 62.2145 308.973 62.4252 309.172 62.6335C309.371 62.8466 309.639 63.0218 309.975 63.1591C310.316 63.3011 310.744 63.3722 311.26 63.3722C311.989 63.3722 312.593 63.1946 313.071 62.8395C313.55 62.4891 313.789 61.9115 313.789 61.1065V59.0398H313.661C313.528 59.3049 313.334 59.5772 313.078 59.8565C312.828 60.1359 312.494 60.3703 312.077 60.5597C311.665 60.7491 311.147 60.8438 310.522 60.8438C309.684 60.8438 308.924 60.6473 308.242 60.2543C307.565 59.8565 307.025 59.2647 306.623 58.4787C306.225 57.688 306.026 56.6984 306.026 55.5099C306.026 54.312 306.225 53.3011 306.623 52.4773C307.025 51.6487 307.567 51.0213 308.249 50.5952C308.931 50.1643 309.691 49.9489 310.529 49.9489C311.168 49.9489 311.694 50.0578 312.105 50.2756C312.522 50.4886 312.854 50.7467 313.1 51.0497C313.346 51.348 313.533 51.6297 313.661 51.8949H313.803V50.0909H316.338V61.1776C316.338 62.1103 316.116 62.8821 315.671 63.4929C315.226 64.1037 314.617 64.5606 313.846 64.8636C313.074 65.1667 312.198 65.3182 311.218 65.3182ZM311.239 58.8267C311.783 58.8267 312.248 58.6941 312.631 58.429C313.015 58.1638 313.306 57.7827 313.505 57.2855C313.703 56.7884 313.803 56.1918 313.803 55.4957C313.803 54.8092 313.703 54.2079 313.505 53.6918C313.31 53.1757 313.022 52.7756 312.638 52.4915C312.259 52.2027 311.793 52.0582 311.239 52.0582C310.666 52.0582 310.188 52.2074 309.804 52.5057C309.421 52.804 309.132 53.2135 308.938 53.7344C308.744 54.2505 308.647 54.8376 308.647 55.4957C308.647 56.1634 308.744 56.7481 308.938 57.25C309.137 57.7472 309.428 58.1354 309.811 58.4148C310.2 58.6894 310.676 58.8267 311.239 58.8267ZM325.926 56.4119V50.0909H328.498V61H326.005V59.0611H325.891C325.645 59.6719 325.24 60.1714 324.676 60.5597C324.118 60.9479 323.429 61.142 322.61 61.142C321.895 61.142 321.263 60.9834 320.713 60.6662C320.169 60.3442 319.743 59.8778 319.435 59.267C319.127 58.6515 318.973 57.9081 318.973 57.0369V50.0909H321.544V56.6392C321.544 57.3305 321.734 57.8797 322.113 58.2869C322.491 58.6941 322.989 58.8977 323.604 58.8977C323.983 58.8977 324.35 58.8054 324.705 58.6207C325.06 58.4361 325.351 58.1615 325.578 57.7969C325.81 57.4276 325.926 56.9659 325.926 56.4119ZM333.712 54.608V61H331.141V50.0909H333.599V51.9446H333.727C333.978 51.3338 334.378 50.8485 334.927 50.4886C335.481 50.1288 336.165 49.9489 336.979 49.9489C337.732 49.9489 338.388 50.1098 338.947 50.4318C339.51 50.7538 339.946 51.2202 340.254 51.831C340.566 52.4418 340.72 53.1828 340.715 54.054V61H338.144V54.4517C338.144 53.7225 337.955 53.152 337.576 52.7401C337.202 52.3281 336.683 52.1222 336.021 52.1222C335.571 52.1222 335.171 52.2216 334.82 52.4205C334.475 52.6146 334.202 52.8963 334.004 53.2656C333.809 53.6349 333.712 54.0824 333.712 54.608ZM346.468 61.2202C345.777 61.2202 345.154 61.0971 344.6 60.8509C344.051 60.5999 343.615 60.2306 343.293 59.7429C342.976 59.2552 342.817 58.6539 342.817 57.9389C342.817 57.3234 342.931 56.8144 343.158 56.4119C343.386 56.0095 343.696 55.6875 344.089 55.446C344.482 55.2045 344.924 55.0223 345.417 54.8991C345.914 54.7713 346.428 54.679 346.958 54.6222C347.597 54.5559 348.116 54.4967 348.513 54.4446C348.911 54.3878 349.2 54.3026 349.38 54.1889C349.565 54.0705 349.657 53.8883 349.657 53.642V53.5994C349.657 53.0644 349.498 52.6501 349.181 52.3565C348.864 52.063 348.407 51.9162 347.81 51.9162C347.181 51.9162 346.681 52.0535 346.312 52.3281C345.947 52.6027 345.701 52.9271 345.573 53.3011L343.173 52.9602C343.362 52.2973 343.674 51.7434 344.11 51.2983C344.546 50.8485 345.078 50.5123 345.708 50.2898C346.338 50.0625 347.034 49.9489 347.796 49.9489C348.322 49.9489 348.845 50.0104 349.366 50.1335C349.887 50.2566 350.362 50.4602 350.793 50.7443C351.224 51.0237 351.57 51.4048 351.83 51.8878C352.095 52.3707 352.228 52.9744 352.228 53.6989V61H349.756V59.5014H349.671C349.515 59.8045 349.295 60.0885 349.011 60.3537C348.731 60.6141 348.379 60.8248 347.952 60.9858C347.531 61.142 347.036 61.2202 346.468 61.2202ZM347.136 59.331C347.652 59.331 348.099 59.2292 348.478 59.0256C348.857 58.8172 349.148 58.5426 349.352 58.2017C349.56 57.8608 349.664 57.4891 349.664 57.0866V55.8011C349.584 55.8674 349.446 55.929 349.252 55.9858C349.063 56.0426 348.85 56.0923 348.613 56.1349C348.376 56.1776 348.142 56.2154 347.91 56.2486C347.678 56.2817 347.477 56.3101 347.306 56.3338C346.923 56.3859 346.579 56.4711 346.276 56.5895C345.973 56.7079 345.734 56.8736 345.559 57.0866C345.384 57.295 345.296 57.5649 345.296 57.8963C345.296 58.3698 345.469 58.7273 345.815 58.9688C346.16 59.2102 346.601 59.331 347.136 59.331ZM359.774 65.0909V50.0909H362.303V51.8949H362.452C362.584 51.6297 362.771 51.348 363.013 51.0497C363.254 50.7467 363.581 50.4886 363.993 50.2756C364.405 50.0578 364.93 49.9489 365.57 49.9489C366.412 49.9489 367.172 50.1643 367.849 50.5952C368.531 51.0213 369.071 51.6534 369.469 52.4915C369.871 53.3248 370.072 54.3475 370.072 55.5597C370.072 56.7576 369.876 57.7756 369.483 58.6136C369.09 59.4517 368.555 60.0909 367.878 60.5312C367.201 60.9716 366.434 61.1918 365.577 61.1918C364.952 61.1918 364.433 61.0876 364.021 60.8793C363.609 60.6709 363.278 60.42 363.027 60.1264C362.781 59.8281 362.589 59.5464 362.452 59.2812H362.345V65.0909H359.774ZM362.295 55.5455C362.295 56.2509 362.395 56.8688 362.594 57.3991C362.797 57.9295 363.089 58.3437 363.467 58.642C363.851 58.9356 364.315 59.0824 364.859 59.0824C365.428 59.0824 365.903 58.9309 366.287 58.6278C366.67 58.3201 366.959 57.901 367.153 57.3707C367.352 56.8357 367.452 56.2273 367.452 55.5455C367.452 54.8684 367.355 54.267 367.161 53.7415C366.966 53.2159 366.678 52.804 366.294 52.5057C365.911 52.2074 365.432 52.0582 364.859 52.0582C364.31 52.0582 363.844 52.2027 363.46 52.4915C363.077 52.7803 362.786 53.1851 362.587 53.706C362.393 54.2268 362.295 54.84 362.295 55.5455ZM374.845 46.4545V61H372.274V46.4545H374.845ZM380.628 61.2202C379.937 61.2202 379.314 61.0971 378.76 60.8509C378.211 60.5999 377.775 60.2306 377.453 59.7429C377.136 59.2552 376.978 58.6539 376.978 57.9389C376.978 57.3234 377.091 56.8144 377.319 56.4119C377.546 56.0095 377.856 55.6875 378.249 55.446C378.642 55.2045 379.085 55.0223 379.577 54.8991C380.074 54.7713 380.588 54.679 381.118 54.6222C381.757 54.5559 382.276 54.4967 382.674 54.4446C383.071 54.3878 383.36 54.3026 383.54 54.1889C383.725 54.0705 383.817 53.8883 383.817 53.642V53.5994C383.817 53.0644 383.658 52.6501 383.341 52.3565C383.024 52.063 382.567 51.9162 381.971 51.9162C381.341 51.9162 380.841 52.0535 380.472 52.3281C380.107 52.6027 379.861 52.9271 379.733 53.3011L377.333 52.9602C377.522 52.2973 377.835 51.7434 378.27 51.2983C378.706 50.8485 379.239 50.5123 379.868 50.2898C380.498 50.0625 381.194 49.9489 381.956 49.9489C382.482 49.9489 383.005 50.0104 383.526 50.1335C384.047 50.2566 384.523 50.4602 384.953 50.7443C385.384 51.0237 385.73 51.4048 385.99 51.8878C386.256 52.3707 386.388 52.9744 386.388 53.6989V61H383.917V59.5014H383.831C383.675 59.8045 383.455 60.0885 383.171 60.3537C382.891 60.6141 382.539 60.8248 382.113 60.9858C381.691 61.142 381.196 61.2202 380.628 61.2202ZM381.296 59.331C381.812 59.331 382.259 59.2292 382.638 59.0256C383.017 58.8172 383.308 58.5426 383.512 58.2017C383.72 57.8608 383.824 57.4891 383.824 57.0866V55.8011C383.744 55.8674 383.606 55.929 383.412 55.9858C383.223 56.0426 383.01 56.0923 382.773 56.1349C382.536 56.1776 382.302 56.2154 382.07 56.2486C381.838 56.2817 381.637 56.3101 381.466 56.3338C381.083 56.3859 380.739 56.4711 380.436 56.5895C380.133 56.7079 379.894 56.8736 379.719 57.0866C379.544 57.295 379.456 57.5649 379.456 57.8963C379.456 58.3698 379.629 58.7273 379.975 58.9688C380.32 59.2102 380.761 59.331 381.296 59.331ZM391.544 54.608V61H388.973V50.0909H391.431V51.9446H391.559C391.81 51.3338 392.21 50.8485 392.759 50.4886C393.313 50.1288 393.997 49.9489 394.811 49.9489C395.564 49.9489 396.22 50.1098 396.779 50.4318C397.342 50.7538 397.778 51.2202 398.086 51.831C398.398 52.4418 398.552 53.1828 398.547 54.054V61H395.976V54.4517C395.976 53.7225 395.787 53.152 395.408 52.7401C395.034 52.3281 394.516 52.1222 393.853 52.1222C393.403 52.1222 393.003 52.2216 392.652 52.4205C392.307 52.6146 392.034 52.8963 391.836 53.2656C391.641 53.6349 391.544 54.0824 391.544 54.608ZM406.608 50.0909V52.0795H400.337V50.0909H406.608ZM401.885 47.4773H404.456V57.7188C404.456 58.0644 404.508 58.3295 404.613 58.5142C404.721 58.6941 404.864 58.8172 405.039 58.8835C405.214 58.9498 405.408 58.983 405.621 58.983C405.782 58.983 405.929 58.9711 406.061 58.9474C406.199 58.9238 406.303 58.9025 406.374 58.8835L406.807 60.8935C406.67 60.9408 406.473 60.9929 406.218 61.0497C405.967 61.1065 405.659 61.1397 405.294 61.1491C404.65 61.1681 404.07 61.071 403.554 60.858C403.038 60.6402 402.629 60.304 402.326 59.8494C402.027 59.3949 401.881 58.8267 401.885 58.1449V47.4773ZM408.759 61V50.0909H411.33V61H408.759ZM410.051 48.5426C409.644 48.5426 409.294 48.4077 409 48.1378C408.706 47.8632 408.56 47.5341 408.56 47.1506C408.56 46.7623 408.706 46.4332 409 46.1634C409.294 45.8887 409.644 45.7514 410.051 45.7514C410.463 45.7514 410.813 45.8887 411.102 46.1634C411.396 46.4332 411.543 46.7623 411.543 47.1506C411.543 47.5341 411.396 47.8632 411.102 48.1378C410.813 48.4077 410.463 48.5426 410.051 48.5426ZM416.544 46.4545V61H413.973V46.4545H416.544ZM421.759 46.4545V61H419.188V46.4545H421.759ZM427.542 61.2202C426.851 61.2202 426.228 61.0971 425.674 60.8509C425.125 60.5999 424.69 60.2306 424.368 59.7429C424.05 59.2552 423.892 58.6539 423.892 57.9389C423.892 57.3234 424.005 56.8144 424.233 56.4119C424.46 56.0095 424.77 55.6875 425.163 55.446C425.556 55.2045 425.999 55.0223 426.491 54.8991C426.988 54.7713 427.502 54.679 428.032 54.6222C428.672 54.5559 429.19 54.4967 429.588 54.4446C429.985 54.3878 430.274 54.3026 430.454 54.1889C430.639 54.0705 430.731 53.8883 430.731 53.642V53.5994C430.731 53.0644 430.573 52.6501 430.255 52.3565C429.938 52.063 429.481 51.9162 428.885 51.9162C428.255 51.9162 427.755 52.0535 427.386 52.3281C427.021 52.6027 426.775 52.9271 426.647 53.3011L424.247 52.9602C424.436 52.2973 424.749 51.7434 425.184 51.2983C425.62 50.8485 426.153 50.5123 426.782 50.2898C427.412 50.0625 428.108 49.9489 428.87 49.9489C429.396 49.9489 429.919 50.0104 430.44 50.1335C430.961 50.2566 431.437 50.4602 431.868 50.7443C432.298 51.0237 432.644 51.4048 432.904 51.8878C433.17 52.3707 433.302 52.9744 433.302 53.6989V61H430.831V59.5014H430.745C430.589 59.8045 430.369 60.0885 430.085 60.3537C429.806 60.6141 429.453 60.8248 429.027 60.9858C428.605 61.142 428.11 61.2202 427.542 61.2202ZM428.21 59.331C428.726 59.331 429.173 59.2292 429.552 59.0256C429.931 58.8172 430.222 58.5426 430.426 58.2017C430.634 57.8608 430.738 57.4891 430.738 57.0866V55.8011C430.658 55.8674 430.52 55.929 430.326 55.9858C430.137 56.0426 429.924 56.0923 429.687 56.1349C429.45 56.1776 429.216 56.2154 428.984 56.2486C428.752 56.2817 428.551 56.3101 428.38 56.3338C427.997 56.3859 427.654 56.4711 427.35 56.5895C427.047 56.7079 426.808 56.8736 426.633 57.0866C426.458 57.295 426.37 57.5649 426.37 57.8963C426.37 58.3698 426.543 58.7273 426.889 58.9688C427.234 59.2102 427.675 59.331 428.21 59.331ZM65.0795 85.2131C63.9905 85.2131 63.0554 84.974 62.2741 84.4957C61.4976 84.0175 60.8987 83.357 60.4773 82.5142C60.0606 81.6667 59.8523 80.6913 59.8523 79.5881C59.8523 78.4801 60.0653 77.5024 60.4915 76.6548C60.9176 75.8026 61.5189 75.1397 62.2955 74.6662C63.0767 74.188 64 73.9489 65.0653 73.9489C65.9508 73.9489 66.7344 74.1122 67.4162 74.4389C68.1027 74.7609 68.6496 75.2178 69.0568 75.8097C69.464 76.3968 69.696 77.0833 69.7528 77.8693H67.2955C67.196 77.3437 66.9593 76.9058 66.5852 76.5554C66.2159 76.2003 65.7211 76.0227 65.1009 76.0227C64.5753 76.0227 64.1136 76.1648 63.7159 76.4489C63.3182 76.7282 63.008 77.1307 62.7855 77.6562C62.5677 78.1818 62.4588 78.8116 62.4588 79.5455C62.4588 80.2888 62.5677 80.928 62.7855 81.4631C63.0033 81.9934 63.3087 82.4029 63.7017 82.6918C64.0994 82.9759 64.5658 83.1179 65.1009 83.1179C65.4796 83.1179 65.8182 83.0469 66.1165 82.9048C66.4195 82.758 66.6728 82.5473 66.8764 82.2727C67.08 81.9981 67.2197 81.6643 67.2955 81.2713H69.7528C69.6913 82.0431 69.464 82.7273 69.071 83.3239C68.678 83.9157 68.143 84.3797 67.4659 84.7159C66.7888 85.0473 65.9934 85.2131 65.0795 85.2131ZM71.864 85V74.0909H74.3569V75.9091H74.4705C74.6694 75.2794 75.0103 74.794 75.4933 74.4531C75.9809 74.1075 76.5373 73.9347 77.1623 73.9347C77.3043 73.9347 77.463 73.9418 77.6381 73.956C77.8181 73.9654 77.9672 73.982 78.0856 74.0057V76.3707C77.9767 76.3329 77.8039 76.2997 77.5671 76.2713C77.3351 76.2382 77.1102 76.2216 76.8924 76.2216C76.4237 76.2216 76.0022 76.3234 75.6282 76.527C75.2589 76.7259 74.9677 77.0028 74.7546 77.358C74.5415 77.7131 74.435 78.1226 74.435 78.5866V85H71.864ZM84.174 85.2131C83.0803 85.2131 82.1357 84.9858 81.3402 84.5312C80.5495 84.072 79.9411 83.4233 79.5149 82.5852C79.0888 81.7424 78.8757 80.7505 78.8757 79.6094C78.8757 78.4872 79.0888 77.5024 79.5149 76.6548C79.9458 75.8026 80.5471 75.1397 81.3189 74.6662C82.0907 74.188 82.9974 73.9489 84.0391 73.9489C84.7114 73.9489 85.3459 74.0578 85.9425 74.2756C86.5438 74.4886 87.0741 74.8201 87.5334 75.2699C87.9974 75.7197 88.362 76.2926 88.6271 76.9886C88.8923 77.6799 89.0249 78.5038 89.0249 79.4602V80.2486H80.0831V78.5156H86.5604C86.5556 78.0232 86.4491 77.5852 86.2408 77.2017C86.0324 76.8134 85.7412 76.508 85.3672 76.2855C84.9979 76.063 84.567 75.9517 84.0746 75.9517C83.549 75.9517 83.0874 76.0795 82.6896 76.3352C82.2919 76.5862 81.9818 76.9176 81.7592 77.3295C81.5414 77.7367 81.4302 78.1842 81.4254 78.6719V80.1847C81.4254 80.8191 81.5414 81.3636 81.7734 81.8182C82.0054 82.268 82.3298 82.6136 82.7464 82.8551C83.1631 83.0919 83.6508 83.2102 84.2095 83.2102C84.5836 83.2102 84.9221 83.1581 85.2251 83.054C85.5282 82.9451 85.791 82.7865 86.0135 82.5781C86.236 82.3698 86.4041 82.1117 86.5178 81.804L88.9183 82.0739C88.7668 82.7083 88.478 83.2623 88.0518 83.7358C87.6304 84.2045 87.0907 84.5691 86.4325 84.8295C85.7744 85.0852 85.0215 85.2131 84.174 85.2131ZM94.3391 85.2202C93.6478 85.2202 93.0252 85.0971 92.4712 84.8509C91.922 84.5999 91.4864 84.2306 91.1644 83.7429C90.8472 83.2552 90.6886 82.6539 90.6886 81.9389C90.6886 81.3234 90.8022 80.8144 91.0295 80.4119C91.2567 80.0095 91.5669 79.6875 91.9599 79.446C92.3529 79.2045 92.7956 79.0223 93.288 78.8991C93.7852 78.7713 94.2989 78.679 94.8292 78.6222C95.4684 78.5559 95.9869 78.4967 96.3846 78.4446C96.7823 78.3878 97.0711 78.3026 97.2511 78.1889C97.4357 78.0705 97.5281 77.8883 97.5281 77.642V77.5994C97.5281 77.0644 97.3694 76.6501 97.0522 76.3565C96.735 76.063 96.2781 75.9162 95.6815 75.9162C95.0517 75.9162 94.5522 76.0535 94.1829 76.3281C93.8183 76.6027 93.5721 76.9271 93.4442 77.3011L91.0437 76.9602C91.2331 76.2973 91.5456 75.7434 91.9812 75.2983C92.4168 74.8485 92.9495 74.5123 93.5792 74.2898C94.2089 74.0625 94.9049 73.9489 95.6673 73.9489C96.1928 73.9489 96.716 74.0104 97.2369 74.1335C97.7577 74.2566 98.2335 74.4602 98.6644 74.7443C99.0953 75.0237 99.4409 75.4048 99.7013 75.8878C99.9665 76.3707 100.099 76.9744 100.099 77.6989V85H97.6275V83.5014H97.5423C97.386 83.8045 97.1658 84.0885 96.8817 84.3537C96.6024 84.6141 96.2496 84.8248 95.8235 84.9858C95.4021 85.142 94.9073 85.2202 94.3391 85.2202ZM95.0067 83.331C95.5228 83.331 95.9703 83.2292 96.3491 83.0256C96.7279 82.8172 97.0191 82.5426 97.2227 82.2017C97.431 81.8608 97.5352 81.4891 97.5352 81.0866V79.8011C97.4547 79.8674 97.3174 79.929 97.1232 79.9858C96.9338 80.0426 96.7208 80.0923 96.484 80.1349C96.2473 80.1776 96.0129 80.2154 95.7809 80.2486C95.5489 80.2817 95.3477 80.3101 95.1772 80.3338C94.7937 80.3859 94.4504 80.4711 94.1474 80.5895C93.8443 80.7079 93.6052 80.8736 93.43 81.0866C93.2549 81.295 93.1673 81.5649 93.1673 81.8963C93.1673 82.3698 93.3401 82.7273 93.6857 82.9688C94.0314 83.2102 94.4717 83.331 95.0067 83.331ZM106.733 85.1918C105.876 85.1918 105.109 84.9716 104.431 84.5312C103.754 84.0909 103.219 83.4517 102.826 82.6136C102.433 81.7756 102.237 80.7576 102.237 79.5597C102.237 78.3475 102.436 77.3248 102.833 76.4915C103.236 75.6534 103.778 75.0213 104.46 74.5952C105.142 74.1643 105.902 73.9489 106.74 73.9489C107.379 73.9489 107.904 74.0578 108.316 74.2756C108.728 74.4886 109.055 74.7467 109.297 75.0497C109.538 75.348 109.725 75.6297 109.858 75.8949H109.964V70.4545H112.542V85H110.014V83.2812H109.858C109.725 83.5464 109.533 83.8281 109.282 84.1264C109.031 84.42 108.7 84.6709 108.288 84.8793C107.876 85.0876 107.358 85.1918 106.733 85.1918ZM107.45 83.0824C107.994 83.0824 108.458 82.9356 108.842 82.642C109.225 82.3437 109.517 81.9295 109.716 81.3991C109.914 80.8688 110.014 80.2509 110.014 79.5455C110.014 78.84 109.914 78.2268 109.716 77.706C109.521 77.1851 109.233 76.7803 108.849 76.4915C108.47 76.2027 108.004 76.0582 107.45 76.0582C106.877 76.0582 106.399 76.2074 106.015 76.5057C105.632 76.804 105.343 77.2159 105.149 77.7415C104.955 78.267 104.858 78.8684 104.858 79.5455C104.858 80.2273 104.955 80.8357 105.149 81.3707C105.348 81.901 105.639 82.3201 106.022 82.6278C106.411 82.9309 106.886 83.0824 107.45 83.0824ZM118.421 85.2202C117.73 85.2202 117.107 85.0971 116.553 84.8509C116.004 84.5999 115.568 84.2306 115.246 83.7429C114.929 83.2552 114.771 82.6539 114.771 81.9389C114.771 81.3234 114.884 80.8144 115.112 80.4119C115.339 80.0095 115.649 79.6875 116.042 79.446C116.435 79.2045 116.878 79.0223 117.37 78.8991C117.867 78.7713 118.381 78.679 118.911 78.6222C119.55 78.5559 120.069 78.4967 120.467 78.4446C120.864 78.3878 121.153 78.3026 121.333 78.1889C121.518 78.0705 121.61 77.8883 121.61 77.642V77.5994C121.61 77.0644 121.451 76.6501 121.134 76.3565C120.817 76.063 120.36 75.9162 119.763 75.9162C119.134 75.9162 118.634 76.0535 118.265 76.3281C117.9 76.6027 117.654 76.9271 117.526 77.3011L115.126 76.9602C115.315 76.2973 115.628 75.7434 116.063 75.2983C116.499 74.8485 117.031 74.5123 117.661 74.2898C118.291 74.0625 118.987 73.9489 119.749 73.9489C120.275 73.9489 120.798 74.0104 121.319 74.1335C121.84 74.2566 122.316 74.4602 122.746 74.7443C123.177 75.0237 123.523 75.4048 123.783 75.8878C124.049 76.3707 124.181 76.9744 124.181 77.6989V85H121.71V83.5014H121.624C121.468 83.8045 121.248 84.0885 120.964 84.3537C120.684 84.6141 120.332 84.8248 119.906 84.9858C119.484 85.142 118.989 85.2202 118.421 85.2202ZM119.089 83.331C119.605 83.331 120.052 83.2292 120.431 83.0256C120.81 82.8172 121.101 82.5426 121.305 82.2017C121.513 81.8608 121.617 81.4891 121.617 81.0866V79.8011C121.537 79.8674 121.399 79.929 121.205 79.9858C121.016 80.0426 120.803 80.0923 120.566 80.1349C120.329 80.1776 120.095 80.2154 119.863 80.2486C119.631 80.2817 119.43 80.3101 119.259 80.3338C118.876 80.3859 118.532 80.4711 118.229 80.5895C117.926 80.7079 117.687 80.8736 117.512 81.0866C117.337 81.295 117.249 81.5649 117.249 81.8963C117.249 82.3698 117.422 82.7273 117.768 82.9688C118.113 83.2102 118.554 83.331 119.089 83.331ZM128.35 85.1562C127.919 85.1562 127.55 85.0047 127.242 84.7017C126.934 84.3987 126.783 84.0294 126.788 83.5938C126.783 83.1676 126.934 82.803 127.242 82.5C127.55 82.197 127.919 82.0455 128.35 82.0455C128.767 82.0455 129.129 82.197 129.437 82.5C129.749 82.803 129.908 83.1676 129.913 83.5938C129.908 83.8826 129.832 84.1454 129.685 84.3821C129.543 84.6188 129.354 84.8082 129.117 84.9503C128.885 85.0876 128.629 85.1562 128.35 85.1562ZM134.151 85.1562C133.72 85.1562 133.351 85.0047 133.043 84.7017C132.735 84.3987 132.584 84.0294 132.588 83.5938C132.584 83.1676 132.735 82.803 133.043 82.5C133.351 82.197 133.72 82.0455 134.151 82.0455C134.568 82.0455 134.93 82.197 135.238 82.5C135.55 82.803 135.709 83.1676 135.713 83.5938C135.709 83.8826 135.633 84.1454 135.486 84.3821C135.344 84.6188 135.155 84.8082 134.918 84.9503C134.686 85.0876 134.43 85.1562 134.151 85.1562ZM139.952 85.1562C139.521 85.1562 139.152 85.0047 138.844 84.7017C138.536 84.3987 138.384 84.0294 138.389 83.5938C138.384 83.1676 138.536 82.803 138.844 82.5C139.152 82.197 139.521 82.0455 139.952 82.0455C140.368 82.0455 140.731 82.197 141.038 82.5C141.351 82.803 141.509 83.1676 141.514 83.5938C141.509 83.8826 141.434 84.1454 141.287 84.3821C141.145 84.6188 140.955 84.8082 140.719 84.9503C140.487 85.0876 140.231 85.1562 139.952 85.1562ZM68.3395 98.4531C68.2732 97.8329 67.9938 97.3499 67.5014 97.0043C67.0137 96.6586 66.3793 96.4858 65.598 96.4858C65.0488 96.4858 64.5777 96.5687 64.1847 96.7344C63.7917 96.9001 63.491 97.125 63.2827 97.4091C63.0743 97.6932 62.9678 98.0175 62.9631 98.3821C62.9631 98.6851 63.0317 98.9479 63.169 99.1705C63.3111 99.393 63.5028 99.5824 63.7443 99.7386C63.9858 99.8902 64.2533 100.018 64.5469 100.122C64.8404 100.226 65.1364 100.314 65.4347 100.385L66.7983 100.726C67.3475 100.854 67.8755 101.027 68.3821 101.244C68.8935 101.462 69.3504 101.737 69.7528 102.068C70.16 102.4 70.482 102.8 70.7188 103.268C70.9555 103.737 71.0739 104.286 71.0739 104.916C71.0739 105.768 70.8561 106.519 70.4205 107.168C69.9848 107.812 69.3551 108.316 68.5312 108.68C67.7121 109.04 66.7202 109.22 65.5554 109.22C64.4238 109.22 63.4413 109.045 62.608 108.695C61.7794 108.344 61.1307 107.833 60.6619 107.161C60.1979 106.488 59.947 105.669 59.9091 104.703H62.5014C62.5393 105.21 62.6955 105.631 62.9702 105.967C63.2448 106.304 63.6023 106.554 64.0426 106.72C64.4877 106.886 64.9848 106.969 65.5341 106.969C66.107 106.969 66.6089 106.884 67.0398 106.713C67.4754 106.538 67.8163 106.296 68.0625 105.989C68.3087 105.676 68.4342 105.312 68.4389 104.895C68.4342 104.516 68.3229 104.204 68.1051 103.957C67.8873 103.706 67.5819 103.498 67.1889 103.332C66.8007 103.162 66.3461 103.01 65.8253 102.878L64.1705 102.452C62.9725 102.144 62.0256 101.678 61.3295 101.053C60.6383 100.423 60.2926 99.5871 60.2926 98.5455C60.2926 97.6884 60.5246 96.938 60.9886 96.294C61.4574 95.6501 62.0942 95.1506 62.8991 94.7955C63.7041 94.4356 64.6155 94.2557 65.6335 94.2557C66.6657 94.2557 67.5701 94.4356 68.3466 94.7955C69.1278 95.1506 69.741 95.6454 70.1861 96.2798C70.6312 96.9096 70.8608 97.634 70.875 98.4531H68.3395ZM73.3093 109V98.0909H75.8803V109H73.3093ZM74.6019 96.5426C74.1947 96.5426 73.8443 96.4077 73.5508 96.1378C73.2572 95.8632 73.1104 95.5341 73.1104 95.1506C73.1104 94.7623 73.2572 94.4332 73.5508 94.1634C73.8443 93.8887 74.1947 93.7514 74.6019 93.7514C75.0138 93.7514 75.3642 93.8887 75.6531 94.1634C75.9466 94.4332 76.0934 94.7623 76.0934 95.1506C76.0934 95.5341 75.9466 95.8632 75.6531 96.1378C75.3642 96.4077 75.0138 96.5426 74.6019 96.5426ZM88.9325 98.0909V100.08H82.6612V98.0909H88.9325ZM84.2095 95.4773H86.7805V105.719C86.7805 106.064 86.8326 106.33 86.9368 106.514C87.0457 106.694 87.1877 106.817 87.3629 106.884C87.5381 106.95 87.7322 106.983 87.9453 106.983C88.1063 106.983 88.2531 106.971 88.3857 106.947C88.523 106.924 88.6271 106.902 88.6982 106.884L89.1314 108.893C88.9941 108.941 88.7976 108.993 88.5419 109.05C88.291 109.107 87.9832 109.14 87.6186 109.149C86.9747 109.168 86.3946 109.071 85.8786 108.858C85.3625 108.64 84.9529 108.304 84.6499 107.849C84.3516 107.395 84.2048 106.827 84.2095 106.145V95.4773ZM95.7951 109.213C94.7013 109.213 93.7567 108.986 92.9613 108.531C92.1706 108.072 91.5621 107.423 91.136 106.585C90.7099 105.742 90.4968 104.75 90.4968 103.609C90.4968 102.487 90.7099 101.502 91.136 100.655C91.5669 99.8026 92.1682 99.1397 92.94 98.6662C93.7118 98.188 94.6185 97.9489 95.6602 97.9489C96.3325 97.9489 96.967 98.0578 97.5636 98.2756C98.1649 98.4886 98.6952 98.8201 99.1545 99.2699C99.6185 99.7197 99.9831 100.293 100.248 100.989C100.513 101.68 100.646 102.504 100.646 103.46V104.249H91.7042V102.516H98.1815C98.1767 102.023 98.0702 101.585 97.8619 101.202C97.6535 100.813 97.3623 100.508 96.9883 100.286C96.619 100.063 96.1881 99.9517 95.6957 99.9517C95.1701 99.9517 94.7085 100.08 94.3107 100.335C93.913 100.586 93.6029 100.918 93.3803 101.33C93.1625 101.737 93.0513 102.184 93.0465 102.672V104.185C93.0465 104.819 93.1625 105.364 93.3945 105.818C93.6265 106.268 93.9509 106.614 94.3675 106.855C94.7842 107.092 95.2719 107.21 95.8306 107.21C96.2047 107.21 96.5432 107.158 96.8462 107.054C97.1493 106.945 97.4121 106.786 97.6346 106.578C97.8571 106.37 98.0252 106.112 98.1388 105.804L100.539 106.074C100.388 106.708 100.099 107.262 99.6729 107.736C99.2515 108.205 98.7118 108.569 98.0536 108.83C97.3955 109.085 96.6426 109.213 95.7951 109.213ZM112.526 113.318C111.603 113.318 110.81 113.193 110.147 112.942C109.484 112.696 108.951 112.364 108.549 111.947C108.147 111.531 107.867 111.069 107.711 110.562L110.026 110.001C110.13 110.214 110.282 110.425 110.481 110.634C110.68 110.847 110.947 111.022 111.283 111.159C111.624 111.301 112.053 111.372 112.569 111.372C113.298 111.372 113.902 111.195 114.38 110.839C114.858 110.489 115.097 109.911 115.097 109.107V107.04H114.969C114.837 107.305 114.643 107.577 114.387 107.857C114.136 108.136 113.802 108.37 113.386 108.56C112.974 108.749 112.455 108.844 111.83 108.844C110.992 108.844 110.232 108.647 109.55 108.254C108.873 107.857 108.334 107.265 107.931 106.479C107.533 105.688 107.335 104.698 107.335 103.51C107.335 102.312 107.533 101.301 107.931 100.477C108.334 99.6487 108.876 99.0213 109.558 98.5952C110.239 98.1643 110.999 97.9489 111.837 97.9489C112.477 97.9489 113.002 98.0578 113.414 98.2756C113.831 98.4886 114.162 98.7467 114.408 99.0497C114.655 99.348 114.842 99.6297 114.969 99.8949H115.112V98.0909H117.647V109.178C117.647 110.11 117.424 110.882 116.979 111.493C116.534 112.104 115.926 112.561 115.154 112.864C114.382 113.167 113.506 113.318 112.526 113.318ZM112.548 106.827C113.092 106.827 113.556 106.694 113.94 106.429C114.323 106.164 114.614 105.783 114.813 105.286C115.012 104.788 115.112 104.192 115.112 103.496C115.112 102.809 115.012 102.208 114.813 101.692C114.619 101.176 114.33 100.776 113.947 100.491C113.568 100.203 113.102 100.058 112.548 100.058C111.975 100.058 111.496 100.207 111.113 100.506C110.729 100.804 110.441 101.214 110.246 101.734C110.052 102.25 109.955 102.838 109.955 103.496C109.955 104.163 110.052 104.748 110.246 105.25C110.445 105.747 110.737 106.135 111.12 106.415C111.508 106.689 111.984 106.827 112.548 106.827ZM127.235 104.412V98.0909H129.806V109H127.313V107.061H127.2C126.953 107.672 126.549 108.171 125.985 108.56C125.426 108.948 124.737 109.142 123.918 109.142C123.203 109.142 122.571 108.983 122.022 108.666C121.478 108.344 121.051 107.878 120.744 107.267C120.436 106.652 120.282 105.908 120.282 105.037V98.0909H122.853V104.639C122.853 105.33 123.042 105.88 123.421 106.287C123.8 106.694 124.297 106.898 124.913 106.898C125.291 106.898 125.658 106.805 126.013 106.621C126.369 106.436 126.66 106.161 126.887 105.797C127.119 105.428 127.235 104.966 127.235 104.412ZM141.072 100.974L138.728 101.23C138.662 100.993 138.546 100.771 138.38 100.562C138.219 100.354 138.002 100.186 137.727 100.058C137.452 99.9304 137.116 99.8665 136.718 99.8665C136.183 99.8665 135.734 99.9825 135.369 100.214C135.009 100.446 134.832 100.747 134.836 101.116C134.832 101.434 134.948 101.692 135.184 101.891C135.426 102.089 135.824 102.253 136.377 102.381L138.238 102.778C139.27 103.001 140.038 103.354 140.539 103.837C141.046 104.32 141.302 104.952 141.306 105.733C141.302 106.42 141.1 107.026 140.703 107.551C140.31 108.072 139.763 108.479 139.062 108.773C138.361 109.066 137.556 109.213 136.647 109.213C135.312 109.213 134.237 108.934 133.423 108.375C132.609 107.812 132.123 107.028 131.967 106.024L134.474 105.783C134.588 106.275 134.829 106.647 135.199 106.898C135.568 107.149 136.048 107.274 136.64 107.274C137.251 107.274 137.741 107.149 138.11 106.898C138.484 106.647 138.672 106.337 138.672 105.967C138.672 105.655 138.551 105.397 138.309 105.193C138.073 104.99 137.703 104.833 137.201 104.724L135.341 104.334C134.294 104.116 133.52 103.749 133.018 103.233C132.516 102.712 132.268 102.054 132.272 101.259C132.268 100.586 132.45 100.004 132.819 99.5114C133.193 99.0142 133.712 98.6307 134.375 98.3608C135.042 98.0862 135.812 97.9489 136.683 97.9489C137.961 97.9489 138.967 98.2211 139.701 98.7656C140.44 99.3101 140.897 100.046 141.072 100.974ZM148.874 98.0909V100.08H142.603V98.0909H148.874ZM144.151 95.4773H146.722V105.719C146.722 106.064 146.774 106.33 146.878 106.514C146.987 106.694 147.129 106.817 147.304 106.884C147.48 106.95 147.674 106.983 147.887 106.983C148.048 106.983 148.194 106.971 148.327 106.947C148.464 106.924 148.569 106.902 148.64 106.884L149.073 108.893C148.935 108.941 148.739 108.993 148.483 109.05C148.232 109.107 147.925 109.14 147.56 109.149C146.916 109.168 146.336 109.071 145.82 108.858C145.304 108.64 144.894 108.304 144.591 107.849C144.293 107.395 144.146 106.827 144.151 106.145V95.4773ZM154.163 109.22C153.472 109.22 152.849 109.097 152.295 108.851C151.746 108.6 151.311 108.231 150.989 107.743C150.671 107.255 150.513 106.654 150.513 105.939C150.513 105.323 150.626 104.814 150.854 104.412C151.081 104.009 151.391 103.688 151.784 103.446C152.177 103.205 152.62 103.022 153.112 102.899C153.609 102.771 154.123 102.679 154.653 102.622C155.293 102.556 155.811 102.497 156.209 102.445C156.607 102.388 156.895 102.303 157.075 102.189C157.26 102.071 157.352 101.888 157.352 101.642V101.599C157.352 101.064 157.194 100.65 156.876 100.357C156.559 100.063 156.102 99.9162 155.506 99.9162C154.876 99.9162 154.376 100.054 154.007 100.328C153.643 100.603 153.396 100.927 153.268 101.301L150.868 100.96C151.057 100.297 151.37 99.7434 151.805 99.2983C152.241 98.8485 152.774 98.5123 153.403 98.2898C154.033 98.0625 154.729 97.9489 155.491 97.9489C156.017 97.9489 156.54 98.0104 157.061 98.1335C157.582 98.2566 158.058 98.4602 158.489 98.7443C158.92 99.0237 159.265 99.4048 159.526 99.8878C159.791 100.371 159.923 100.974 159.923 101.699V109H157.452V107.501H157.366C157.21 107.804 156.99 108.089 156.706 108.354C156.427 108.614 156.074 108.825 155.648 108.986C155.226 109.142 154.732 109.22 154.163 109.22ZM154.831 107.331C155.347 107.331 155.795 107.229 156.173 107.026C156.552 106.817 156.843 106.543 157.047 106.202C157.255 105.861 157.359 105.489 157.359 105.087V103.801C157.279 103.867 157.142 103.929 156.947 103.986C156.758 104.043 156.545 104.092 156.308 104.135C156.071 104.178 155.837 104.215 155.605 104.249C155.373 104.282 155.172 104.31 155.001 104.334C154.618 104.386 154.275 104.471 153.972 104.589C153.669 104.708 153.429 104.874 153.254 105.087C153.079 105.295 152.991 105.565 152.991 105.896C152.991 106.37 153.164 106.727 153.51 106.969C153.856 107.21 154.296 107.331 154.831 107.331ZM162.509 109V98.0909H165.001V99.9091H165.115C165.314 99.2794 165.655 98.794 166.138 98.4531C166.625 98.1075 167.182 97.9347 167.807 97.9347C167.949 97.9347 168.107 97.9418 168.283 97.956C168.463 97.9654 168.612 97.982 168.73 98.0057V100.371C168.621 100.333 168.448 100.3 168.212 100.271C167.98 100.238 167.755 100.222 167.537 100.222C167.068 100.222 166.647 100.323 166.273 100.527C165.903 100.726 165.612 101.003 165.399 101.358C165.186 101.713 165.08 102.123 165.08 102.587V109H162.509ZM170.438 109V98.0909H173.009V109H170.438ZM170.744 96.6562L172.335 93.4105H174.849L172.668 96.6562H170.744ZM178.792 109.22C178.101 109.22 177.478 109.097 176.924 108.851C176.375 108.6 175.94 108.231 175.618 107.743C175.3 107.255 175.142 106.654 175.142 105.939C175.142 105.323 175.255 104.814 175.483 104.412C175.71 104.009 176.02 103.688 176.413 103.446C176.806 103.205 177.249 103.022 177.741 102.899C178.238 102.771 178.752 102.679 179.282 102.622C179.922 102.556 180.44 102.497 180.838 102.445C181.235 102.388 181.524 102.303 181.704 102.189C181.889 102.071 181.981 101.888 181.981 101.642V101.599C181.981 101.064 181.823 100.65 181.505 100.357C181.188 100.063 180.731 99.9162 180.135 99.9162C179.505 99.9162 179.005 100.054 178.636 100.328C178.271 100.603 178.025 100.927 177.897 101.301L175.497 100.96C175.686 100.297 175.999 99.7434 176.434 99.2983C176.87 98.8485 177.403 98.5123 178.032 98.2898C178.662 98.0625 179.358 97.9489 180.12 97.9489C180.646 97.9489 181.169 98.0104 181.69 98.1335C182.211 98.2566 182.687 98.4602 183.118 98.7443C183.548 99.0237 183.894 99.4048 184.154 99.8878C184.42 100.371 184.552 100.974 184.552 101.699V109H182.081V107.501H181.995C181.839 107.804 181.619 108.089 181.335 108.354C181.056 108.614 180.703 108.825 180.277 108.986C179.855 109.142 179.36 109.22 178.792 109.22ZM179.46 107.331C179.976 107.331 180.423 107.229 180.802 107.026C181.181 106.817 181.472 106.543 181.676 106.202C181.884 105.861 181.988 105.489 181.988 105.087V103.801C181.908 103.867 181.77 103.929 181.576 103.986C181.387 104.043 181.174 104.092 180.937 104.135C180.7 104.178 180.466 104.215 180.234 104.249C180.002 104.282 179.801 104.31 179.63 104.334C179.247 104.386 178.904 104.471 178.6 104.589C178.297 104.708 178.058 104.874 177.883 105.087C177.708 105.295 177.62 105.565 177.62 105.896C177.62 106.37 177.793 106.727 178.139 106.969C178.484 107.21 178.925 107.331 179.46 107.331ZM196.857 109.213C195.768 109.213 194.833 108.974 194.051 108.496C193.275 108.018 192.676 107.357 192.255 106.514C191.838 105.667 191.63 104.691 191.63 103.588C191.63 102.48 191.843 101.502 192.269 100.655C192.695 99.8026 193.296 99.1397 194.073 98.6662C194.854 98.188 195.777 97.9489 196.843 97.9489C197.728 97.9489 198.512 98.1122 199.194 98.4389C199.88 98.7609 200.427 99.2178 200.834 99.8097C201.241 100.397 201.473 101.083 201.53 101.869H199.073C198.973 101.344 198.737 100.906 198.363 100.555C197.993 100.2 197.498 100.023 196.878 100.023C196.353 100.023 195.891 100.165 195.493 100.449C195.096 100.728 194.785 101.131 194.563 101.656C194.345 102.182 194.236 102.812 194.236 103.545C194.236 104.289 194.345 104.928 194.563 105.463C194.781 105.993 195.086 106.403 195.479 106.692C195.877 106.976 196.343 107.118 196.878 107.118C197.257 107.118 197.596 107.047 197.894 106.905C198.197 106.758 198.45 106.547 198.654 106.273C198.857 105.998 198.997 105.664 199.073 105.271H201.53C201.469 106.043 201.241 106.727 200.848 107.324C200.455 107.916 199.92 108.38 199.243 108.716C198.566 109.047 197.771 109.213 196.857 109.213ZM203.641 109V98.0909H206.134V99.9091H206.248C206.447 99.2794 206.788 98.794 207.271 98.4531C207.758 98.1075 208.315 97.9347 208.94 97.9347C209.082 97.9347 209.24 97.9418 209.415 97.956C209.595 97.9654 209.745 97.982 209.863 98.0057V100.371C209.754 100.333 209.581 100.3 209.344 100.271C209.112 100.238 208.888 100.222 208.67 100.222C208.201 100.222 207.78 100.323 207.406 100.527C207.036 100.726 206.745 101.003 206.532 101.358C206.319 101.713 206.212 102.123 206.212 102.587V109H203.641ZM215.951 109.213C214.858 109.213 213.913 108.986 213.118 108.531C212.327 108.072 211.718 107.423 211.292 106.585C210.866 105.742 210.653 104.75 210.653 103.609C210.653 102.487 210.866 101.502 211.292 100.655C211.723 99.8026 212.324 99.1397 213.096 98.6662C213.868 98.188 214.775 97.9489 215.816 97.9489C216.489 97.9489 217.123 98.0578 217.72 98.2756C218.321 98.4886 218.851 98.8201 219.311 99.2699C219.775 99.7197 220.139 100.293 220.404 100.989C220.67 101.68 220.802 102.504 220.802 103.46V104.249H211.86V102.516H218.338C218.333 102.023 218.226 101.585 218.018 101.202C217.81 100.813 217.519 100.508 217.145 100.286C216.775 100.063 216.344 99.9517 215.852 99.9517C215.326 99.9517 214.865 100.08 214.467 100.335C214.069 100.586 213.759 100.918 213.537 101.33C213.319 101.737 213.208 102.184 213.203 102.672V104.185C213.203 104.819 213.319 105.364 213.551 105.818C213.783 106.268 214.107 106.614 214.524 106.855C214.94 107.092 215.428 107.21 215.987 107.21C216.361 107.21 216.699 107.158 217.002 107.054C217.306 106.945 217.568 106.786 217.791 106.578C218.013 106.37 218.181 106.112 218.295 105.804L220.696 106.074C220.544 106.708 220.255 107.262 219.829 107.736C219.408 108.205 218.868 108.569 218.21 108.83C217.552 109.085 216.799 109.213 215.951 109.213ZM226.116 109.22C225.425 109.22 224.803 109.097 224.249 108.851C223.699 108.6 223.264 108.231 222.942 107.743C222.625 107.255 222.466 106.654 222.466 105.939C222.466 105.323 222.58 104.814 222.807 104.412C223.034 104.009 223.344 103.688 223.737 103.446C224.13 103.205 224.573 103.022 225.065 102.899C225.563 102.771 226.076 102.679 226.607 102.622C227.246 102.556 227.764 102.497 228.162 102.445C228.56 102.388 228.848 102.303 229.028 102.189C229.213 102.071 229.305 101.888 229.305 101.642V101.599C229.305 101.064 229.147 100.65 228.83 100.357C228.512 100.063 228.055 99.9162 227.459 99.9162C226.829 99.9162 226.33 100.054 225.96 100.328C225.596 100.603 225.349 100.927 225.222 101.301L222.821 100.96C223.01 100.297 223.323 99.7434 223.759 99.2983C224.194 98.8485 224.727 98.5123 225.357 98.2898C225.986 98.0625 226.682 97.9489 227.445 97.9489C227.97 97.9489 228.493 98.0104 229.014 98.1335C229.535 98.2566 230.011 98.4602 230.442 98.7443C230.873 99.0237 231.218 99.4048 231.479 99.8878C231.744 100.371 231.876 100.974 231.876 101.699V109H229.405V107.501H229.32C229.163 107.804 228.943 108.089 228.659 108.354C228.38 108.614 228.027 108.825 227.601 108.986C227.179 109.142 226.685 109.22 226.116 109.22ZM226.784 107.331C227.3 107.331 227.748 107.229 228.126 107.026C228.505 106.817 228.796 106.543 229 106.202C229.208 105.861 229.312 105.489 229.312 105.087V103.801C229.232 103.867 229.095 103.929 228.901 103.986C228.711 104.043 228.498 104.092 228.261 104.135C228.025 104.178 227.79 104.215 227.558 104.249C227.326 104.282 227.125 104.31 226.955 104.334C226.571 104.386 226.228 104.471 225.925 104.589C225.622 104.708 225.383 104.874 225.207 105.087C225.032 105.295 224.945 105.565 224.945 105.896C224.945 106.37 225.117 106.727 225.463 106.969C225.809 107.21 226.249 107.331 226.784 107.331ZM234.462 109V98.0909H236.955V99.9091H237.068C237.267 99.2794 237.608 98.794 238.091 98.4531C238.579 98.1075 239.135 97.9347 239.76 97.9347C239.902 97.9347 240.061 97.9418 240.236 97.956C240.416 97.9654 240.565 97.982 240.683 98.0057V100.371C240.574 100.333 240.402 100.3 240.165 100.271C239.933 100.238 239.708 100.222 239.49 100.222C239.021 100.222 238.6 100.323 238.226 100.527C237.857 100.726 237.565 101.003 237.352 101.358C237.139 101.713 237.033 102.123 237.033 102.587V109H234.462ZM254.305 104.412V98.0909H256.876V109H254.384V107.061H254.27C254.024 107.672 253.619 108.171 253.055 108.56C252.497 108.948 251.808 109.142 250.989 109.142C250.274 109.142 249.642 108.983 249.092 108.666C248.548 108.344 248.122 107.878 247.814 107.267C247.506 106.652 247.352 105.908 247.352 105.037V98.0909H249.923V104.639C249.923 105.33 250.113 105.88 250.491 106.287C250.87 106.694 251.367 106.898 251.983 106.898C252.362 106.898 252.729 106.805 253.084 106.621C253.439 106.436 253.73 106.161 253.957 105.797C254.189 105.428 254.305 104.966 254.305 104.412ZM262.091 102.608V109H259.52V98.0909H261.978V99.9446H262.105C262.356 99.3338 262.757 98.8485 263.306 98.4886C263.86 98.1288 264.544 97.9489 265.358 97.9489C266.111 97.9489 266.767 98.1098 267.326 98.4318C267.889 98.7538 268.325 99.2202 268.632 99.831C268.945 100.442 269.099 101.183 269.094 102.054V109H266.523V102.452C266.523 101.723 266.334 101.152 265.955 100.74C265.581 100.328 265.062 100.122 264.4 100.122C263.95 100.122 263.55 100.222 263.199 100.42C262.854 100.615 262.581 100.896 262.382 101.266C262.188 101.635 262.091 102.082 262.091 102.608ZM274.847 109.22C274.156 109.22 273.533 109.097 272.979 108.851C272.43 108.6 271.994 108.231 271.672 107.743C271.355 107.255 271.196 106.654 271.196 105.939C271.196 105.323 271.31 104.814 271.537 104.412C271.765 104.009 272.075 103.688 272.468 103.446C272.861 103.205 273.303 103.022 273.796 102.899C274.293 102.771 274.807 102.679 275.337 102.622C275.976 102.556 276.495 102.497 276.892 102.445C277.29 102.388 277.579 102.303 277.759 102.189C277.944 102.071 278.036 101.888 278.036 101.642V101.599C278.036 101.064 277.877 100.65 277.56 100.357C277.243 100.063 276.786 99.9162 276.189 99.9162C275.56 99.9162 275.06 100.054 274.691 100.328C274.326 100.603 274.08 100.927 273.952 101.301L271.551 100.96C271.741 100.297 272.053 99.7434 272.489 99.2983C272.925 98.8485 273.457 98.5123 274.087 98.2898C274.717 98.0625 275.413 97.9489 276.175 97.9489C276.701 97.9489 277.224 98.0104 277.745 98.1335C278.266 98.2566 278.741 98.4602 279.172 98.7443C279.603 99.0237 279.949 99.4048 280.209 99.8878C280.474 100.371 280.607 100.974 280.607 101.699V109H278.135V107.501H278.05C277.894 107.804 277.674 108.089 277.39 108.354C277.11 108.614 276.757 108.825 276.331 108.986C275.91 109.142 275.415 109.22 274.847 109.22ZM275.515 107.331C276.031 107.331 276.478 107.229 276.857 107.026C277.236 106.817 277.527 106.543 277.73 106.202C277.939 105.861 278.043 105.489 278.043 105.087V103.801C277.962 103.867 277.825 103.929 277.631 103.986C277.442 104.043 277.229 104.092 276.992 104.135C276.755 104.178 276.521 104.215 276.289 104.249C276.057 104.282 275.855 104.31 275.685 104.334C275.301 104.386 274.958 104.471 274.655 104.589C274.352 104.708 274.113 104.874 273.938 105.087C273.763 105.295 273.675 105.565 273.675 105.896C273.675 106.37 273.848 106.727 274.194 106.969C274.539 107.21 274.98 107.331 275.515 107.331ZM286.211 107.011L286.118 107.793C286.052 108.389 285.934 108.995 285.763 109.611C285.597 110.231 285.422 110.802 285.238 111.322C285.053 111.843 284.904 112.253 284.79 112.551H283.057C283.123 112.262 283.213 111.869 283.327 111.372C283.445 110.875 283.559 110.316 283.668 109.696C283.777 109.076 283.85 108.446 283.888 107.807L283.938 107.011H286.211ZM293.602 113.091V98.0909H296.131V99.8949H296.28C296.412 99.6297 296.599 99.348 296.841 99.0497C297.082 98.7467 297.409 98.4886 297.821 98.2756C298.233 98.0578 298.759 97.9489 299.398 97.9489C300.241 97.9489 301 98.1643 301.678 98.5952C302.359 99.0213 302.899 99.6534 303.297 100.491C303.699 101.325 303.901 102.348 303.901 103.56C303.901 104.758 303.704 105.776 303.311 106.614C302.918 107.452 302.383 108.091 301.706 108.531C301.029 108.972 300.262 109.192 299.405 109.192C298.78 109.192 298.261 109.088 297.849 108.879C297.438 108.671 297.106 108.42 296.855 108.126C296.609 107.828 296.417 107.546 296.28 107.281H296.173V113.091H293.602ZM296.124 103.545C296.124 104.251 296.223 104.869 296.422 105.399C296.625 105.929 296.917 106.344 297.295 106.642C297.679 106.936 298.143 107.082 298.688 107.082C299.256 107.082 299.732 106.931 300.115 106.628C300.499 106.32 300.787 105.901 300.982 105.371C301.18 104.836 301.28 104.227 301.28 103.545C301.28 102.868 301.183 102.267 300.989 101.741C300.795 101.216 300.506 100.804 300.122 100.506C299.739 100.207 299.26 100.058 298.688 100.058C298.138 100.058 297.672 100.203 297.288 100.491C296.905 100.78 296.614 101.185 296.415 101.706C296.221 102.227 296.124 102.84 296.124 103.545ZM313.055 104.412V98.0909H315.626V109H313.134V107.061H313.02C312.774 107.672 312.369 108.171 311.805 108.56C311.247 108.948 310.558 109.142 309.739 109.142C309.024 109.142 308.392 108.983 307.842 108.666C307.298 108.344 306.872 107.878 306.564 107.267C306.256 106.652 306.102 105.908 306.102 105.037V98.0909H308.673V104.639C308.673 105.33 308.863 105.88 309.241 106.287C309.62 106.694 310.117 106.898 310.733 106.898C311.112 106.898 311.479 106.805 311.834 106.621C312.189 106.436 312.48 106.161 312.707 105.797C312.939 105.428 313.055 104.966 313.055 104.412ZM320.841 94.4545V109H318.27V94.4545H320.841ZM332.107 100.974L329.763 101.23C329.697 100.993 329.581 100.771 329.415 100.562C329.254 100.354 329.037 100.186 328.762 100.058C328.487 99.9304 328.151 99.8665 327.754 99.8665C327.219 99.8665 326.769 99.9825 326.404 100.214C326.044 100.446 325.867 100.747 325.871 101.116C325.867 101.434 325.983 101.692 326.219 101.891C326.461 102.089 326.859 102.253 327.413 102.381L329.273 102.778C330.306 103.001 331.073 103.354 331.575 103.837C332.081 104.32 332.337 104.952 332.342 105.733C332.337 106.42 332.136 107.026 331.738 107.551C331.345 108.072 330.798 108.479 330.097 108.773C329.397 109.066 328.592 109.213 327.683 109.213C326.347 109.213 325.272 108.934 324.458 108.375C323.644 107.812 323.158 107.028 323.002 106.024L325.509 105.783C325.623 106.275 325.864 106.647 326.234 106.898C326.603 107.149 327.084 107.274 327.675 107.274C328.286 107.274 328.776 107.149 329.146 106.898C329.52 106.647 329.707 106.337 329.707 105.967C329.707 105.655 329.586 105.397 329.344 105.193C329.108 104.99 328.738 104.833 328.237 104.724L326.376 104.334C325.329 104.116 324.555 103.749 324.053 103.233C323.551 102.712 323.303 102.054 323.308 101.259C323.303 100.586 323.485 100.004 323.854 99.5114C324.228 99.0142 324.747 98.6307 325.41 98.3608C326.077 98.0862 326.847 97.9489 327.718 97.9489C328.996 97.9489 330.003 98.2211 330.737 98.7656C331.475 99.3101 331.932 100.046 332.107 100.974ZM337.601 109.22C336.91 109.22 336.287 109.097 335.733 108.851C335.184 108.6 334.748 108.231 334.426 107.743C334.109 107.255 333.95 106.654 333.95 105.939C333.95 105.323 334.064 104.814 334.291 104.412C334.518 104.009 334.829 103.688 335.222 103.446C335.615 103.205 336.057 103.022 336.55 102.899C337.047 102.771 337.561 102.679 338.091 102.622C338.73 102.556 339.249 102.497 339.646 102.445C340.044 102.388 340.333 102.303 340.513 102.189C340.697 102.071 340.79 101.888 340.79 101.642V101.599C340.79 101.064 340.631 100.65 340.314 100.357C339.997 100.063 339.54 99.9162 338.943 99.9162C338.313 99.9162 337.814 100.054 337.445 100.328C337.08 100.603 336.834 100.927 336.706 101.301L334.305 100.96C334.495 100.297 334.807 99.7434 335.243 99.2983C335.679 98.8485 336.211 98.5123 336.841 98.2898C337.471 98.0625 338.167 97.9489 338.929 97.9489C339.455 97.9489 339.978 98.0104 340.499 98.1335C341.019 98.2566 341.495 98.4602 341.926 98.7443C342.357 99.0237 342.703 99.4048 342.963 99.8878C343.228 100.371 343.361 100.974 343.361 101.699V109H340.889V107.501H340.804C340.648 107.804 340.428 108.089 340.143 108.354C339.864 108.614 339.511 108.825 339.085 108.986C338.664 109.142 338.169 109.22 337.601 109.22ZM338.268 107.331C338.785 107.331 339.232 107.229 339.611 107.026C339.99 106.817 340.281 106.543 340.484 106.202C340.693 105.861 340.797 105.489 340.797 105.087V103.801C340.716 103.867 340.579 103.929 340.385 103.986C340.196 104.043 339.982 104.092 339.746 104.135C339.509 104.178 339.275 104.215 339.043 104.249C338.811 104.282 338.609 104.31 338.439 104.334C338.055 104.386 337.712 104.471 337.409 104.589C337.106 104.708 336.867 104.874 336.692 105.087C336.517 105.295 336.429 105.565 336.429 105.896C336.429 106.37 336.602 106.727 336.947 106.969C337.293 107.21 337.733 107.331 338.268 107.331ZM357.86 104.412V98.0909H360.431V109H357.938V107.061H357.825C357.578 107.672 357.174 108.171 356.61 108.56C356.051 108.948 355.362 109.142 354.543 109.142C353.828 109.142 353.196 108.983 352.647 108.666C352.103 108.344 351.676 107.878 351.369 107.267C351.061 106.652 350.907 105.908 350.907 105.037V98.0909H353.478V104.639C353.478 105.33 353.667 105.88 354.046 106.287C354.425 106.694 354.922 106.898 355.538 106.898C355.916 106.898 356.283 106.805 356.638 106.621C356.994 106.436 357.285 106.161 357.512 105.797C357.744 105.428 357.86 104.966 357.86 104.412ZM365.646 102.608V109H363.075V98.0909H365.532V99.9446H365.66C365.911 99.3338 366.311 98.8485 366.86 98.4886C367.414 98.1288 368.099 97.9489 368.913 97.9489C369.666 97.9489 370.322 98.1098 370.88 98.4318C371.444 98.7538 371.879 99.2202 372.187 99.831C372.5 100.442 372.654 101.183 372.649 102.054V109H370.078V102.452C370.078 101.723 369.888 101.152 369.51 100.74C369.136 100.328 368.617 100.122 367.954 100.122C367.504 100.122 367.104 100.222 366.754 100.42C366.408 100.615 366.136 100.896 365.937 101.266C365.743 101.635 365.646 102.082 365.646 102.608ZM380.021 109.213C378.956 109.213 378.032 108.979 377.251 108.51C376.47 108.041 375.864 107.385 375.433 106.543C375.007 105.7 374.794 104.715 374.794 103.588C374.794 102.461 375.007 101.474 375.433 100.626C375.864 99.7789 376.47 99.1207 377.251 98.652C378.032 98.1832 378.956 97.9489 380.021 97.9489C381.086 97.9489 382.01 98.1832 382.791 98.652C383.572 99.1207 384.176 99.7789 384.602 100.626C385.033 101.474 385.248 102.461 385.248 103.588C385.248 104.715 385.033 105.7 384.602 106.543C384.176 107.385 383.572 108.041 382.791 108.51C382.01 108.979 381.086 109.213 380.021 109.213ZM380.035 107.153C380.613 107.153 381.096 106.995 381.484 106.678C381.872 106.356 382.161 105.925 382.35 105.385C382.545 104.845 382.642 104.244 382.642 103.581C382.642 102.913 382.545 102.31 382.35 101.77C382.161 101.225 381.872 100.792 381.484 100.47C381.096 100.148 380.613 99.9872 380.035 99.9872C379.443 99.9872 378.951 100.148 378.558 100.47C378.17 100.792 377.878 101.225 377.684 101.77C377.495 102.31 377.4 102.913 377.4 103.581C377.4 104.244 377.495 104.845 377.684 105.385C377.878 105.925 378.17 106.356 378.558 106.678C378.951 106.995 379.443 107.153 380.035 107.153ZM396.44 109.192C395.583 109.192 394.816 108.972 394.138 108.531C393.461 108.091 392.926 107.452 392.533 106.614C392.14 105.776 391.944 104.758 391.944 103.56C391.944 102.348 392.143 101.325 392.54 100.491C392.943 99.6534 393.485 99.0213 394.167 98.5952C394.849 98.1643 395.609 97.9489 396.447 97.9489C397.086 97.9489 397.612 98.0578 398.023 98.2756C398.435 98.4886 398.762 98.7467 399.004 99.0497C399.245 99.348 399.432 99.6297 399.565 99.8949H399.671V94.4545H402.249V109H399.721V107.281H399.565C399.432 107.546 399.24 107.828 398.989 108.126C398.738 108.42 398.407 108.671 397.995 108.879C397.583 109.088 397.065 109.192 396.44 109.192ZM397.157 107.082C397.701 107.082 398.165 106.936 398.549 106.642C398.933 106.344 399.224 105.929 399.423 105.399C399.621 104.869 399.721 104.251 399.721 103.545C399.721 102.84 399.621 102.227 399.423 101.706C399.228 101.185 398.94 100.78 398.556 100.491C398.177 100.203 397.711 100.058 397.157 100.058C396.584 100.058 396.106 100.207 395.722 100.506C395.339 100.804 395.05 101.216 394.856 101.741C394.662 102.267 394.565 102.868 394.565 103.545C394.565 104.227 394.662 104.836 394.856 105.371C395.055 105.901 395.346 106.32 395.729 106.628C396.118 106.931 396.594 107.082 397.157 107.082ZM409.819 109.213C408.725 109.213 407.78 108.986 406.985 108.531C406.194 108.072 405.586 107.423 405.159 106.585C404.733 105.742 404.52 104.75 404.52 103.609C404.52 102.487 404.733 101.502 405.159 100.655C405.59 99.8026 406.192 99.1397 406.963 98.6662C407.735 98.188 408.642 97.9489 409.684 97.9489C410.356 97.9489 410.99 98.0578 411.587 98.2756C412.188 98.4886 412.719 98.8201 413.178 99.2699C413.642 99.7197 414.007 100.293 414.272 100.989C414.537 101.68 414.669 102.504 414.669 103.46V104.249H405.728V102.516H412.205C412.2 102.023 412.094 101.585 411.885 101.202C411.677 100.813 411.386 100.508 411.012 100.286C410.642 100.063 410.212 99.9517 409.719 99.9517C409.194 99.9517 408.732 100.08 408.334 100.335C407.936 100.586 407.626 100.918 407.404 101.33C407.186 101.737 407.075 102.184 407.07 102.672V104.185C407.07 104.819 407.186 105.364 407.418 105.818C407.65 106.268 407.974 106.614 408.391 106.855C408.808 107.092 409.295 107.21 409.854 107.21C410.228 107.21 410.567 107.158 410.87 107.054C411.173 106.945 411.435 106.786 411.658 106.578C411.881 106.37 412.049 106.112 412.162 105.804L414.563 106.074C414.411 106.708 414.123 107.262 413.696 107.736C413.275 108.205 412.735 108.569 412.077 108.83C411.419 109.085 410.666 109.213 409.819 109.213ZM424.376 94.4545V109H421.805V94.4545H424.376ZM431.779 109.213C430.713 109.213 429.79 108.979 429.009 108.51C428.228 108.041 427.622 107.385 427.191 106.543C426.765 105.7 426.551 104.715 426.551 103.588C426.551 102.461 426.765 101.474 427.191 100.626C427.622 99.7789 428.228 99.1207 429.009 98.652C429.79 98.1832 430.713 97.9489 431.779 97.9489C432.844 97.9489 433.767 98.1832 434.549 98.652C435.33 99.1207 435.934 99.7789 436.36 100.626C436.791 101.474 437.006 102.461 437.006 103.588C437.006 104.715 436.791 105.7 436.36 106.543C435.934 107.385 435.33 108.041 434.549 108.51C433.767 108.979 432.844 109.213 431.779 109.213ZM431.793 107.153C432.371 107.153 432.854 106.995 433.242 106.678C433.63 106.356 433.919 105.925 434.108 105.385C434.302 104.845 434.4 104.244 434.4 103.581C434.4 102.913 434.302 102.31 434.108 101.77C433.919 101.225 433.63 100.792 433.242 100.47C432.854 100.148 432.371 99.9872 431.793 99.9872C431.201 99.9872 430.709 100.148 430.316 100.47C429.927 100.792 429.636 101.225 429.442 101.77C429.253 102.31 429.158 102.913 429.158 103.581C429.158 104.244 429.253 104.845 429.442 105.385C429.636 105.925 429.927 106.356 430.316 106.678C430.709 106.995 431.201 107.153 431.793 107.153ZM447.81 100.974L445.467 101.23C445.4 100.993 445.284 100.771 445.119 100.562C444.958 100.354 444.74 100.186 444.465 100.058C444.191 99.9304 443.854 99.8665 443.457 99.8665C442.922 99.8665 442.472 99.9825 442.107 100.214C441.747 100.446 441.57 100.747 441.575 101.116C441.57 101.434 441.686 101.692 441.923 101.891C442.164 102.089 442.562 102.253 443.116 102.381L444.977 102.778C446.009 103.001 446.776 103.354 447.278 103.837C447.784 104.32 448.04 104.952 448.045 105.733C448.04 106.42 447.839 107.026 447.441 107.551C447.048 108.072 446.501 108.479 445.8 108.773C445.1 109.066 444.295 109.213 443.386 109.213C442.05 109.213 440.976 108.934 440.161 108.375C439.347 107.812 438.862 107.028 438.705 106.024L441.212 105.783C441.326 106.275 441.567 106.647 441.937 106.898C442.306 107.149 442.787 107.274 443.379 107.274C443.989 107.274 444.479 107.149 444.849 106.898C445.223 106.647 445.41 106.337 445.41 105.967C445.41 105.655 445.289 105.397 445.048 105.193C444.811 104.99 444.442 104.833 443.94 104.724L442.079 104.334C441.032 104.116 440.258 103.749 439.756 103.233C439.254 102.712 439.006 102.054 439.011 101.259C439.006 100.586 439.188 100.004 439.558 99.5114C439.932 99.0142 440.45 98.6307 441.113 98.3608C441.781 98.0862 442.55 97.9489 443.421 97.9489C444.7 97.9489 445.706 98.2211 446.44 98.7656C447.178 99.3101 447.635 100.046 447.81 100.974ZM65.7685 122.091V124.08H59.4972V122.091H65.7685ZM61.0455 119.477H63.6165V129.719C63.6165 130.064 63.6686 130.33 63.7727 130.514C63.8816 130.694 64.0237 130.817 64.1989 130.884C64.3741 130.95 64.5682 130.983 64.7812 130.983C64.9422 130.983 65.089 130.971 65.2216 130.947C65.3589 130.924 65.4631 130.902 65.5341 130.884L65.9673 132.893C65.83 132.941 65.6335 132.993 65.3778 133.05C65.1269 133.107 64.8191 133.14 64.4545 133.149C63.8106 133.168 63.2306 133.071 62.7145 132.858C62.1984 132.64 61.7888 132.304 61.4858 131.849C61.1875 131.395 61.0407 130.827 61.0455 130.145V119.477ZM67.9187 133V122.091H70.4116V123.909H70.5252C70.7241 123.279 71.065 122.794 71.5479 122.453C72.0356 122.107 72.592 121.935 73.217 121.935C73.359 121.935 73.5176 121.942 73.6928 121.956C73.8728 121.965 74.0219 121.982 74.1403 122.006V124.371C74.0314 124.333 73.8585 124.3 73.6218 124.271C73.3898 124.238 73.1649 124.222 72.9471 124.222C72.4783 124.222 72.0569 124.323 71.6829 124.527C71.3136 124.726 71.0224 125.003 70.8093 125.358C70.5962 125.713 70.4897 126.123 70.4897 126.587V133H67.9187ZM80.2287 133.213C79.1349 133.213 78.1903 132.986 77.3949 132.531C76.6042 132.072 75.9957 131.423 75.5696 130.585C75.1435 129.742 74.9304 128.75 74.9304 127.609C74.9304 126.487 75.1435 125.502 75.5696 124.655C76.0005 123.803 76.6018 123.14 77.3736 122.666C78.1454 122.188 79.0521 121.949 80.0938 121.949C80.7661 121.949 81.4006 122.058 81.9972 122.276C82.5985 122.489 83.1288 122.82 83.5881 123.27C84.0521 123.72 84.4167 124.293 84.6818 124.989C84.947 125.68 85.0795 126.504 85.0795 127.46V128.249H76.1378V126.516H82.6151C82.6103 126.023 82.5038 125.585 82.2955 125.202C82.0871 124.813 81.7959 124.508 81.4219 124.286C81.0526 124.063 80.6217 123.952 80.1293 123.952C79.6037 123.952 79.142 124.08 78.7443 124.335C78.3466 124.586 78.0365 124.918 77.8139 125.33C77.5961 125.737 77.4848 126.184 77.4801 126.672V128.185C77.4801 128.819 77.5961 129.364 77.8281 129.818C78.0601 130.268 78.3845 130.614 78.8011 130.855C79.2178 131.092 79.7055 131.21 80.2642 131.21C80.6383 131.21 80.9768 131.158 81.2798 131.054C81.5829 130.945 81.8456 130.786 82.0682 130.578C82.2907 130.37 82.4588 130.112 82.5724 129.804L84.973 130.074C84.8215 130.708 84.5327 131.262 84.1065 131.736C83.6851 132.205 83.1454 132.569 82.4872 132.83C81.8291 133.085 81.0762 133.213 80.2287 133.213ZM95.8768 124.974L93.533 125.23C93.4667 124.993 93.3507 124.771 93.185 124.562C93.024 124.354 92.8062 124.186 92.5316 124.058C92.257 123.93 91.9208 123.866 91.5231 123.866C90.988 123.866 90.5382 123.982 90.1737 124.214C89.8138 124.446 89.6362 124.747 89.641 125.116C89.6362 125.434 89.7522 125.692 89.989 125.891C90.2305 126.089 90.6282 126.253 91.1822 126.381L93.043 126.778C94.0752 127.001 94.8422 127.354 95.3441 127.837C95.8507 128.32 96.1064 128.952 96.1112 129.733C96.1064 130.42 95.9052 131.026 95.5075 131.551C95.1145 132.072 94.5676 132.479 93.8668 132.773C93.1661 133.066 92.3612 133.213 91.4521 133.213C90.1168 133.213 89.042 132.934 88.2276 132.375C87.4132 131.812 86.9279 131.028 86.7717 130.024L89.2788 129.783C89.3924 130.275 89.6339 130.647 90.0032 130.898C90.3725 131.149 90.8531 131.274 91.445 131.274C92.0558 131.274 92.5458 131.149 92.9151 130.898C93.2892 130.647 93.4762 130.337 93.4762 129.967C93.4762 129.655 93.3555 129.397 93.114 129.193C92.8772 128.99 92.5079 128.833 92.006 128.724L90.1452 128.334C89.0988 128.116 88.3247 127.749 87.8228 127.233C87.3209 126.712 87.0723 126.054 87.0771 125.259C87.0723 124.586 87.2546 124.004 87.6239 123.511C87.998 123.014 88.5165 122.631 89.1793 122.361C89.8469 122.086 90.6164 121.949 91.4876 121.949C92.766 121.949 93.7721 122.221 94.506 122.766C95.2447 123.31 95.7016 124.046 95.8768 124.974ZM103.306 133V118.455H105.877V123.895H105.983C106.116 123.63 106.303 123.348 106.544 123.05C106.786 122.747 107.113 122.489 107.525 122.276C107.936 122.058 108.462 121.949 109.101 121.949C109.944 121.949 110.704 122.164 111.381 122.595C112.063 123.021 112.603 123.653 113 124.491C113.403 125.325 113.604 126.348 113.604 127.56C113.604 128.758 113.408 129.776 113.015 130.614C112.622 131.452 112.087 132.091 111.409 132.531C110.732 132.972 109.965 133.192 109.108 133.192C108.483 133.192 107.965 133.088 107.553 132.879C107.141 132.671 106.81 132.42 106.559 132.126C106.312 131.828 106.121 131.546 105.983 131.281H105.834V133H103.306ZM105.827 127.545C105.827 128.251 105.926 128.869 106.125 129.399C106.329 129.929 106.62 130.344 106.999 130.642C107.382 130.936 107.846 131.082 108.391 131.082C108.959 131.082 109.435 130.931 109.819 130.628C110.202 130.32 110.491 129.901 110.685 129.371C110.884 128.836 110.983 128.227 110.983 127.545C110.983 126.868 110.886 126.267 110.692 125.741C110.498 125.216 110.209 124.804 109.826 124.506C109.442 124.207 108.964 124.058 108.391 124.058C107.842 124.058 107.375 124.203 106.992 124.491C106.608 124.78 106.317 125.185 106.118 125.706C105.924 126.227 105.827 126.84 105.827 127.545ZM120.548 133.213C119.483 133.213 118.56 132.979 117.778 132.51C116.997 132.041 116.391 131.385 115.96 130.543C115.534 129.7 115.321 128.715 115.321 127.588C115.321 126.461 115.534 125.474 115.96 124.626C116.391 123.779 116.997 123.121 117.778 122.652C118.56 122.183 119.483 121.949 120.548 121.949C121.614 121.949 122.537 122.183 123.318 122.652C124.099 123.121 124.703 123.779 125.129 124.626C125.56 125.474 125.776 126.461 125.776 127.588C125.776 128.715 125.56 129.7 125.129 130.543C124.703 131.385 124.099 132.041 123.318 132.51C122.537 132.979 121.614 133.213 120.548 133.213ZM120.562 131.153C121.14 131.153 121.623 130.995 122.011 130.678C122.4 130.356 122.688 129.925 122.878 129.385C123.072 128.845 123.169 128.244 123.169 127.581C123.169 126.913 123.072 126.31 122.878 125.77C122.688 125.225 122.4 124.792 122.011 124.47C121.623 124.148 121.14 123.987 120.562 123.987C119.971 123.987 119.478 124.148 119.085 124.47C118.697 124.792 118.406 125.225 118.212 125.77C118.022 126.31 117.928 126.913 117.928 127.581C117.928 128.244 118.022 128.845 118.212 129.385C118.406 129.925 118.697 130.356 119.085 130.678C119.478 130.995 119.971 131.153 120.562 131.153ZM133.405 122.091V124.08H127.134V122.091H133.405ZM128.682 119.477H131.253V129.719C131.253 130.064 131.305 130.33 131.409 130.514C131.518 130.694 131.66 130.817 131.836 130.884C132.011 130.95 132.205 130.983 132.418 130.983C132.579 130.983 132.726 130.971 132.858 130.947C132.996 130.924 133.1 130.902 133.171 130.884L133.604 132.893C133.467 132.941 133.27 132.993 133.015 133.05C132.764 133.107 132.456 133.14 132.091 133.149C131.447 133.168 130.867 133.071 130.351 132.858C129.835 132.64 129.426 132.304 129.123 131.849C128.824 131.395 128.677 130.827 128.682 130.145V119.477ZM140.197 133.213C139.131 133.213 138.208 132.979 137.427 132.51C136.646 132.041 136.04 131.385 135.609 130.543C135.183 129.7 134.969 128.715 134.969 127.588C134.969 126.461 135.183 125.474 135.609 124.626C136.04 123.779 136.646 123.121 137.427 122.652C138.208 122.183 139.131 121.949 140.197 121.949C141.262 121.949 142.185 122.183 142.967 122.652C143.748 123.121 144.352 123.779 144.778 124.626C145.209 125.474 145.424 126.461 145.424 127.588C145.424 128.715 145.209 129.7 144.778 130.543C144.352 131.385 143.748 132.041 142.967 132.51C142.185 132.979 141.262 133.213 140.197 133.213ZM140.211 131.153C140.789 131.153 141.272 130.995 141.66 130.678C142.048 130.356 142.337 129.925 142.526 129.385C142.72 128.845 142.817 128.244 142.817 127.581C142.817 126.913 142.72 126.31 142.526 125.77C142.337 125.225 142.048 124.792 141.66 124.47C141.272 124.148 140.789 123.987 140.211 123.987C139.619 123.987 139.127 124.148 138.734 124.47C138.345 124.792 138.054 125.225 137.86 125.77C137.671 126.31 137.576 126.913 137.576 127.581C137.576 128.244 137.671 128.845 137.86 129.385C138.054 129.925 138.345 130.356 138.734 130.678C139.127 130.995 139.619 131.153 140.211 131.153ZM150.177 126.608V133H147.606V122.091H150.064V123.945H150.191C150.442 123.334 150.842 122.848 151.392 122.489C151.946 122.129 152.63 121.949 153.444 121.949C154.197 121.949 154.853 122.11 155.412 122.432C155.975 122.754 156.411 123.22 156.718 123.831C157.031 124.442 157.185 125.183 157.18 126.054V133H154.609V126.452C154.609 125.723 154.42 125.152 154.041 124.74C153.667 124.328 153.148 124.122 152.485 124.122C152.036 124.122 151.636 124.222 151.285 124.42C150.94 124.615 150.667 124.896 150.468 125.266C150.274 125.635 150.177 126.082 150.177 126.608ZM164.623 133.213C163.529 133.213 162.585 132.986 161.789 132.531C160.999 132.072 160.39 131.423 159.964 130.585C159.538 129.742 159.325 128.75 159.325 127.609C159.325 126.487 159.538 125.502 159.964 124.655C160.395 123.803 160.996 123.14 161.768 122.666C162.54 122.188 163.447 121.949 164.488 121.949C165.161 121.949 165.795 122.058 166.392 122.276C166.993 122.489 167.523 122.82 167.983 123.27C168.447 123.72 168.811 124.293 169.076 124.989C169.342 125.68 169.474 126.504 169.474 127.46V128.249H160.532V126.516H167.01C167.005 126.023 166.898 125.585 166.69 125.202C166.482 124.813 166.19 124.508 165.816 124.286C165.447 124.063 165.016 123.952 164.524 123.952C163.998 123.952 163.537 124.08 163.139 124.335C162.741 124.586 162.431 124.918 162.208 125.33C161.991 125.737 161.879 126.184 161.875 126.672V128.185C161.875 128.819 161.991 129.364 162.223 129.818C162.455 130.268 162.779 130.614 163.196 130.855C163.612 131.092 164.1 131.21 164.659 131.21C165.033 131.21 165.371 131.158 165.674 131.054C165.977 130.945 166.24 130.786 166.463 130.578C166.685 130.37 166.853 130.112 166.967 129.804L169.368 130.074C169.216 130.708 168.927 131.262 168.501 131.736C168.08 132.205 167.54 132.569 166.882 132.83C166.224 133.085 165.471 133.213 164.623 133.213ZM180.271 124.974L177.928 125.23C177.861 124.993 177.745 124.771 177.58 124.562C177.419 124.354 177.201 124.186 176.926 124.058C176.652 123.93 176.315 123.866 175.918 123.866C175.383 123.866 174.933 123.982 174.568 124.214C174.208 124.446 174.031 124.747 174.036 125.116C174.031 125.434 174.147 125.692 174.384 125.891C174.625 126.089 175.023 126.253 175.577 126.381L177.438 126.778C178.47 127.001 179.237 127.354 179.739 127.837C180.245 128.32 180.501 128.952 180.506 129.733C180.501 130.42 180.3 131.026 179.902 131.551C179.509 132.072 178.962 132.479 178.261 132.773C177.561 133.066 176.756 133.213 175.847 133.213C174.511 133.213 173.437 132.934 172.622 132.375C171.808 131.812 171.322 131.028 171.166 130.024L173.673 129.783C173.787 130.275 174.028 130.647 174.398 130.898C174.767 131.149 175.248 131.274 175.839 131.274C176.45 131.274 176.94 131.149 177.31 130.898C177.684 130.647 177.871 130.337 177.871 129.967C177.871 129.655 177.75 129.397 177.509 129.193C177.272 128.99 176.902 128.833 176.401 128.724L174.54 128.334C173.493 128.116 172.719 127.749 172.217 127.233C171.715 126.712 171.467 126.054 171.472 125.259C171.467 124.586 171.649 124.004 172.018 123.511C172.393 123.014 172.911 122.631 173.574 122.361C174.241 122.086 175.011 121.949 175.882 121.949C177.161 121.949 178.167 122.221 178.901 122.766C179.639 123.31 180.096 124.046 180.271 124.974ZM191.635 133.192C190.778 133.192 190.011 132.972 189.334 132.531C188.657 132.091 188.122 131.452 187.729 130.614C187.336 129.776 187.139 128.758 187.139 127.56C187.139 126.348 187.338 125.325 187.736 124.491C188.138 123.653 188.68 123.021 189.362 122.595C190.044 122.164 190.804 121.949 191.642 121.949C192.281 121.949 192.807 122.058 193.219 122.276C193.631 122.489 193.957 122.747 194.199 123.05C194.44 123.348 194.627 123.63 194.76 123.895H194.866V118.455H197.445V133H194.916V131.281H194.76C194.627 131.546 194.436 131.828 194.185 132.126C193.934 132.42 193.602 132.671 193.19 132.879C192.778 133.088 192.26 133.192 191.635 133.192ZM192.352 131.082C192.897 131.082 193.361 130.936 193.744 130.642C194.128 130.344 194.419 129.929 194.618 129.399C194.817 128.869 194.916 128.251 194.916 127.545C194.916 126.84 194.817 126.227 194.618 125.706C194.424 125.185 194.135 124.78 193.751 124.491C193.373 124.203 192.906 124.058 192.352 124.058C191.779 124.058 191.301 124.207 190.918 124.506C190.534 124.804 190.245 125.216 190.051 125.741C189.857 126.267 189.76 126.868 189.76 127.545C189.76 128.227 189.857 128.836 190.051 129.371C190.25 129.901 190.541 130.32 190.925 130.628C191.313 130.931 191.789 131.082 192.352 131.082ZM205.014 133.213C203.92 133.213 202.975 132.986 202.18 132.531C201.389 132.072 200.781 131.423 200.355 130.585C199.929 129.742 199.716 128.75 199.716 127.609C199.716 126.487 199.929 125.502 200.355 124.655C200.786 123.803 201.387 123.14 202.159 122.666C202.931 122.188 203.837 121.949 204.879 121.949C205.551 121.949 206.186 122.058 206.782 122.276C207.384 122.489 207.914 122.82 208.373 123.27C208.837 123.72 209.202 124.293 209.467 124.989C209.732 125.68 209.865 126.504 209.865 127.46V128.249H200.923V126.516H207.4C207.395 126.023 207.289 125.585 207.081 125.202C206.872 124.813 206.581 124.508 206.207 124.286C205.838 124.063 205.407 123.952 204.914 123.952C204.389 123.952 203.927 124.08 203.529 124.335C203.132 124.586 202.822 124.918 202.599 125.33C202.381 125.737 202.27 126.184 202.265 126.672V128.185C202.265 128.819 202.381 129.364 202.613 129.818C202.845 130.268 203.17 130.614 203.586 130.855C204.003 131.092 204.491 131.21 205.049 131.21C205.423 131.21 205.762 131.158 206.065 131.054C206.368 130.945 206.631 130.786 206.853 130.578C207.076 130.37 207.244 130.112 207.358 129.804L209.758 130.074C209.607 130.708 209.318 131.262 208.892 131.736C208.47 132.205 207.931 132.569 207.272 132.83C206.614 133.085 205.861 133.213 205.014 133.213ZM219.572 118.455V133H217.001V118.455H219.572ZM225.355 133.22C224.663 133.22 224.041 133.097 223.487 132.851C222.938 132.6 222.502 132.231 222.18 131.743C221.863 131.255 221.704 130.654 221.704 129.939C221.704 129.323 221.818 128.814 222.045 128.412C222.272 128.009 222.583 127.688 222.975 127.446C223.368 127.205 223.811 127.022 224.304 126.899C224.801 126.771 225.315 126.679 225.845 126.622C226.484 126.556 227.002 126.497 227.4 126.445C227.798 126.388 228.087 126.303 228.267 126.189C228.451 126.071 228.544 125.888 228.544 125.642V125.599C228.544 125.064 228.385 124.65 228.068 124.357C227.751 124.063 227.294 123.916 226.697 123.916C226.067 123.916 225.568 124.054 225.199 124.328C224.834 124.603 224.588 124.927 224.46 125.301L222.059 124.96C222.249 124.297 222.561 123.743 222.997 123.298C223.432 122.848 223.965 122.512 224.595 122.29C225.225 122.062 225.921 121.949 226.683 121.949C227.208 121.949 227.732 122.01 228.252 122.134C228.773 122.257 229.249 122.46 229.68 122.744C230.111 123.024 230.457 123.405 230.717 123.888C230.982 124.371 231.115 124.974 231.115 125.699V133H228.643V131.501H228.558C228.402 131.804 228.181 132.089 227.897 132.354C227.618 132.614 227.265 132.825 226.839 132.986C226.418 133.142 225.923 133.22 225.355 133.22ZM226.022 131.331C226.538 131.331 226.986 131.229 227.365 131.026C227.743 130.817 228.035 130.543 228.238 130.202C228.447 129.861 228.551 129.489 228.551 129.087V127.801C228.47 127.867 228.333 127.929 228.139 127.986C227.949 128.043 227.736 128.092 227.5 128.135C227.263 128.178 227.029 128.215 226.797 128.249C226.565 128.282 226.363 128.31 226.193 128.334C225.809 128.386 225.466 128.471 225.163 128.589C224.86 128.708 224.621 128.874 224.446 129.087C224.27 129.295 224.183 129.565 224.183 129.896C224.183 130.37 224.356 130.727 224.701 130.969C225.047 131.21 225.487 131.331 226.022 131.331ZM238.661 137.091V122.091H241.189V123.895H241.338C241.471 123.63 241.658 123.348 241.9 123.05C242.141 122.747 242.468 122.489 242.88 122.276C243.292 122.058 243.817 121.949 244.456 121.949C245.299 121.949 246.059 122.164 246.736 122.595C247.418 123.021 247.958 123.653 248.355 124.491C248.758 125.325 248.959 126.348 248.959 127.56C248.959 128.758 248.763 129.776 248.37 130.614C247.977 131.452 247.442 132.091 246.765 132.531C246.087 132.972 245.32 133.192 244.463 133.192C243.838 133.192 243.32 133.088 242.908 132.879C242.496 132.671 242.165 132.42 241.914 132.126C241.667 131.828 241.476 131.546 241.338 131.281H241.232V137.091H238.661ZM241.182 127.545C241.182 128.251 241.282 128.869 241.48 129.399C241.684 129.929 241.975 130.344 242.354 130.642C242.738 130.936 243.202 131.082 243.746 131.082C244.314 131.082 244.79 130.931 245.174 130.628C245.557 130.32 245.846 129.901 246.04 129.371C246.239 128.836 246.338 128.227 246.338 127.545C246.338 126.868 246.241 126.267 246.047 125.741C245.853 125.216 245.564 124.804 245.181 124.506C244.797 124.207 244.319 124.058 243.746 124.058C243.197 124.058 242.73 124.203 242.347 124.491C241.963 124.78 241.672 125.185 241.473 125.706C241.279 126.227 241.182 126.84 241.182 127.545ZM254.3 133.22C253.609 133.22 252.986 133.097 252.432 132.851C251.883 132.6 251.447 132.231 251.125 131.743C250.808 131.255 250.65 130.654 250.65 129.939C250.65 129.323 250.763 128.814 250.99 128.412C251.218 128.009 251.528 127.688 251.921 127.446C252.314 127.205 252.757 127.022 253.249 126.899C253.746 126.771 254.26 126.679 254.79 126.622C255.429 126.556 255.948 126.497 256.346 126.445C256.743 126.388 257.032 126.303 257.212 126.189C257.397 126.071 257.489 125.888 257.489 125.642V125.599C257.489 125.064 257.33 124.65 257.013 124.357C256.696 124.063 256.239 123.916 255.642 123.916C255.013 123.916 254.513 124.054 254.144 124.328C253.779 124.603 253.533 124.927 253.405 125.301L251.005 124.96C251.194 124.297 251.507 123.743 251.942 123.298C252.378 122.848 252.91 122.512 253.54 122.29C254.17 122.062 254.866 121.949 255.628 121.949C256.154 121.949 256.677 122.01 257.198 122.134C257.719 122.257 258.194 122.46 258.625 122.744C259.056 123.024 259.402 123.405 259.662 123.888C259.927 124.371 260.06 124.974 260.06 125.699V133H257.588V131.501H257.503C257.347 131.804 257.127 132.089 256.843 132.354C256.563 132.614 256.211 132.825 255.784 132.986C255.363 133.142 254.868 133.22 254.3 133.22ZM254.968 131.331C255.484 131.331 255.931 131.229 256.31 131.026C256.689 130.817 256.98 130.543 257.184 130.202C257.392 129.861 257.496 129.489 257.496 129.087V127.801C257.416 127.867 257.278 127.929 257.084 127.986C256.895 128.043 256.682 128.092 256.445 128.135C256.208 128.178 255.974 128.215 255.742 128.249C255.51 128.282 255.309 128.31 255.138 128.334C254.755 128.386 254.411 128.471 254.108 128.589C253.805 128.708 253.566 128.874 253.391 129.087C253.216 129.295 253.128 129.565 253.128 129.896C253.128 130.37 253.301 130.727 253.647 130.969C253.992 131.21 254.433 131.331 254.968 131.331ZM262.645 133V122.091H265.138V123.909H265.252C265.451 123.279 265.792 122.794 266.275 122.453C266.762 122.107 267.319 121.935 267.944 121.935C268.086 121.935 268.244 121.942 268.419 121.956C268.599 121.965 268.748 121.982 268.867 122.006V124.371C268.758 124.333 268.585 124.3 268.348 124.271C268.116 124.238 267.891 124.222 267.674 124.222C267.205 124.222 266.783 124.323 266.409 124.527C266.04 124.726 265.749 125.003 265.536 125.358C265.323 125.713 265.216 126.123 265.216 126.587V133H262.645ZM276.608 122.091V124.08H270.337V122.091H276.608ZM271.885 119.477H274.456V129.719C274.456 130.064 274.508 130.33 274.613 130.514C274.721 130.694 274.864 130.817 275.039 130.884C275.214 130.95 275.408 130.983 275.621 130.983C275.782 130.983 275.929 130.971 276.061 130.947C276.199 130.924 276.303 130.902 276.374 130.884L276.807 132.893C276.67 132.941 276.473 132.993 276.218 133.05C275.967 133.107 275.659 133.14 275.294 133.149C274.65 133.168 274.07 133.071 273.554 132.858C273.038 132.64 272.629 132.304 272.326 131.849C272.027 131.395 271.881 130.827 271.885 130.145V119.477ZM283.471 133.213C282.377 133.213 281.433 132.986 280.637 132.531C279.846 132.072 279.238 131.423 278.812 130.585C278.386 129.742 278.173 128.75 278.173 127.609C278.173 126.487 278.386 125.502 278.812 124.655C279.243 123.803 279.844 123.14 280.616 122.666C281.388 122.188 282.294 121.949 283.336 121.949C284.008 121.949 284.643 122.058 285.239 122.276C285.841 122.489 286.371 122.82 286.83 123.27C287.294 123.72 287.659 124.293 287.924 124.989C288.189 125.68 288.322 126.504 288.322 127.46V128.249H279.38V126.516H285.857C285.853 126.023 285.746 125.585 285.538 125.202C285.329 124.813 285.038 124.508 284.664 124.286C284.295 124.063 283.864 123.952 283.371 123.952C282.846 123.952 282.384 124.08 281.987 124.335C281.589 124.586 281.279 124.918 281.056 125.33C280.838 125.737 280.727 126.184 280.722 126.672V128.185C280.722 128.819 280.838 129.364 281.07 129.818C281.302 130.268 281.627 130.614 282.043 130.855C282.46 131.092 282.948 131.21 283.506 131.21C283.88 131.21 284.219 131.158 284.522 131.054C284.825 130.945 285.088 130.786 285.31 130.578C285.533 130.37 285.701 130.112 285.815 129.804L288.215 130.074C288.064 130.708 287.775 131.262 287.349 131.736C286.927 132.205 286.388 132.569 285.729 132.83C285.071 133.085 284.318 133.213 283.471 133.213ZM295.458 133V122.091H298.029V133H295.458ZM296.75 120.543C296.343 120.543 295.993 120.408 295.699 120.138C295.406 119.863 295.259 119.534 295.259 119.151C295.259 118.762 295.406 118.433 295.699 118.163C295.993 117.889 296.343 117.751 296.75 117.751C297.162 117.751 297.513 117.889 297.801 118.163C298.095 118.433 298.242 118.762 298.242 119.151C298.242 119.534 298.095 119.863 297.801 120.138C297.513 120.408 297.162 120.543 296.75 120.543ZM303.244 126.608V133H300.673V122.091H303.13V123.945H303.258C303.509 123.334 303.909 122.848 304.458 122.489C305.012 122.129 305.696 121.949 306.511 121.949C307.263 121.949 307.919 122.11 308.478 122.432C309.041 122.754 309.477 123.22 309.785 123.831C310.097 124.442 310.251 125.183 310.246 126.054V133H307.675V126.452C307.675 125.723 307.486 125.152 307.107 124.74C306.733 124.328 306.215 124.122 305.552 124.122C305.102 124.122 304.702 124.222 304.352 124.42C304.006 124.615 303.734 124.896 303.535 125.266C303.341 125.635 303.244 126.082 303.244 126.608ZM318.386 122.091V124.08H311.937V122.091H318.386ZM313.549 133V121.061C313.549 120.327 313.701 119.716 314.004 119.229C314.311 118.741 314.723 118.376 315.239 118.135C315.755 117.893 316.328 117.773 316.958 117.773C317.403 117.773 317.799 117.808 318.144 117.879C318.49 117.95 318.746 118.014 318.911 118.071L318.4 120.06C318.291 120.027 318.154 119.993 317.988 119.96C317.822 119.922 317.638 119.903 317.434 119.903C316.956 119.903 316.617 120.019 316.418 120.251C316.224 120.479 316.127 120.805 316.127 121.232V133H313.549ZM324.819 133.213C323.725 133.213 322.78 132.986 321.985 132.531C321.194 132.072 320.586 131.423 320.159 130.585C319.733 129.742 319.52 128.75 319.52 127.609C319.52 126.487 319.733 125.502 320.159 124.655C320.59 123.803 321.192 123.14 321.963 122.666C322.735 122.188 323.642 121.949 324.684 121.949C325.356 121.949 325.99 122.058 326.587 122.276C327.188 122.489 327.719 122.82 328.178 123.27C328.642 123.72 329.007 124.293 329.272 124.989C329.537 125.68 329.669 126.504 329.669 127.46V128.249H320.728V126.516H327.205C327.2 126.023 327.094 125.585 326.885 125.202C326.677 124.813 326.386 124.508 326.012 124.286C325.642 124.063 325.212 123.952 324.719 123.952C324.194 123.952 323.732 124.08 323.334 124.335C322.936 124.586 322.626 124.918 322.404 125.33C322.186 125.737 322.075 126.184 322.07 126.672V128.185C322.07 128.819 322.186 129.364 322.418 129.818C322.65 130.268 322.974 130.614 323.391 130.855C323.808 131.092 324.295 131.21 324.854 131.21C325.228 131.21 325.567 131.158 325.87 131.054C326.173 130.945 326.435 130.786 326.658 130.578C326.881 130.37 327.049 130.112 327.162 129.804L329.563 130.074C329.411 130.708 329.123 131.262 328.696 131.736C328.275 132.205 327.735 132.569 327.077 132.83C326.419 133.085 325.666 133.213 324.819 133.213ZM331.844 133V122.091H334.337V123.909H334.451C334.65 123.279 334.991 122.794 335.474 122.453C335.961 122.107 336.518 121.935 337.143 121.935C337.285 121.935 337.443 121.942 337.619 121.956C337.799 121.965 337.948 121.982 338.066 122.006V124.371C337.957 124.333 337.784 124.3 337.548 124.271C337.316 124.238 337.091 124.222 336.873 124.222C336.404 124.222 335.983 124.323 335.609 124.527C335.239 124.726 334.948 125.003 334.735 125.358C334.522 125.713 334.415 126.123 334.415 126.587V133H331.844ZM339.774 133V122.091H342.345V133H339.774ZM341.067 120.543C340.66 120.543 340.309 120.408 340.016 120.138C339.722 119.863 339.575 119.534 339.575 119.151C339.575 118.762 339.722 118.433 340.016 118.163C340.309 117.889 340.66 117.751 341.067 117.751C341.479 117.751 341.829 117.889 342.118 118.163C342.411 118.433 342.558 118.762 342.558 119.151C342.558 119.534 342.411 119.863 342.118 120.138C341.829 120.408 341.479 120.543 341.067 120.543ZM349.748 133.213C348.682 133.213 347.759 132.979 346.978 132.51C346.196 132.041 345.59 131.385 345.159 130.543C344.733 129.7 344.52 128.715 344.52 127.588C344.52 126.461 344.733 125.474 345.159 124.626C345.59 123.779 346.196 123.121 346.978 122.652C347.759 122.183 348.682 121.949 349.748 121.949C350.813 121.949 351.736 122.183 352.517 122.652C353.299 123.121 353.902 123.779 354.328 124.626C354.759 125.474 354.975 126.461 354.975 127.588C354.975 128.715 354.759 129.7 354.328 130.543C353.902 131.385 353.299 132.041 352.517 132.51C351.736 132.979 350.813 133.213 349.748 133.213ZM349.762 131.153C350.339 131.153 350.822 130.995 351.211 130.678C351.599 130.356 351.888 129.925 352.077 129.385C352.271 128.845 352.368 128.244 352.368 127.581C352.368 126.913 352.271 126.31 352.077 125.77C351.888 125.225 351.599 124.792 351.211 124.47C350.822 124.148 350.339 123.987 349.762 123.987C349.17 123.987 348.677 124.148 348.284 124.47C347.896 124.792 347.605 125.225 347.411 125.77C347.221 126.31 347.127 126.913 347.127 127.581C347.127 128.244 347.221 128.845 347.411 129.385C347.605 129.925 347.896 130.356 348.284 130.678C348.677 130.995 349.17 131.153 349.762 131.153ZM357.157 133V122.091H359.65V123.909H359.763C359.962 123.279 360.303 122.794 360.786 122.453C361.274 122.107 361.83 121.935 362.455 121.935C362.597 121.935 362.756 121.942 362.931 121.956C363.111 121.965 363.26 121.982 363.379 122.006V124.371C363.27 124.333 363.097 124.3 362.86 124.271C362.628 124.238 362.403 124.222 362.185 124.222C361.717 124.222 361.295 124.323 360.921 124.527C360.552 124.726 360.261 125.003 360.048 125.358C359.835 125.713 359.728 126.123 359.728 126.587V133H357.157Z" fill="black"/>
</svg>
