<svg id="svg" version="1.1" xmlns="http://www.w3.org/2000/svg" xmlns:xlink="http://www.w3.org/1999/xlink" width="400" height="400" viewBox="0, 0, 400,400"><g id="svgg"><path id="path0" d="M185.800 0.274 C 184.480 0.368,183.229 0.614,183.020 0.822 C 182.811 1.030,181.866 1.200,180.920 1.200 C 179.974 1.200,179.200 1.380,179.200 1.600 C 179.200 1.820,178.581 2.000,177.824 2.000 C 177.067 2.000,176.336 2.180,176.200 2.400 C 176.064 2.620,175.333 2.800,174.576 2.800 C 173.819 2.800,173.200 2.980,173.200 3.200 C 173.200 3.420,172.660 3.600,172.000 3.600 C 171.340 3.600,170.800 3.780,170.800 4.000 C 170.800 4.220,170.350 4.400,169.800 4.400 C 169.250 4.400,168.800 4.580,168.800 4.800 C 168.800 5.020,168.350 5.200,167.800 5.200 C 167.250 5.200,166.800 5.380,166.800 5.600 C 166.800 5.820,166.361 6.000,165.824 6.000 C 165.287 6.000,164.736 6.180,164.600 6.400 C 164.464 6.620,164.003 6.800,163.576 6.800 C 163.149 6.800,162.800 6.980,162.800 7.200 C 162.800 7.420,162.440 7.600,162.000 7.600 C 161.560 7.600,161.200 7.780,161.200 8.000 C 161.200 8.220,160.969 8.400,160.687 8.400 C 160.032 8.400,154.644 11.233,154.467 11.671 C 154.393 11.852,154.028 12.000,153.655 12.000 C 153.282 12.000,152.717 12.360,152.400 12.800 C 152.083 13.240,151.503 13.600,151.112 13.600 C 150.720 13.600,150.400 13.750,150.400 13.932 C 150.400 14.115,149.905 14.519,149.300 14.830 C 148.695 15.140,147.909 15.711,147.553 16.097 C 147.197 16.484,146.794 16.800,146.658 16.800 C 146.371 16.800,145.110 17.803,143.768 19.100 C 143.256 19.595,142.735 20.000,142.611 20.000 C 142.487 20.000,141.239 21.125,139.839 22.500 C 138.438 23.875,136.408 25.810,135.326 26.800 C 134.245 27.790,132.922 29.230,132.387 30.000 C 131.851 30.770,130.825 31.991,130.107 32.713 C 129.388 33.436,128.800 34.173,128.800 34.351 C 128.800 34.530,128.350 35.199,127.800 35.838 C 127.251 36.477,126.801 37.225,126.800 37.500 C 126.800 37.775,126.647 38.000,126.461 38.000 C 126.274 38.000,125.797 38.720,125.400 39.600 C 125.003 40.480,124.559 41.200,124.414 41.200 C 124.268 41.200,123.902 41.830,123.600 42.600 C 123.298 43.370,122.904 44.000,122.725 44.000 C 122.546 44.000,122.400 44.270,122.400 44.600 C 122.400 44.930,122.254 45.200,122.075 45.200 C 121.896 45.200,121.502 45.830,121.200 46.600 C 120.898 47.370,120.504 48.000,120.325 48.000 C 120.146 48.000,120.000 48.360,120.000 48.800 C 120.000 49.240,119.820 49.600,119.600 49.600 C 119.380 49.600,119.200 50.140,119.200 50.800 C 119.200 51.460,119.020 52.000,118.800 52.000 C 118.580 52.000,118.400 52.283,118.400 52.629 C 118.400 53.996,117.357 54.400,113.829 54.400 C 111.810 54.400,110.400 54.236,110.400 54.000 C 110.400 53.780,109.950 53.600,109.400 53.600 C 108.850 53.600,108.400 53.780,108.400 54.000 C 108.400 54.246,106.408 54.400,103.224 54.400 C 100.204 54.400,97.944 54.567,97.800 54.800 C 97.664 55.020,96.674 55.200,95.600 55.200 C 94.526 55.200,93.536 55.380,93.400 55.600 C 93.264 55.820,92.353 56.000,91.376 56.000 C 90.399 56.000,89.600 56.180,89.600 56.400 C 89.600 56.620,89.060 56.800,88.400 56.800 C 87.740 56.800,87.200 56.980,87.200 57.200 C 87.200 57.420,86.660 57.600,86.000 57.600 C 85.340 57.600,84.800 57.780,84.800 58.000 C 84.800 58.220,84.373 58.400,83.850 58.400 C 82.088 58.400,72.842 62.360,72.467 63.275 C 72.393 63.454,71.988 63.600,71.567 63.600 C 71.145 63.600,70.800 63.780,70.800 64.000 C 70.800 64.220,70.522 64.400,70.183 64.400 C 69.844 64.400,69.180 64.760,68.708 65.200 C 68.236 65.640,67.613 66.000,67.325 66.000 C 67.036 66.000,66.800 66.180,66.800 66.400 C 66.800 66.620,66.530 66.800,66.200 66.800 C 65.870 66.800,65.600 66.980,65.600 67.200 C 65.600 67.420,65.370 67.600,65.088 67.600 C 64.807 67.600,64.317 67.960,64.000 68.400 C 63.683 68.840,63.215 69.200,62.960 69.200 C 62.705 69.200,61.755 69.920,60.848 70.800 C 59.941 71.680,59.105 72.400,58.989 72.400 C 58.873 72.400,57.999 73.165,57.045 74.100 C 56.091 75.035,54.601 76.430,53.734 77.200 C 52.866 77.970,51.717 79.230,51.180 80.000 C 50.643 80.770,49.528 82.097,48.702 82.948 C 47.876 83.800,47.200 84.705,47.200 84.960 C 47.200 85.215,46.840 85.683,46.400 86.000 C 45.960 86.317,45.600 86.857,45.600 87.200 C 45.600 87.543,45.240 88.083,44.800 88.400 C 44.360 88.717,44.000 89.282,44.000 89.655 C 44.000 90.028,43.856 90.393,43.680 90.467 C 43.222 90.657,41.200 94.394,41.200 95.050 C 41.200 95.353,41.020 95.600,40.800 95.600 C 40.580 95.600,40.400 95.960,40.400 96.400 C 40.400 96.840,40.220 97.200,40.000 97.200 C 39.780 97.200,39.600 97.560,39.600 98.000 C 39.600 98.440,39.420 98.800,39.200 98.800 C 38.980 98.800,38.800 99.160,38.800 99.600 C 38.800 100.040,38.620 100.400,38.400 100.400 C 38.180 100.400,38.000 100.940,38.000 101.600 C 38.000 102.260,37.820 102.800,37.600 102.800 C 37.380 102.800,37.200 103.160,37.200 103.600 C 37.200 104.040,37.020 104.400,36.800 104.400 C 36.580 104.400,36.400 104.940,36.400 105.600 C 36.400 106.260,36.220 106.800,36.000 106.800 C 35.780 106.800,35.600 107.430,35.600 108.200 C 35.600 108.970,35.420 109.600,35.200 109.600 C 34.980 109.600,34.800 110.219,34.800 110.976 C 34.800 111.733,34.620 112.464,34.400 112.600 C 34.180 112.736,34.000 113.557,34.000 114.424 C 34.000 115.291,33.820 116.000,33.600 116.000 C 33.375 116.000,33.200 117.125,33.200 118.576 C 33.200 119.993,33.020 121.264,32.800 121.400 C 32.258 121.735,32.258 139.865,32.800 140.200 C 33.020 140.336,33.200 141.607,33.200 143.024 C 33.200 144.475,33.375 145.600,33.600 145.600 C 33.820 145.600,34.000 146.399,34.000 147.376 C 34.000 148.353,34.180 149.264,34.400 149.400 C 35.261 149.932,34.376 152.000,33.288 152.000 C 33.085 152.000,32.354 152.540,31.663 153.200 C 30.972 153.860,30.222 154.400,29.995 154.400 C 29.768 154.400,28.619 155.345,27.442 156.500 C 26.265 157.655,24.653 159.140,23.860 159.800 C 23.066 160.460,22.413 161.134,22.409 161.298 C 22.404 161.462,21.500 162.515,20.400 163.639 C 19.300 164.762,18.400 165.893,18.400 166.152 C 18.400 166.411,18.040 166.883,17.600 167.200 C 17.160 167.517,16.800 167.973,16.800 168.213 C 16.800 168.453,16.485 168.998,16.100 169.425 C 15.715 169.851,15.145 170.695,14.832 171.300 C 14.520 171.905,14.115 172.400,13.932 172.400 C 13.750 172.400,13.600 172.760,13.600 173.200 C 13.600 173.640,13.420 174.000,13.200 174.000 C 12.980 174.000,12.800 174.345,12.800 174.767 C 12.800 175.188,12.658 175.593,12.485 175.667 C 11.578 176.051,8.400 184.286,8.400 186.252 C 8.400 186.773,8.220 187.200,8.000 187.200 C 7.780 187.200,7.600 187.920,7.600 188.800 C 7.600 189.680,7.420 190.400,7.200 190.400 C 6.980 190.400,6.800 191.289,6.800 192.376 C 6.800 193.463,6.620 194.464,6.400 194.600 C 5.854 194.937,5.854 215.200,6.400 215.200 C 6.620 215.200,6.800 216.190,6.800 217.400 C 6.800 218.610,6.980 219.600,7.200 219.600 C 7.420 219.600,7.600 220.219,7.600 220.976 C 7.600 221.733,7.780 222.464,8.000 222.600 C 8.220 222.736,8.400 223.233,8.400 223.704 C 8.400 224.919,9.715 229.200,10.089 229.200 C 10.260 229.200,10.400 229.488,10.400 229.839 C 10.400 230.727,13.603 237.200,14.042 237.200 C 14.239 237.200,14.400 237.560,14.400 238.000 C 14.400 238.440,14.580 238.800,14.800 238.800 C 15.020 238.800,15.200 239.070,15.200 239.400 C 15.200 239.730,15.350 240.000,15.532 240.000 C 15.715 240.000,16.120 240.495,16.432 241.100 C 16.745 241.705,17.495 242.677,18.100 243.260 C 18.705 243.844,19.200 244.502,19.200 244.723 C 19.200 245.794,30.294 256.292,32.700 257.497 C 33.415 257.855,34.000 258.295,34.000 258.474 C 34.000 258.653,34.320 258.800,34.712 258.800 C 35.103 258.800,35.683 259.160,36.000 259.600 C 36.317 260.040,36.897 260.400,37.288 260.400 C 37.680 260.400,38.000 260.580,38.000 260.800 C 38.000 261.020,38.360 261.200,38.800 261.200 C 39.240 261.200,39.600 261.380,39.600 261.600 C 39.600 261.820,39.960 262.000,40.400 262.000 C 40.840 262.000,41.200 262.180,41.200 262.400 C 41.200 262.620,41.560 262.800,42.000 262.800 C 42.440 262.800,42.800 262.980,42.800 263.200 C 42.800 263.420,43.160 263.600,43.600 263.600 C 44.040 263.600,44.400 263.780,44.400 264.000 C 44.400 264.220,44.850 264.400,45.400 264.400 C 45.950 264.400,46.400 264.580,46.400 264.800 C 46.400 265.020,46.940 265.200,47.600 265.200 C 48.260 265.200,48.800 265.380,48.800 265.600 C 48.800 265.820,49.340 266.000,50.000 266.000 C 50.660 266.000,51.200 266.180,51.200 266.400 C 51.200 266.620,51.920 266.800,52.800 266.800 C 53.680 266.800,54.400 266.980,54.400 267.200 C 54.400 267.420,55.109 267.600,55.976 267.600 C 56.843 267.600,57.664 267.780,57.800 268.000 C 57.936 268.220,59.376 268.400,61.000 268.400 C 62.624 268.400,64.064 268.580,64.200 268.800 C 64.352 269.046,67.604 269.200,72.624 269.200 L 80.800 269.200 80.800 284.000 C 80.800 293.600,80.941 298.800,81.200 298.800 C 81.420 298.800,81.600 299.143,81.600 299.562 C 81.600 300.469,83.208 303.600,83.674 303.600 C 83.853 303.600,84.000 303.785,84.000 304.011 C 84.000 304.717,86.409 307.107,87.632 307.613 C 88.275 307.879,88.800 308.255,88.800 308.449 C 88.800 308.642,89.160 308.800,89.600 308.800 C 90.040 308.800,90.400 308.980,90.400 309.200 C 90.400 309.420,90.839 309.600,91.376 309.600 C 91.913 309.600,92.464 309.780,92.600 310.000 C 92.736 310.220,94.507 310.400,96.536 310.400 L 100.225 310.400 100.746 312.300 C 101.266 314.196,101.779 315.581,102.447 316.895 C 102.641 317.277,102.800 317.952,102.800 318.395 C 102.800 318.838,102.980 319.200,103.200 319.200 C 103.420 319.200,103.600 319.639,103.600 320.176 C 103.600 320.713,103.780 321.264,104.000 321.400 C 104.220 321.536,104.400 321.997,104.400 322.424 C 104.400 322.851,104.536 323.200,104.702 323.200 C 104.869 323.200,105.241 323.785,105.529 324.500 C 105.817 325.215,106.322 326.250,106.651 326.800 C 106.980 327.350,107.349 328.115,107.471 328.500 C 107.593 328.885,107.852 329.200,108.047 329.200 C 109.152 329.200,108.245 331.402,106.400 333.200 C 105.300 334.271,104.400 335.430,104.400 335.774 C 104.400 336.118,104.220 336.400,104.000 336.400 C 103.780 336.400,103.600 336.760,103.600 337.200 C 103.600 337.640,103.420 338.000,103.200 338.000 C 102.980 338.000,102.800 338.540,102.800 339.200 C 102.800 339.860,102.620 340.400,102.400 340.400 C 102.157 340.400,102.000 342.200,102.000 345.000 C 102.000 347.800,102.157 349.600,102.400 349.600 C 102.620 349.600,102.800 350.140,102.800 350.800 C 102.800 351.460,102.980 352.000,103.200 352.000 C 103.420 352.000,103.600 352.360,103.600 352.800 C 103.600 353.240,103.780 353.600,104.000 353.600 C 104.220 353.600,104.400 353.848,104.400 354.152 C 104.400 354.455,105.111 355.400,105.980 356.252 C 108.012 358.243,107.281 357.511,116.171 366.459 C 124.629 374.974,126.575 376.800,127.189 376.800 C 127.415 376.800,127.600 376.980,127.600 377.200 C 127.600 377.420,127.960 377.600,128.400 377.600 C 128.840 377.600,129.200 377.780,129.200 378.000 C 129.200 378.220,129.740 378.400,130.400 378.400 C 131.060 378.400,131.600 378.580,131.600 378.800 C 131.600 379.045,133.533 379.200,136.600 379.200 C 139.667 379.200,141.600 379.045,141.600 378.800 C 141.600 378.580,141.853 378.400,142.162 378.400 C 142.895 378.400,145.981 376.797,146.975 375.900 C 147.402 375.515,147.905 375.200,148.094 375.200 C 148.282 375.200,148.886 374.750,149.436 374.200 C 150.665 372.972,150.652 372.972,152.962 374.200 C 153.996 374.750,155.182 375.200,155.598 375.200 C 156.013 375.200,156.464 375.380,156.600 375.600 C 156.736 375.820,157.197 376.000,157.624 376.000 C 158.051 376.000,158.401 376.135,158.403 376.300 C 158.407 376.706,160.386 377.600,161.280 377.600 C 161.676 377.600,162.000 377.780,162.000 378.000 C 162.000 378.220,162.360 378.400,162.800 378.400 C 163.240 378.400,163.600 378.580,163.600 378.800 C 163.600 379.020,164.140 379.200,164.800 379.200 C 165.460 379.200,166.000 379.380,166.000 379.600 C 166.000 379.820,166.540 380.000,167.200 380.000 C 167.860 380.000,168.400 380.180,168.400 380.400 C 168.400 380.620,168.940 380.800,169.600 380.800 L 170.800 380.800 170.800 384.800 C 170.800 387.200,170.960 388.800,171.200 388.800 C 171.420 388.800,171.600 389.250,171.600 389.800 C 171.600 390.350,171.780 390.800,172.000 390.800 C 172.220 390.800,172.400 391.120,172.400 391.512 C 172.400 391.903,172.760 392.483,173.200 392.800 C 173.640 393.117,174.000 393.613,174.000 393.902 C 174.000 394.521,176.588 397.200,177.187 397.200 C 177.414 397.200,177.600 397.350,177.600 397.532 C 177.600 397.715,178.095 398.120,178.700 398.432 C 179.305 398.744,179.928 399.179,180.085 399.399 C 180.477 399.949,219.523 399.949,219.915 399.399 C 220.072 399.179,220.695 398.744,221.300 398.432 C 221.905 398.120,222.400 397.715,222.400 397.532 C 222.400 397.350,222.586 397.200,222.813 397.200 C 223.412 397.200,226.000 394.521,226.000 393.902 C 226.000 393.613,226.360 393.117,226.800 392.800 C 227.240 392.483,227.600 391.903,227.600 391.512 C 227.600 391.120,227.780 390.800,228.000 390.800 C 228.220 390.800,228.400 390.350,228.400 389.800 C 228.400 389.250,228.580 388.800,228.800 388.800 C 229.040 388.800,229.200 387.200,229.200 384.800 L 229.200 380.800 230.400 380.800 C 231.060 380.800,231.600 380.620,231.600 380.400 C 231.600 380.180,232.140 380.000,232.800 380.000 C 233.460 380.000,234.000 379.820,234.000 379.600 C 234.000 379.380,234.439 379.200,234.976 379.200 C 235.513 379.200,236.064 379.020,236.200 378.800 C 236.336 378.580,236.797 378.400,237.224 378.400 C 237.651 378.400,238.000 378.220,238.000 378.000 C 238.000 377.780,238.324 377.600,238.720 377.600 C 239.614 377.600,241.593 376.706,241.597 376.300 C 241.599 376.135,241.960 376.000,242.400 376.000 C 242.840 376.000,243.200 375.820,243.200 375.600 C 243.200 375.380,243.623 375.200,244.140 375.200 C 244.658 375.200,245.927 374.750,246.962 374.200 C 249.326 372.943,249.205 372.931,251.028 374.600 C 251.869 375.370,252.791 376.000,253.078 376.000 C 253.365 376.000,253.600 376.147,253.600 376.326 C 253.600 376.792,256.731 378.400,257.638 378.400 C 258.057 378.400,258.400 378.580,258.400 378.800 C 258.400 379.045,260.333 379.200,263.400 379.200 C 266.467 379.200,268.400 379.045,268.400 378.800 C 268.400 378.580,268.940 378.400,269.600 378.400 C 270.260 378.400,270.800 378.220,270.800 378.000 C 270.800 377.780,271.160 377.600,271.600 377.600 C 272.040 377.600,272.400 377.420,272.400 377.200 C 272.400 376.980,272.585 376.800,272.811 376.800 C 273.425 376.800,275.371 374.974,283.829 366.459 C 292.719 357.511,291.988 358.243,294.020 356.252 C 294.889 355.400,295.600 354.455,295.600 354.152 C 295.600 353.848,295.780 353.600,296.000 353.600 C 296.220 353.600,296.400 353.240,296.400 352.800 C 296.400 352.360,296.580 352.000,296.800 352.000 C 297.020 352.000,297.200 351.471,297.200 350.824 C 297.200 350.177,297.380 349.536,297.600 349.400 C 297.827 349.260,298.000 347.263,298.000 344.776 C 298.000 342.125,297.842 340.400,297.600 340.400 C 297.380 340.400,297.200 339.860,297.200 339.200 C 297.200 338.540,297.020 338.000,296.800 338.000 C 296.580 338.000,296.400 337.640,296.400 337.200 C 296.400 336.760,296.220 336.400,296.000 336.400 C 295.780 336.400,295.600 336.118,295.600 335.774 C 295.600 335.430,294.700 334.271,293.600 333.200 C 291.721 331.370,290.853 329.200,292.000 329.200 C 292.220 329.200,292.400 328.840,292.400 328.400 C 292.400 327.960,292.535 327.599,292.700 327.597 C 293.051 327.593,294.000 325.663,294.000 324.954 C 294.000 324.686,294.135 324.407,294.300 324.333 C 294.799 324.112,296.400 320.778,296.400 319.962 C 296.400 319.543,296.580 319.200,296.800 319.200 C 297.020 319.200,297.200 318.838,297.200 318.395 C 297.200 317.952,297.380 317.232,297.600 316.795 C 297.820 316.358,298.180 315.642,298.400 315.205 C 298.620 314.768,298.800 313.969,298.800 313.429 C 298.800 312.889,298.980 312.336,299.200 312.200 C 299.420 312.064,299.600 311.603,299.600 311.176 C 299.600 310.463,299.905 310.400,303.376 310.400 C 305.463 310.400,307.263 310.221,307.400 310.000 C 307.536 309.780,308.087 309.600,308.624 309.600 C 309.161 309.600,309.600 309.420,309.600 309.200 C 309.600 308.980,309.960 308.800,310.400 308.800 C 310.840 308.800,311.200 308.642,311.200 308.449 C 311.200 308.255,311.725 307.879,312.368 307.613 C 313.591 307.107,316.000 304.717,316.000 304.011 C 316.000 303.785,316.147 303.600,316.326 303.600 C 316.792 303.600,318.400 300.469,318.400 299.562 C 318.400 299.143,318.580 298.800,318.800 298.800 C 319.059 298.800,319.200 293.600,319.200 284.000 L 319.200 269.200 327.376 269.200 C 332.396 269.200,335.648 269.046,335.800 268.800 C 335.936 268.580,337.376 268.400,339.000 268.400 C 340.624 268.400,342.064 268.220,342.200 268.000 C 342.336 267.780,343.157 267.600,344.024 267.600 C 344.891 267.600,345.600 267.420,345.600 267.200 C 345.600 266.980,346.320 266.800,347.200 266.800 C 348.080 266.800,348.800 266.620,348.800 266.400 C 348.800 266.180,349.340 266.000,350.000 266.000 C 350.660 266.000,351.200 265.820,351.200 265.600 C 351.200 265.380,351.740 265.200,352.400 265.200 C 353.060 265.200,353.600 265.020,353.600 264.800 C 353.600 264.580,354.050 264.400,354.600 264.400 C 355.150 264.400,355.600 264.220,355.600 264.000 C 355.600 263.780,355.960 263.600,356.400 263.600 C 356.840 263.600,357.200 263.420,357.200 263.200 C 357.200 262.980,357.560 262.800,358.000 262.800 C 358.440 262.800,358.800 262.620,358.800 262.400 C 358.800 262.180,359.160 262.000,359.600 262.000 C 360.040 262.000,360.400 261.820,360.400 261.600 C 360.400 261.380,360.760 261.200,361.200 261.200 C 361.640 261.200,362.000 261.020,362.000 260.800 C 362.000 260.580,362.320 260.400,362.712 260.400 C 363.103 260.400,363.683 260.040,364.000 259.600 C 364.317 259.160,364.897 258.800,365.288 258.800 C 365.680 258.800,366.000 258.642,366.000 258.449 C 366.000 258.255,366.505 257.888,367.121 257.633 C 367.738 257.377,368.720 256.725,369.304 256.184 C 369.887 255.643,370.521 255.200,370.711 255.200 C 371.177 255.200,380.800 245.190,380.800 244.705 C 380.800 244.494,381.295 243.844,381.900 243.260 C 382.505 242.677,383.255 241.705,383.568 241.100 C 383.880 240.495,384.285 240.000,384.468 240.000 C 384.650 240.000,384.800 239.730,384.800 239.400 C 384.800 239.070,384.980 238.800,385.200 238.800 C 385.420 238.800,385.600 238.440,385.600 238.000 C 385.600 237.560,385.761 237.200,385.958 237.200 C 386.397 237.200,389.600 230.727,389.600 229.839 C 389.600 229.488,389.740 229.200,389.911 229.200 C 390.285 229.200,391.600 224.919,391.600 223.704 C 391.600 223.233,391.780 222.736,392.000 222.600 C 392.220 222.464,392.400 221.744,392.400 221.000 C 392.400 220.256,392.580 219.536,392.800 219.400 C 393.020 219.264,393.200 218.263,393.200 217.176 C 393.200 216.089,393.380 215.200,393.600 215.200 C 393.856 215.200,394.000 211.533,394.000 205.000 C 394.000 198.467,393.856 194.800,393.600 194.800 C 393.380 194.800,393.200 193.810,393.200 192.600 C 393.200 191.390,393.020 190.400,392.800 190.400 C 392.580 190.400,392.400 189.680,392.400 188.800 C 392.400 187.920,392.220 187.200,392.000 187.200 C 391.780 187.200,391.600 186.773,391.600 186.252 C 391.600 184.286,388.422 176.051,387.515 175.667 C 387.342 175.593,387.200 175.188,387.200 174.767 C 387.200 174.345,387.020 174.000,386.800 174.000 C 386.580 174.000,386.400 173.722,386.400 173.383 C 386.400 173.044,386.040 172.380,385.600 171.908 C 385.160 171.436,384.800 170.813,384.800 170.525 C 384.800 170.236,384.620 170.000,384.400 170.000 C 384.180 170.000,384.000 169.757,384.000 169.459 C 384.000 169.162,383.460 168.354,382.800 167.663 C 382.140 166.972,381.600 166.214,381.600 165.978 C 381.600 165.741,380.700 164.671,379.600 163.600 C 378.500 162.529,377.598 161.505,377.596 161.326 C 377.594 161.147,377.029 160.554,376.340 160.010 C 375.651 159.465,374.031 157.980,372.741 156.710 C 371.450 155.439,370.214 154.400,369.994 154.400 C 369.773 154.400,369.028 153.860,368.337 153.200 C 367.646 152.540,366.915 152.000,366.712 152.000 C 365.624 152.000,364.739 149.932,365.600 149.400 C 365.820 149.264,366.000 148.353,366.000 147.376 C 366.000 146.399,366.180 145.600,366.400 145.600 C 366.625 145.600,366.800 144.475,366.800 143.024 C 366.800 141.607,366.980 140.336,367.200 140.200 C 367.448 140.047,367.600 136.463,367.600 130.776 C 367.600 124.925,367.455 121.600,367.200 121.600 C 366.971 121.600,366.800 120.400,366.800 118.800 C 366.800 117.200,366.629 116.000,366.400 116.000 C 366.180 116.000,366.000 115.291,366.000 114.424 C 366.000 113.557,365.820 112.736,365.600 112.600 C 365.380 112.464,365.200 111.834,365.200 111.200 C 365.200 110.566,365.020 109.936,364.800 109.800 C 364.580 109.664,364.400 108.933,364.400 108.176 C 364.400 107.419,364.220 106.800,364.000 106.800 C 363.780 106.800,363.600 106.260,363.600 105.600 C 363.600 104.940,363.420 104.400,363.200 104.400 C 362.980 104.400,362.800 104.040,362.800 103.600 C 362.800 103.160,362.620 102.800,362.400 102.800 C 362.180 102.800,362.000 102.260,362.000 101.600 C 362.000 100.940,361.820 100.400,361.600 100.400 C 361.380 100.400,361.200 100.040,361.200 99.600 C 361.200 99.160,361.020 98.800,360.800 98.800 C 360.580 98.800,360.400 98.440,360.400 98.000 C 360.400 97.560,360.220 97.200,360.000 97.200 C 359.780 97.200,359.600 96.840,359.600 96.400 C 359.600 95.960,359.420 95.600,359.200 95.600 C 358.980 95.600,358.800 95.353,358.800 95.050 C 358.800 94.394,356.778 90.657,356.320 90.467 C 356.144 90.393,356.000 90.028,356.000 89.655 C 356.000 89.282,355.640 88.717,355.200 88.400 C 354.760 88.083,354.400 87.585,354.400 87.294 C 354.400 87.002,353.950 86.314,353.400 85.764 C 352.850 85.214,352.400 84.597,352.400 84.392 C 352.400 84.188,351.590 83.211,350.600 82.221 C 349.610 81.231,348.800 80.244,348.800 80.027 C 348.800 79.810,347.878 78.770,346.751 77.716 C 345.625 76.662,343.919 75.035,342.962 74.100 C 342.004 73.165,341.127 72.400,341.011 72.400 C 340.895 72.400,340.059 71.680,339.152 70.800 C 338.245 69.920,337.295 69.200,337.040 69.200 C 336.785 69.200,336.317 68.840,336.000 68.400 C 335.683 67.960,335.227 67.600,334.987 67.600 C 334.747 67.600,334.202 67.285,333.775 66.900 C 333.349 66.515,332.505 65.945,331.900 65.632 C 331.295 65.320,330.800 64.915,330.800 64.732 C 330.800 64.550,330.440 64.400,330.000 64.400 C 329.560 64.400,329.200 64.220,329.200 64.000 C 329.200 63.780,328.855 63.600,328.433 63.600 C 328.012 63.600,327.607 63.435,327.533 63.232 C 327.290 62.560,318.826 58.788,316.998 58.538 C 316.009 58.402,315.200 58.136,315.200 57.946 C 315.200 57.756,314.660 57.600,314.000 57.600 C 313.340 57.600,312.800 57.420,312.800 57.200 C 312.800 56.980,312.260 56.800,311.600 56.800 C 310.940 56.800,310.400 56.620,310.400 56.400 C 310.400 56.180,309.601 56.000,308.624 56.000 C 307.647 56.000,306.736 55.820,306.600 55.600 C 306.464 55.380,305.474 55.200,304.400 55.200 C 303.326 55.200,302.336 55.020,302.200 54.800 C 302.056 54.567,299.796 54.400,296.776 54.400 C 293.592 54.400,291.600 54.246,291.600 54.000 C 291.600 53.780,291.150 53.600,290.600 53.600 C 290.050 53.600,289.600 53.780,289.600 54.000 C 289.600 54.236,288.190 54.400,286.171 54.400 C 282.643 54.400,281.600 53.996,281.600 52.629 C 281.600 52.283,281.420 52.000,281.200 52.000 C 280.980 52.000,280.800 51.561,280.800 51.024 C 280.800 50.487,280.620 49.936,280.400 49.800 C 280.180 49.664,280.000 49.203,280.000 48.776 C 280.000 48.349,279.841 48.000,279.647 48.000 C 279.452 48.000,279.193 47.685,279.071 47.300 C 278.834 46.553,277.554 44.333,277.168 44.000 C 277.040 43.890,276.681 43.215,276.370 42.500 C 276.059 41.785,275.696 41.200,275.563 41.200 C 275.430 41.200,274.997 40.480,274.600 39.600 C 274.203 38.720,273.726 38.000,273.539 38.000 C 273.353 38.000,273.200 37.775,273.199 37.500 C 273.199 37.225,272.659 36.370,272.000 35.600 C 271.341 34.830,270.801 34.047,270.801 33.860 C 270.800 33.674,270.298 33.044,269.685 32.460 C 269.071 31.877,268.135 30.770,267.605 30.000 C 267.074 29.230,265.755 27.790,264.674 26.800 C 263.592 25.810,261.562 23.875,260.161 22.500 C 258.761 21.125,257.504 20.000,257.368 20.000 C 257.232 20.000,256.617 19.460,256.000 18.800 C 255.383 18.140,254.681 17.600,254.440 17.600 C 254.198 17.600,254.000 17.420,254.000 17.200 C 254.000 16.980,253.770 16.800,253.488 16.800 C 253.207 16.800,252.717 16.440,252.400 16.000 C 252.083 15.560,251.543 15.200,251.200 15.200 C 250.857 15.200,250.317 14.840,250.000 14.400 C 249.683 13.960,249.143 13.600,248.800 13.600 C 248.457 13.600,247.917 13.240,247.600 12.800 C 247.283 12.360,246.718 12.000,246.345 12.000 C 245.972 12.000,245.607 11.846,245.533 11.657 C 245.356 11.202,240.028 8.400,239.340 8.400 C 239.043 8.400,238.800 8.220,238.800 8.000 C 238.800 7.780,238.440 7.600,238.000 7.600 C 237.560 7.600,237.200 7.420,237.200 7.200 C 237.200 6.980,236.750 6.800,236.200 6.800 C 235.650 6.800,235.200 6.620,235.200 6.400 C 235.200 6.180,234.750 6.000,234.200 6.000 C 233.650 6.000,233.200 5.820,233.200 5.600 C 233.200 5.380,232.851 5.200,232.424 5.200 C 231.997 5.200,231.536 5.020,231.400 4.800 C 231.264 4.580,230.713 4.400,230.176 4.400 C 229.639 4.400,229.200 4.220,229.200 4.000 C 229.200 3.780,228.671 3.600,228.024 3.600 C 227.377 3.600,226.736 3.420,226.600 3.200 C 226.464 2.980,225.834 2.800,225.200 2.800 C 224.566 2.800,223.936 2.620,223.800 2.400 C 223.664 2.180,222.933 2.000,222.176 2.000 C 221.419 2.000,220.800 1.820,220.800 1.600 C 220.800 1.380,220.026 1.200,219.080 1.200 C 218.134 1.200,217.140 0.980,216.872 0.712 C 216.383 0.223,191.481 -0.127,185.800 0.274 M200.600 16.400 C 200.741 16.629,202.796 16.800,205.400 16.800 C 208.004 16.800,210.059 16.971,210.200 17.200 C 210.336 17.420,211.337 17.600,212.424 17.600 C 213.511 17.600,214.400 17.780,214.400 18.000 C 214.400 18.220,215.109 18.400,215.976 18.400 C 216.843 18.400,217.664 18.580,217.800 18.800 C 217.936 19.020,218.667 19.200,219.424 19.200 C 220.181 19.200,220.800 19.380,220.800 19.600 C 220.800 19.820,221.340 20.000,222.000 20.000 C 222.660 20.000,223.200 20.147,223.200 20.328 C 223.200 20.508,224.100 20.900,225.200 21.200 C 226.300 21.500,227.200 21.892,227.200 22.072 C 227.200 22.253,227.472 22.400,227.805 22.400 C 228.138 22.400,228.723 22.567,229.105 22.771 C 229.487 22.975,230.925 23.637,232.300 24.241 C 233.675 24.846,234.800 25.489,234.800 25.670 C 234.800 25.852,235.160 26.000,235.600 26.000 C 236.040 26.000,236.400 26.180,236.400 26.400 C 236.400 26.620,236.720 26.800,237.112 26.800 C 237.503 26.800,238.083 27.160,238.400 27.600 C 238.717 28.040,239.257 28.400,239.600 28.400 C 239.943 28.400,240.483 28.760,240.800 29.200 C 241.117 29.640,241.541 30.000,241.741 30.000 C 241.942 30.000,242.397 30.324,242.753 30.719 C 243.109 31.114,244.030 31.878,244.800 32.416 C 245.570 32.954,248.047 35.241,250.305 37.497 C 252.562 39.754,254.587 41.600,254.805 41.600 C 255.022 41.600,255.200 41.870,255.200 42.200 C 255.200 42.529,255.920 43.541,256.800 44.448 C 257.680 45.355,258.400 46.332,258.400 46.620 C 258.400 46.907,258.625 47.381,258.900 47.671 C 259.175 47.962,259.655 48.695,259.968 49.300 C 260.280 49.905,260.685 50.400,260.868 50.400 C 261.050 50.400,261.200 50.760,261.200 51.200 C 261.200 51.640,261.336 52.000,261.502 52.000 C 261.669 52.000,262.057 52.585,262.365 53.300 C 262.673 54.015,263.257 55.078,263.663 55.662 C 264.068 56.246,264.400 57.011,264.400 57.362 C 264.400 57.713,264.580 58.000,264.800 58.000 C 265.020 58.000,265.200 58.360,265.200 58.800 C 265.200 59.240,265.380 59.600,265.600 59.600 C 265.820 59.600,266.000 59.960,266.000 60.400 C 266.000 60.840,266.180 61.200,266.400 61.200 C 266.620 61.200,266.800 61.740,266.800 62.400 C 266.800 63.060,266.980 63.600,267.200 63.600 C 267.420 63.600,267.600 64.039,267.600 64.576 C 267.600 65.113,267.780 65.664,268.000 65.800 C 268.220 65.936,268.400 66.397,268.400 66.824 C 268.400 67.251,268.580 67.600,268.800 67.600 C 269.020 67.600,269.200 67.876,269.200 68.213 C 269.200 69.009,271.791 71.600,272.587 71.600 C 272.924 71.600,273.200 71.780,273.200 72.000 C 273.200 72.529,280.673 72.529,281.000 72.000 C 281.136 71.780,282.846 71.600,284.800 71.600 C 286.754 71.600,288.464 71.420,288.600 71.200 C 288.736 70.980,289.737 70.800,290.824 70.800 C 291.911 70.800,292.800 70.980,292.800 71.200 C 292.800 71.439,294.333 71.600,296.600 71.600 C 298.867 71.600,300.400 71.761,300.400 72.000 C 300.400 72.220,301.199 72.400,302.176 72.400 C 303.153 72.400,304.052 72.560,304.173 72.756 C 304.294 72.951,304.979 73.205,305.696 73.319 C 306.413 73.432,307.630 73.719,308.400 73.955 C 309.170 74.192,310.655 74.610,311.700 74.884 C 312.745 75.158,313.600 75.521,313.600 75.691 C 313.600 75.861,313.960 76.000,314.400 76.000 C 314.840 76.000,315.200 76.180,315.200 76.400 C 315.200 76.620,315.560 76.800,316.000 76.800 C 316.440 76.800,316.800 76.980,316.800 77.200 C 316.800 77.420,317.160 77.600,317.600 77.600 C 318.040 77.600,318.400 77.780,318.400 78.000 C 318.400 78.220,318.760 78.400,319.200 78.400 C 319.640 78.400,320.000 78.580,320.000 78.800 C 320.000 79.020,320.320 79.200,320.712 79.200 C 321.103 79.200,321.683 79.560,322.000 80.000 C 322.317 80.440,322.857 80.800,323.200 80.800 C 323.543 80.800,324.083 81.160,324.400 81.600 C 324.717 82.040,325.141 82.400,325.341 82.400 C 325.542 82.400,325.997 82.724,326.353 83.119 C 326.709 83.514,327.614 84.267,328.365 84.792 C 329.931 85.887,336.400 92.170,336.400 92.596 C 336.400 92.752,336.940 93.383,337.600 94.000 C 338.260 94.617,338.800 95.292,338.800 95.501 C 338.800 95.710,339.340 96.446,340.000 97.137 C 340.660 97.828,341.200 98.649,341.200 98.963 C 341.200 99.277,341.335 99.593,341.500 99.667 C 341.665 99.740,342.675 101.600,343.744 103.800 C 344.813 106.000,345.848 108.113,346.044 108.495 C 346.240 108.877,346.400 109.462,346.400 109.795 C 346.400 110.128,346.580 110.400,346.800 110.400 C 347.020 110.400,347.200 110.940,347.200 111.600 C 347.200 112.260,347.380 112.800,347.600 112.800 C 347.820 112.800,348.000 113.329,348.000 113.976 C 348.000 114.623,348.180 115.264,348.400 115.400 C 348.620 115.536,348.800 116.256,348.800 117.000 C 348.800 117.744,348.980 118.464,349.200 118.600 C 349.420 118.736,349.600 119.726,349.600 120.800 C 349.600 121.874,349.780 122.864,350.000 123.000 C 350.244 123.151,350.400 126.271,350.400 131.024 C 350.400 135.941,350.253 138.800,350.000 138.800 C 349.780 138.800,349.600 139.790,349.600 141.000 C 349.600 142.210,349.420 143.200,349.200 143.200 C 348.980 143.200,348.800 143.920,348.800 144.800 C 348.800 145.680,348.620 146.400,348.400 146.400 C 348.180 146.400,348.000 146.940,348.000 147.600 C 348.000 148.260,347.820 148.800,347.600 148.800 C 347.380 148.800,347.200 149.340,347.200 150.000 C 347.200 150.660,347.020 151.200,346.800 151.200 C 346.561 151.200,346.400 152.733,346.400 155.000 C 346.400 157.267,346.561 158.800,346.800 158.800 C 347.020 158.800,347.200 159.076,347.200 159.413 C 347.200 160.209,349.791 162.800,350.587 162.800 C 350.924 162.800,351.200 162.980,351.200 163.200 C 351.200 163.420,351.560 163.600,352.000 163.600 C 352.440 163.600,352.800 163.780,352.800 164.000 C 352.800 164.220,353.120 164.400,353.512 164.400 C 353.903 164.400,354.483 164.760,354.800 165.200 C 355.117 165.640,355.657 166.000,356.000 166.000 C 356.343 166.000,356.883 166.360,357.200 166.800 C 357.517 167.240,357.985 167.600,358.240 167.600 C 358.922 167.600,368.400 176.974,368.400 177.648 C 368.400 177.965,368.760 178.483,369.200 178.800 C 369.640 179.117,370.000 179.697,370.000 180.088 C 370.000 180.480,370.180 180.800,370.400 180.800 C 370.620 180.800,370.800 181.070,370.800 181.400 C 370.800 181.730,370.980 182.000,371.200 182.000 C 371.420 182.000,371.600 182.270,371.600 182.600 C 371.600 182.930,371.780 183.200,372.000 183.200 C 372.220 183.200,372.400 183.560,372.400 184.000 C 372.400 184.440,372.580 184.800,372.800 184.800 C 373.020 184.800,373.200 185.149,373.200 185.576 C 373.200 186.003,373.380 186.464,373.600 186.600 C 373.820 186.736,374.000 187.287,374.000 187.824 C 374.000 188.361,374.144 188.800,374.321 188.800 C 374.631 188.800,375.188 190.802,376.046 195.000 C 377.112 200.212,377.107 209.833,376.036 215.000 C 374.914 220.409,374.603 221.600,374.314 221.600 C 374.141 221.600,374.000 221.960,374.000 222.400 C 374.000 222.840,373.820 223.200,373.600 223.200 C 373.380 223.200,373.200 223.560,373.200 224.000 C 373.200 224.440,373.020 224.800,372.800 224.800 C 372.580 224.800,372.400 225.160,372.400 225.600 C 372.400 226.040,372.220 226.400,372.000 226.400 C 371.780 226.400,371.600 226.670,371.600 227.000 C 371.600 227.330,371.420 227.600,371.200 227.600 C 370.980 227.600,370.800 227.960,370.800 228.400 C 370.800 228.840,370.620 229.200,370.400 229.200 C 370.180 229.200,370.000 229.470,370.000 229.800 C 370.000 230.130,369.820 230.400,369.600 230.400 C 369.380 230.400,369.200 230.630,369.200 230.912 C 369.200 231.193,368.840 231.683,368.400 232.000 C 367.960 232.317,367.600 232.797,367.600 233.066 C 367.600 233.703,360.221 241.104,358.293 242.400 C 357.475 242.950,356.804 243.535,356.803 243.700 C 356.801 243.865,356.440 244.000,356.000 244.000 C 355.560 244.000,355.200 244.180,355.200 244.400 C 355.200 244.620,354.964 244.800,354.675 244.800 C 354.387 244.800,353.764 245.160,353.292 245.600 C 352.820 246.040,352.156 246.400,351.817 246.400 C 351.478 246.400,351.200 246.580,351.200 246.800 C 351.200 247.020,350.851 247.200,350.424 247.200 C 349.997 247.200,349.536 247.380,349.400 247.600 C 349.264 247.820,348.713 248.000,348.176 248.000 C 347.639 248.000,347.200 248.180,347.200 248.400 C 347.200 248.620,346.750 248.800,346.200 248.800 C 345.650 248.800,345.200 248.980,345.200 249.200 C 345.200 249.420,344.660 249.600,344.000 249.600 C 343.340 249.600,342.800 249.780,342.800 250.000 C 342.800 250.220,342.080 250.400,341.200 250.400 C 340.320 250.400,339.600 250.580,339.600 250.800 C 339.600 251.022,338.533 251.200,337.200 251.200 C 335.867 251.200,334.800 251.378,334.800 251.600 C 334.800 251.865,317.333 252.000,283.200 252.000 C 249.067 252.000,231.600 252.135,231.600 252.400 C 231.600 252.620,231.316 252.800,230.969 252.800 C 230.061 252.800,227.236 255.874,226.988 257.133 C 226.872 257.720,226.612 258.710,226.411 259.333 C 226.186 260.027,226.191 260.850,226.422 261.459 C 226.630 262.005,226.800 262.890,226.800 263.426 C 226.800 263.962,226.980 264.400,227.200 264.400 C 227.420 264.400,227.600 264.625,227.600 264.900 C 227.601 265.675,229.416 267.600,230.147 267.600 C 230.506 267.600,230.800 267.780,230.800 268.000 C 230.800 268.220,231.149 268.400,231.576 268.400 C 232.003 268.400,232.464 268.580,232.600 268.800 C 232.752 269.046,236.044 269.200,241.144 269.200 C 250.414 269.200,250.400 269.196,250.400 271.880 C 250.400 272.826,250.580 273.600,250.800 273.600 C 251.053 273.600,251.200 276.533,251.200 281.600 C 251.200 286.667,251.053 289.600,250.800 289.600 C 250.580 289.600,250.400 290.399,250.400 291.376 C 250.400 292.353,250.220 293.264,250.000 293.400 C 249.780 293.536,249.600 294.177,249.600 294.824 C 249.600 295.471,249.420 296.000,249.200 296.000 C 248.980 296.000,248.800 296.439,248.800 296.976 C 248.800 297.513,248.620 298.064,248.400 298.200 C 248.180 298.336,248.000 298.887,248.000 299.424 C 248.000 299.961,247.820 300.400,247.600 300.400 C 247.380 300.400,247.200 300.760,247.200 301.200 C 247.200 301.640,247.020 302.000,246.800 302.000 C 246.580 302.000,246.400 302.253,246.400 302.562 C 246.400 303.228,244.732 306.541,244.300 306.733 C 244.135 306.807,244.000 307.212,244.000 307.633 C 244.000 308.055,243.861 308.400,243.691 308.400 C 243.521 308.400,243.043 309.030,242.628 309.800 C 242.213 310.570,241.722 311.200,241.537 311.200 C 241.352 311.200,241.200 311.470,241.200 311.800 C 241.200 312.130,241.020 312.400,240.800 312.400 C 240.580 312.400,240.400 312.589,240.400 312.819 C 240.400 313.367,231.273 322.400,230.719 322.400 C 230.485 322.400,230.002 322.715,229.646 323.100 C 228.529 324.306,220.931 328.400,219.809 328.400 C 219.474 328.400,219.200 328.580,219.200 328.800 C 219.200 329.020,218.840 329.200,218.400 329.200 C 217.960 329.200,217.600 329.380,217.600 329.600 C 217.600 329.820,217.060 330.000,216.400 330.000 C 215.740 330.000,215.200 330.180,215.200 330.400 C 215.200 330.620,214.581 330.800,213.824 330.800 C 213.067 330.800,212.336 330.980,212.200 331.200 C 212.064 331.420,211.254 331.600,210.400 331.600 C 209.546 331.600,208.736 331.780,208.600 332.000 C 208.464 332.220,206.743 332.400,204.776 332.400 C 202.659 332.400,201.200 332.563,201.200 332.800 C 201.200 333.020,200.660 333.200,200.000 333.200 C 199.340 333.200,198.800 333.020,198.800 332.800 C 198.800 332.563,197.341 332.400,195.224 332.400 C 193.257 332.400,191.536 332.220,191.400 332.000 C 191.264 331.780,190.454 331.600,189.600 331.600 C 188.746 331.600,187.936 331.420,187.800 331.200 C 187.664 330.980,186.933 330.800,186.176 330.800 C 185.419 330.800,184.800 330.620,184.800 330.400 C 184.800 330.180,184.260 330.000,183.600 330.000 C 182.940 330.000,182.400 329.820,182.400 329.600 C 182.400 329.380,182.040 329.200,181.600 329.200 C 181.160 329.200,180.800 329.020,180.800 328.800 C 180.800 328.580,180.485 328.396,180.100 328.392 C 179.715 328.387,178.050 327.661,176.400 326.778 C 174.750 325.895,173.085 325.067,172.700 324.939 C 172.315 324.811,172.000 324.548,172.000 324.353 C 172.000 324.159,171.770 324.000,171.488 324.000 C 171.207 324.000,170.717 323.640,170.400 323.200 C 170.083 322.760,169.598 322.400,169.323 322.400 C 168.616 322.400,158.800 312.501,158.800 311.788 C 158.800 311.465,158.648 311.200,158.463 311.200 C 158.278 311.200,157.787 310.570,157.372 309.800 C 156.957 309.030,156.479 308.400,156.309 308.400 C 156.139 308.400,156.000 308.055,156.000 307.633 C 156.000 307.212,155.865 306.807,155.700 306.733 C 155.276 306.545,152.800 301.601,152.800 300.944 C 152.800 300.645,152.620 300.400,152.400 300.400 C 152.180 300.400,152.000 299.961,152.000 299.424 C 152.000 298.887,151.820 298.336,151.600 298.200 C 151.380 298.064,151.200 297.513,151.200 296.976 C 151.200 296.439,151.020 296.000,150.800 296.000 C 150.580 296.000,150.400 295.471,150.400 294.824 C 150.400 294.177,150.220 293.536,150.000 293.400 C 149.780 293.264,149.600 292.353,149.600 291.376 C 149.600 290.399,149.420 289.600,149.200 289.600 C 148.947 289.600,148.800 286.675,148.800 281.624 C 148.800 276.737,148.955 273.551,149.200 273.400 C 149.420 273.264,149.600 272.373,149.600 271.419 C 149.600 269.157,149.429 269.200,158.504 269.200 C 165.458 269.200,168.336 268.878,169.200 268.001 C 169.310 267.890,169.875 267.554,170.456 267.255 C 171.037 266.956,171.756 266.237,172.055 265.656 C 172.354 265.075,172.748 264.491,172.930 264.357 C 173.539 263.912,173.431 257.781,172.792 256.549 C 171.992 255.005,169.770 252.800,169.013 252.800 C 168.676 252.800,168.400 252.620,168.400 252.400 C 168.400 252.135,150.933 252.000,116.800 252.000 C 82.667 252.000,65.200 251.865,65.200 251.600 C 65.200 251.378,64.133 251.200,62.800 251.200 C 61.467 251.200,60.400 251.022,60.400 250.800 C 60.400 250.580,59.680 250.400,58.800 250.400 C 57.920 250.400,57.200 250.220,57.200 250.000 C 57.200 249.780,56.748 249.600,56.195 249.600 C 55.642 249.600,54.877 249.441,54.495 249.247 C 54.113 249.052,53.260 248.671,52.600 248.400 C 51.940 248.129,51.087 247.748,50.705 247.553 C 50.323 247.359,49.738 247.200,49.405 247.200 C 49.072 247.200,48.800 247.020,48.800 246.800 C 48.800 246.580,48.522 246.400,48.183 246.400 C 47.844 246.400,47.180 246.040,46.708 245.600 C 46.236 245.160,45.613 244.800,45.325 244.800 C 45.036 244.800,44.800 244.620,44.800 244.400 C 44.800 244.180,44.440 244.000,44.000 244.000 C 43.560 244.000,43.199 243.865,43.197 243.700 C 43.196 243.535,42.525 242.950,41.707 242.400 C 39.877 241.169,32.400 233.718,32.400 233.125 C 32.400 232.888,32.084 232.403,31.697 232.047 C 31.311 231.691,30.740 230.905,30.430 230.300 C 30.119 229.695,29.715 229.200,29.532 229.200 C 29.350 229.200,29.200 228.840,29.200 228.400 C 29.200 227.960,29.020 227.600,28.800 227.600 C 28.580 227.600,28.400 227.330,28.400 227.000 C 28.400 226.670,28.220 226.400,28.000 226.400 C 27.780 226.400,27.600 226.040,27.600 225.600 C 27.600 225.160,27.420 224.800,27.200 224.800 C 26.980 224.800,26.800 224.440,26.800 224.000 C 26.800 223.560,26.620 223.200,26.400 223.200 C 26.180 223.200,26.000 222.840,26.000 222.400 C 26.000 221.960,25.859 221.600,25.686 221.600 C 25.513 221.600,25.150 220.565,24.879 219.300 C 24.607 218.035,24.201 216.190,23.976 215.200 C 22.872 210.352,22.862 200.380,23.956 195.000 C 24.802 190.839,25.369 188.800,25.679 188.800 C 25.856 188.800,26.000 188.361,26.000 187.824 C 26.000 187.287,26.180 186.736,26.400 186.600 C 26.620 186.464,26.800 186.003,26.800 185.576 C 26.800 185.149,26.980 184.800,27.200 184.800 C 27.420 184.800,27.600 184.440,27.600 184.000 C 27.600 183.560,27.780 183.200,28.000 183.200 C 28.220 183.200,28.400 182.930,28.400 182.600 C 28.400 182.270,28.580 182.000,28.800 182.000 C 29.020 182.000,29.200 181.730,29.200 181.400 C 29.200 181.070,29.380 180.800,29.600 180.800 C 29.820 180.800,30.000 180.480,30.000 180.088 C 30.000 179.697,30.360 179.117,30.800 178.800 C 31.240 178.483,31.600 177.970,31.600 177.661 C 31.600 176.997,41.092 167.600,41.763 167.600 C 42.016 167.600,42.483 167.240,42.800 166.800 C 43.117 166.360,43.657 166.000,44.000 166.000 C 44.343 166.000,44.883 165.640,45.200 165.200 C 45.517 164.760,46.097 164.400,46.488 164.400 C 46.880 164.400,47.200 164.220,47.200 164.000 C 47.200 163.780,47.560 163.600,48.000 163.600 C 48.440 163.600,48.800 163.420,48.800 163.200 C 48.800 162.980,49.076 162.800,49.413 162.800 C 49.751 162.800,50.651 162.176,51.413 161.413 C 52.176 160.651,52.800 159.751,52.800 159.413 C 52.800 159.076,52.980 158.800,53.200 158.800 C 53.439 158.800,53.600 157.267,53.600 155.000 C 53.600 152.733,53.439 151.200,53.200 151.200 C 52.980 151.200,52.800 150.761,52.800 150.224 C 52.800 149.687,52.620 149.136,52.400 149.000 C 52.180 148.864,52.000 148.223,52.000 147.576 C 52.000 146.929,51.820 146.400,51.600 146.400 C 51.380 146.400,51.200 145.781,51.200 145.024 C 51.200 144.267,51.020 143.536,50.800 143.400 C 50.580 143.264,50.400 142.173,50.400 140.976 C 50.400 139.779,50.220 138.800,50.000 138.800 C 49.457 138.800,49.457 123.336,50.000 123.000 C 50.220 122.864,50.400 121.874,50.400 120.800 C 50.400 119.726,50.580 118.736,50.800 118.600 C 51.020 118.464,51.200 117.744,51.200 117.000 C 51.200 116.256,51.380 115.536,51.600 115.400 C 51.820 115.264,52.000 114.623,52.000 113.976 C 52.000 113.329,52.180 112.800,52.400 112.800 C 52.620 112.800,52.800 112.260,52.800 111.600 C 52.800 110.940,52.980 110.400,53.200 110.400 C 53.420 110.400,53.600 110.128,53.600 109.795 C 53.600 109.462,53.760 108.877,53.956 108.495 C 54.152 108.113,55.187 106.000,56.256 103.800 C 57.325 101.600,58.335 99.740,58.500 99.667 C 58.665 99.593,58.800 99.277,58.800 98.963 C 58.800 98.649,59.340 97.828,60.000 97.137 C 60.660 96.446,61.200 95.710,61.200 95.501 C 61.200 95.292,61.740 94.617,62.400 94.000 C 63.060 93.383,63.600 92.752,63.600 92.596 C 63.600 92.170,70.069 85.887,71.635 84.792 C 72.386 84.267,73.291 83.514,73.647 83.119 C 74.003 82.724,74.458 82.400,74.659 82.400 C 74.859 82.400,75.283 82.040,75.600 81.600 C 75.917 81.160,76.457 80.800,76.800 80.800 C 77.143 80.800,77.683 80.440,78.000 80.000 C 78.317 79.560,78.897 79.200,79.288 79.200 C 79.680 79.200,80.000 79.020,80.000 78.800 C 80.000 78.580,80.360 78.400,80.800 78.400 C 81.240 78.400,81.600 78.220,81.600 78.000 C 81.600 77.780,81.960 77.600,82.400 77.600 C 82.840 77.600,83.200 77.420,83.200 77.200 C 83.200 76.980,83.560 76.800,84.000 76.800 C 84.440 76.800,84.800 76.620,84.800 76.400 C 84.800 76.180,85.160 76.000,85.600 76.000 C 86.040 76.000,86.400 75.861,86.400 75.691 C 86.400 75.521,87.255 75.158,88.300 74.884 C 89.345 74.610,90.830 74.192,91.600 73.955 C 92.370 73.719,93.587 73.432,94.304 73.319 C 95.021 73.205,95.706 72.951,95.827 72.756 C 95.948 72.560,96.847 72.400,97.824 72.400 C 98.801 72.400,99.600 72.220,99.600 72.000 C 99.600 71.761,101.133 71.600,103.400 71.600 C 105.890 71.600,107.200 71.449,107.200 71.161 C 107.200 70.867,107.891 70.805,109.300 70.973 C 119.666 72.207,126.800 72.637,126.800 72.027 C 126.800 71.792,127.076 71.600,127.413 71.600 C 128.209 71.600,130.800 69.009,130.800 68.213 C 130.800 67.876,130.980 67.600,131.200 67.600 C 131.420 67.600,131.600 67.251,131.600 66.824 C 131.600 66.397,131.780 65.936,132.000 65.800 C 132.220 65.664,132.400 65.113,132.400 64.576 C 132.400 64.039,132.580 63.600,132.800 63.600 C 133.020 63.600,133.200 63.060,133.200 62.400 C 133.200 61.740,133.380 61.200,133.600 61.200 C 133.820 61.200,134.000 60.840,134.000 60.400 C 134.000 59.960,134.180 59.600,134.400 59.600 C 134.620 59.600,134.800 59.347,134.800 59.038 C 134.800 58.484,136.380 55.190,136.832 54.800 C 136.960 54.690,137.319 54.015,137.630 53.300 C 137.941 52.585,138.331 52.000,138.498 52.000 C 138.664 52.000,138.800 51.640,138.800 51.200 C 138.800 50.760,138.950 50.400,139.132 50.400 C 139.315 50.400,139.720 49.905,140.032 49.300 C 140.345 48.695,140.825 47.962,141.100 47.671 C 141.375 47.381,141.600 46.872,141.600 46.540 C 141.600 46.209,142.320 45.246,143.200 44.400 C 144.080 43.554,144.800 42.579,144.800 42.231 C 144.800 41.884,144.978 41.600,145.195 41.600 C 145.413 41.600,147.438 39.754,149.695 37.497 C 151.953 35.241,154.430 32.954,155.200 32.416 C 155.970 31.878,156.891 31.114,157.247 30.719 C 157.603 30.324,158.058 30.000,158.259 30.000 C 158.459 30.000,158.883 29.640,159.200 29.200 C 159.517 28.760,160.057 28.400,160.400 28.400 C 160.743 28.400,161.283 28.040,161.600 27.600 C 161.917 27.160,162.497 26.800,162.888 26.800 C 163.280 26.800,163.600 26.620,163.600 26.400 C 163.600 26.180,163.960 26.000,164.400 26.000 C 164.840 26.000,165.200 25.853,165.200 25.674 C 165.200 25.276,167.801 24.000,168.614 24.000 C 168.936 24.000,169.200 23.820,169.200 23.600 C 169.200 23.380,169.453 23.200,169.762 23.200 C 170.247 23.200,171.520 22.648,174.495 21.150 C 174.877 20.957,175.552 20.800,175.995 20.800 C 176.438 20.800,176.800 20.620,176.800 20.400 C 176.800 20.180,177.340 20.000,178.000 20.000 C 178.660 20.000,179.200 19.820,179.200 19.600 C 179.200 19.380,179.920 19.200,180.800 19.200 C 181.680 19.200,182.400 19.020,182.400 18.800 C 182.400 18.580,183.120 18.400,184.000 18.400 C 184.880 18.400,185.600 18.220,185.600 18.000 C 185.600 17.780,186.489 17.600,187.576 17.600 C 188.663 17.600,189.664 17.420,189.800 17.200 C 189.941 16.971,191.996 16.800,194.600 16.800 C 197.204 16.800,199.259 16.629,199.400 16.400 C 199.536 16.180,199.806 16.000,200.000 16.000 C 200.194 16.000,200.464 16.180,200.600 16.400 M126.800 109.984 C 126.470 110.206,125.775 110.391,125.254 110.394 C 123.665 110.404,120.000 112.621,120.000 113.571 C 120.000 113.807,119.820 114.000,119.600 114.000 C 119.380 114.000,119.200 114.270,119.200 114.600 C 119.200 114.930,119.020 115.200,118.800 115.200 C 118.580 115.200,118.400 115.549,118.400 115.976 C 118.400 116.403,118.220 116.864,118.000 117.000 C 117.780 117.136,117.600 117.687,117.600 118.224 C 117.600 118.761,117.420 119.200,117.200 119.200 C 116.980 119.200,116.800 119.740,116.800 120.400 C 116.800 121.060,116.620 121.600,116.400 121.600 C 116.180 121.600,116.000 121.960,116.000 122.400 C 116.000 122.840,115.820 123.200,115.600 123.200 C 115.380 123.200,115.200 123.740,115.200 124.400 C 115.200 125.060,115.020 125.600,114.800 125.600 C 114.580 125.600,114.400 125.872,114.400 126.205 C 114.400 126.538,114.220 127.168,114.000 127.605 C 113.780 128.042,113.420 128.758,113.200 129.195 C 112.980 129.632,112.800 130.352,112.800 130.795 C 112.800 131.238,112.653 131.600,112.472 131.600 C 112.292 131.600,111.900 132.500,111.600 133.600 C 111.300 134.700,110.908 135.600,110.728 135.600 C 110.547 135.600,110.400 136.140,110.400 136.800 C 110.400 137.460,110.260 138.000,110.089 138.000 C 109.917 138.000,109.461 139.125,109.073 140.500 C 108.686 141.875,108.196 143.313,107.985 143.695 C 107.773 144.077,107.600 144.662,107.600 144.995 C 107.600 145.328,107.420 145.600,107.200 145.600 C 106.980 145.600,106.800 146.140,106.800 146.800 C 106.800 147.460,106.620 148.000,106.400 148.000 C 106.180 148.000,106.000 148.360,106.000 148.800 C 106.000 149.240,105.820 149.600,105.600 149.600 C 105.380 149.600,105.200 150.140,105.200 150.800 C 105.200 151.460,105.020 152.000,104.800 152.000 C 104.580 152.000,104.400 152.540,104.400 153.200 C 104.400 153.860,104.220 154.400,104.000 154.400 C 103.780 154.400,103.600 154.760,103.600 155.200 C 103.600 155.640,103.420 156.000,103.200 156.000 C 102.980 156.000,102.800 156.540,102.800 157.200 C 102.800 157.860,102.620 158.400,102.400 158.400 C 102.180 158.400,102.000 158.672,102.000 159.005 C 102.000 159.338,101.792 160.013,101.538 160.505 C 100.542 162.431,100.400 162.817,100.400 163.595 C 100.400 164.038,100.220 164.400,100.000 164.400 C 99.780 164.400,99.600 164.749,99.600 165.176 C 99.600 165.603,99.420 166.064,99.200 166.200 C 98.980 166.336,98.800 166.887,98.800 167.424 C 98.800 167.961,98.620 168.400,98.400 168.400 C 98.180 168.400,98.000 168.940,98.000 169.600 C 98.000 170.260,97.820 170.800,97.600 170.800 C 97.380 170.800,97.200 171.160,97.200 171.600 C 97.200 172.040,97.020 172.400,96.800 172.400 C 96.580 172.400,96.400 172.940,96.400 173.600 C 96.400 174.260,96.220 174.800,96.000 174.800 C 95.780 174.800,95.600 175.072,95.600 175.405 C 95.600 175.738,95.420 176.368,95.200 176.805 C 94.980 177.242,94.620 177.958,94.400 178.395 C 94.180 178.832,94.000 179.428,94.000 179.719 C 94.000 180.011,93.645 180.984,93.212 181.881 C 92.778 182.779,92.304 184.257,92.159 185.165 C 92.014 186.074,91.739 186.914,91.547 187.032 C 91.356 187.151,91.200 187.597,91.200 188.024 C 91.200 188.451,91.020 188.800,90.800 188.800 C 90.580 188.800,90.400 189.340,90.400 190.000 C 90.400 190.660,90.220 191.200,90.000 191.200 C 89.780 191.200,89.600 191.549,89.600 191.976 C 89.600 192.403,89.420 192.864,89.200 193.000 C 88.980 193.136,88.800 194.032,88.800 194.990 C 88.800 196.020,88.595 196.808,88.300 196.917 C 87.900 197.063,87.900 197.206,88.300 197.630 C 88.575 197.921,88.800 198.844,88.800 199.680 C 88.800 200.516,88.980 201.200,89.200 201.200 C 89.420 201.200,89.600 201.478,89.600 201.818 C 89.600 202.615,91.069 204.049,92.600 204.747 C 93.260 205.047,94.113 205.452,94.495 205.647 C 95.893 206.358,101.200 205.611,101.200 204.703 C 101.200 204.536,101.468 204.400,101.796 204.400 C 102.598 204.400,105.178 200.828,105.190 199.700 C 105.196 199.205,105.341 198.800,105.513 198.800 C 105.685 198.800,106.071 197.945,106.371 196.900 C 106.671 195.855,107.043 194.820,107.197 194.600 C 107.604 194.020,108.800 190.159,108.800 189.425 C 108.800 189.081,108.980 188.800,109.200 188.800 C 109.420 188.800,109.600 188.476,109.600 188.080 C 109.600 186.422,109.839 186.400,128.080 186.400 C 145.333 186.400,145.600 186.412,145.600 187.200 C 145.600 187.640,145.780 188.000,146.000 188.000 C 146.220 188.000,146.400 188.439,146.400 188.976 C 146.400 189.513,146.580 190.064,146.800 190.200 C 147.020 190.336,147.200 190.887,147.200 191.424 C 147.200 191.961,147.380 192.400,147.600 192.400 C 147.820 192.400,148.000 192.749,148.000 193.176 C 148.000 193.603,148.180 194.064,148.400 194.200 C 148.620 194.336,148.800 194.887,148.800 195.424 C 148.800 195.961,148.980 196.400,149.200 196.400 C 149.420 196.400,149.600 196.940,149.600 197.600 C 149.600 198.260,149.780 198.800,150.000 198.800 C 150.220 198.800,150.400 199.160,150.400 199.600 C 150.400 200.040,150.580 200.400,150.800 200.400 C 151.020 200.400,151.200 200.760,151.200 201.200 C 151.200 201.640,151.380 202.000,151.600 202.000 C 151.820 202.000,152.000 202.270,152.000 202.600 C 152.000 202.930,152.172 203.200,152.382 203.200 C 152.592 203.200,153.214 203.650,153.764 204.200 C 154.314 204.750,155.121 205.200,155.558 205.200 C 155.995 205.200,156.464 205.380,156.600 205.600 C 156.906 206.094,160.159 206.128,161.105 205.647 C 161.487 205.452,162.340 205.047,163.000 204.747 C 164.531 204.049,166.000 202.615,166.000 201.818 C 166.000 201.478,166.180 201.200,166.400 201.200 C 166.620 201.200,166.800 200.851,166.800 200.424 C 166.800 199.997,166.980 199.536,167.200 199.400 C 167.420 199.264,167.600 198.274,167.600 197.200 C 167.600 196.126,167.420 195.136,167.200 195.000 C 166.980 194.864,166.800 194.324,166.800 193.800 C 166.800 193.276,166.620 192.736,166.400 192.600 C 166.180 192.464,166.000 191.913,166.000 191.376 C 166.000 190.839,165.820 190.400,165.600 190.400 C 165.380 190.400,165.200 190.051,165.200 189.624 C 165.200 189.197,165.020 188.736,164.800 188.600 C 164.580 188.464,164.400 187.913,164.400 187.376 C 164.400 186.839,164.220 186.400,164.000 186.400 C 163.780 186.400,163.600 185.860,163.600 185.200 C 163.600 184.540,163.420 184.000,163.200 184.000 C 162.980 184.000,162.800 183.651,162.800 183.224 C 162.800 182.797,162.620 182.336,162.400 182.200 C 162.180 182.064,162.000 181.513,162.000 180.976 C 162.000 180.439,161.820 180.000,161.600 180.000 C 161.380 180.000,161.200 179.561,161.200 179.024 C 161.200 178.487,161.020 177.936,160.800 177.800 C 160.580 177.664,160.400 177.203,160.400 176.776 C 160.400 176.349,160.220 176.000,160.000 176.000 C 159.780 176.000,159.600 175.550,159.600 175.000 C 159.600 174.450,159.420 174.000,159.200 174.000 C 158.980 174.000,158.800 173.496,158.800 172.880 C 158.800 172.264,158.646 171.589,158.458 171.380 C 158.270 171.171,157.813 170.010,157.442 168.800 C 156.784 166.650,156.266 165.306,155.553 163.905 C 155.359 163.523,155.200 162.936,155.200 162.600 C 155.200 162.264,155.020 161.632,154.800 161.195 C 154.580 160.758,154.220 160.042,154.000 159.605 C 153.780 159.168,153.600 158.538,153.600 158.205 C 153.600 157.872,153.420 157.600,153.200 157.600 C 152.980 157.600,152.800 157.060,152.800 156.400 C 152.800 155.740,152.620 155.200,152.400 155.200 C 152.180 155.200,152.000 154.851,152.000 154.424 C 152.000 153.997,151.820 153.536,151.600 153.400 C 151.380 153.264,151.200 152.713,151.200 152.176 C 151.200 151.639,151.020 151.200,150.800 151.200 C 150.580 151.200,150.400 150.660,150.400 150.000 C 150.400 149.340,150.220 148.800,150.000 148.800 C 149.780 148.800,149.600 148.440,149.600 148.000 C 149.600 147.560,149.420 147.200,149.200 147.200 C 148.980 147.200,148.800 146.660,148.800 146.000 C 148.800 145.340,148.620 144.800,148.400 144.800 C 148.180 144.800,148.000 144.350,148.000 143.800 C 148.000 143.250,147.820 142.800,147.600 142.800 C 147.380 142.800,147.200 142.451,147.200 142.024 C 147.200 141.597,147.020 141.136,146.800 141.000 C 146.580 140.864,146.400 140.313,146.400 139.776 C 146.400 139.239,146.220 138.800,146.000 138.800 C 145.780 138.800,145.600 138.260,145.600 137.600 C 145.600 136.940,145.420 136.400,145.200 136.400 C 144.980 136.400,144.800 136.040,144.800 135.600 C 144.800 135.160,144.620 134.800,144.400 134.800 C 144.180 134.800,144.000 134.260,144.000 133.600 C 144.000 132.940,143.820 132.400,143.600 132.400 C 143.380 132.400,143.200 131.961,143.200 131.424 C 143.200 130.887,143.020 130.336,142.800 130.200 C 142.580 130.064,142.400 129.603,142.400 129.176 C 142.400 128.749,142.220 128.400,142.000 128.400 C 141.780 128.400,141.600 128.094,141.600 127.720 C 141.600 126.638,140.255 122.400,139.911 122.400 C 139.740 122.400,139.600 122.038,139.600 121.595 C 139.600 120.817,139.458 120.431,138.462 118.505 C 138.208 118.013,138.000 117.248,138.000 116.805 C 138.000 116.362,137.820 116.000,137.600 116.000 C 137.380 116.000,137.200 115.725,137.200 115.389 C 137.200 114.596,133.804 111.200,133.011 111.200 C 132.675 111.200,132.400 111.039,132.400 110.842 C 132.400 110.645,131.725 110.390,130.900 110.274 C 130.075 110.159,128.950 109.956,128.400 109.823 C 127.850 109.690,127.130 109.763,126.800 109.984 M197.407 109.989 C 197.267 110.215,196.578 110.401,195.876 110.402 C 194.626 110.404,192.920 111.666,191.100 113.936 C 190.279 114.960,189.982 201.200,190.800 201.200 C 191.020 201.200,191.200 201.478,191.200 201.818 C 191.200 202.615,192.669 204.049,194.200 204.747 C 194.860 205.047,195.713 205.452,196.095 205.647 C 197.433 206.328,201.840 205.773,202.800 204.802 C 202.910 204.691,203.360 204.402,203.800 204.161 C 204.240 203.920,205.089 203.020,205.687 202.161 L 206.773 200.600 206.787 186.114 L 206.800 171.628 216.100 171.455 C 225.689 171.277,229.200 170.984,229.200 170.360 C 229.200 170.162,229.740 170.000,230.400 170.000 C 231.060 170.000,231.600 169.820,231.600 169.600 C 231.600 169.380,231.949 169.200,232.376 169.200 C 232.803 169.200,233.264 169.020,233.400 168.800 C 233.536 168.580,233.963 168.400,234.348 168.400 C 234.734 168.400,235.436 168.040,235.908 167.600 C 236.380 167.160,237.004 166.800,237.295 166.800 C 237.586 166.800,238.083 166.440,238.400 166.000 C 238.717 165.560,239.153 165.200,239.368 165.200 C 239.931 165.200,245.600 159.262,245.600 158.672 C 245.600 158.399,245.960 157.917,246.400 157.600 C 246.840 157.283,247.200 156.793,247.200 156.512 C 247.200 156.230,247.380 156.000,247.600 156.000 C 247.820 156.000,248.000 155.640,248.000 155.200 C 248.000 154.760,248.180 154.400,248.400 154.400 C 248.620 154.400,248.800 154.040,248.800 153.600 C 248.800 153.160,248.980 152.800,249.200 152.800 C 249.420 152.800,249.600 152.260,249.600 151.600 C 249.600 150.940,249.780 150.400,250.000 150.400 C 250.220 150.400,250.400 149.781,250.400 149.024 C 250.400 148.267,250.580 147.536,250.800 147.400 C 251.040 147.251,251.200 144.529,251.200 140.576 C 251.200 136.459,251.050 134.000,250.800 134.000 C 250.580 134.000,250.400 133.458,250.400 132.795 C 250.400 132.132,250.220 131.232,250.000 130.795 C 249.780 130.358,249.420 129.642,249.200 129.205 C 248.980 128.768,248.800 128.138,248.800 127.805 C 248.800 127.472,248.620 127.200,248.400 127.200 C 248.180 127.200,248.000 126.880,248.000 126.488 C 248.000 126.097,247.640 125.517,247.200 125.200 C 246.760 124.883,246.400 124.343,246.400 124.000 C 246.400 123.657,246.040 123.117,245.600 122.800 C 245.160 122.483,244.800 122.022,244.800 121.775 C 244.800 121.306,241.459 117.600,241.036 117.600 C 240.902 117.600,240.228 117.060,239.537 116.400 C 238.846 115.740,238.038 115.200,237.741 115.200 C 237.443 115.200,237.200 115.050,237.200 114.867 C 237.200 114.405,232.456 112.000,231.544 112.000 C 231.135 112.000,230.800 111.820,230.800 111.600 C 230.800 111.380,230.080 111.200,229.200 111.200 C 228.320 111.200,227.600 111.035,227.600 110.833 C 227.600 109.977,197.927 109.147,197.407 109.989 M281.600 109.989 C 281.270 110.208,280.623 110.391,280.161 110.394 C 277.911 110.410,274.800 113.312,274.800 115.395 C 274.800 115.728,274.620 116.000,274.400 116.000 C 274.136 116.000,274.000 129.933,274.000 157.000 C 274.000 184.067,274.136 198.000,274.400 198.000 C 274.620 198.000,274.803 198.495,274.806 199.100 C 274.826 202.392,283.822 206.553,285.400 204.000 C 285.536 203.780,285.930 203.600,286.276 203.600 C 287.215 203.600,290.146 200.407,290.708 198.772 C 291.656 196.017,291.377 117.029,290.412 114.902 C 289.527 112.953,287.920 111.200,287.018 111.200 C 286.678 111.200,286.400 111.040,286.400 110.844 C 286.400 110.648,285.815 110.397,285.100 110.285 C 284.385 110.174,283.440 109.972,283.000 109.837 C 282.560 109.701,281.930 109.769,281.600 109.989 M221.600 127.200 C 221.600 127.420,222.320 127.600,223.200 127.600 C 224.080 127.600,224.800 127.780,224.800 128.000 C 224.800 128.220,225.160 128.400,225.600 128.400 C 226.040 128.400,226.400 128.580,226.400 128.800 C 226.400 129.020,226.670 129.200,227.000 129.200 C 227.330 129.200,227.600 129.350,227.600 129.532 C 227.600 129.715,228.095 130.120,228.700 130.432 C 230.008 131.108,230.800 131.810,230.800 132.296 C 230.800 132.490,231.115 133.007,231.500 133.445 C 232.489 134.570,233.200 135.886,233.200 136.595 C 233.200 136.928,233.380 137.200,233.600 137.200 C 233.837 137.200,234.000 138.667,234.000 140.800 C 234.000 142.933,233.837 144.400,233.600 144.400 C 233.380 144.400,233.200 144.850,233.200 145.400 C 233.200 145.950,233.020 146.400,232.800 146.400 C 232.580 146.400,232.400 146.670,232.400 147.000 C 232.400 147.330,232.220 147.600,232.000 147.600 C 231.780 147.600,231.600 147.785,231.600 148.011 C 231.600 148.688,228.252 151.821,226.879 152.429 C 226.176 152.741,225.600 153.131,225.600 153.298 C 225.600 153.464,225.060 153.600,224.400 153.600 C 223.740 153.600,223.200 153.780,223.200 154.000 C 223.200 154.253,220.333 154.400,215.400 154.400 L 207.600 154.400 207.599 149.900 C 207.599 147.425,207.480 141.215,207.335 136.100 L 207.072 126.800 214.336 126.800 C 218.912 126.800,221.600 126.948,221.600 127.200 M128.394 141.700 C 128.397 142.085,128.580 142.400,128.800 142.400 C 129.020 142.400,129.200 142.940,129.200 143.600 C 129.200 144.260,129.380 144.800,129.600 144.800 C 129.820 144.800,130.000 145.149,130.000 145.576 C 130.000 146.003,130.180 146.464,130.400 146.600 C 130.620 146.736,130.800 147.287,130.800 147.824 C 130.800 148.361,130.980 148.800,131.200 148.800 C 131.420 148.800,131.600 149.239,131.600 149.776 C 131.600 150.313,131.780 150.864,132.000 151.000 C 132.220 151.136,132.400 151.597,132.400 152.024 C 132.400 152.451,132.580 152.800,132.800 152.800 C 133.020 152.800,133.200 153.340,133.200 154.000 C 133.200 154.660,133.380 155.200,133.600 155.200 C 133.820 155.200,134.000 155.650,134.000 156.200 C 134.000 156.750,134.180 157.200,134.400 157.200 C 134.620 157.200,134.800 157.560,134.800 158.000 C 134.800 158.440,134.980 158.800,135.200 158.800 C 135.420 158.800,135.600 159.340,135.600 160.000 C 135.600 160.660,135.780 161.200,136.000 161.200 C 136.220 161.200,136.400 161.740,136.400 162.400 C 136.400 163.060,136.580 163.600,136.800 163.600 C 137.020 163.600,137.200 163.960,137.200 164.400 C 137.200 164.840,137.380 165.200,137.600 165.200 C 137.820 165.200,138.000 165.740,138.000 166.400 C 138.000 167.060,138.180 167.600,138.400 167.600 C 138.620 167.600,138.800 167.960,138.800 168.400 C 138.800 169.181,138.533 169.200,127.800 169.200 C 120.733 169.200,116.800 169.057,116.800 168.800 C 116.800 168.580,116.980 168.400,117.200 168.400 C 117.420 168.400,117.600 167.860,117.600 167.200 C 117.600 166.540,117.780 166.000,118.000 166.000 C 118.220 166.000,118.400 165.640,118.400 165.200 C 118.400 164.760,118.580 164.400,118.800 164.400 C 119.020 164.400,119.200 163.860,119.200 163.200 C 119.200 162.540,119.347 162.000,119.528 162.000 C 119.708 162.000,120.100 161.100,120.400 160.000 C 120.700 158.900,121.092 158.000,121.272 158.000 C 121.453 158.000,121.600 157.638,121.600 157.195 C 121.600 156.752,121.759 156.077,121.953 155.695 C 122.148 155.313,122.484 154.550,122.700 154.000 C 122.916 153.450,123.270 152.550,123.487 152.000 C 124.488 149.458,124.915 148.101,125.094 146.900 C 125.200 146.185,125.448 145.600,125.644 145.600 C 125.840 145.600,126.000 145.251,126.000 144.824 C 126.000 144.397,126.180 143.936,126.400 143.800 C 126.620 143.664,126.800 143.113,126.800 142.576 C 126.800 142.039,126.980 141.600,127.200 141.600 C 127.420 141.600,127.603 141.195,127.606 140.700 C 127.611 139.972,127.686 139.915,128.000 140.400 C 128.213 140.730,128.391 141.315,128.394 141.700 M196.400 252.400 C 196.400 252.620,196.109 252.800,195.754 252.800 C 194.722 252.800,192.532 255.501,191.988 257.444 C 190.857 261.481,192.796 267.600,195.205 267.600 C 195.422 267.600,195.600 267.780,195.600 268.000 C 195.600 268.220,196.039 268.400,196.576 268.400 C 197.113 268.400,197.664 268.580,197.800 268.800 C 197.936 269.020,198.926 269.200,200.000 269.200 C 201.074 269.200,202.064 269.020,202.200 268.800 C 202.336 268.580,202.887 268.400,203.424 268.400 C 203.961 268.400,204.400 268.220,204.400 268.000 C 204.400 267.780,204.578 267.600,204.795 267.600 C 207.204 267.600,209.143 261.481,208.012 257.444 C 207.468 255.501,205.278 252.800,204.246 252.800 C 203.891 252.800,203.600 252.620,203.600 252.400 C 203.600 252.163,202.133 252.000,200.000 252.000 C 197.867 252.000,196.400 252.163,196.400 252.400 M132.400 270.176 C 132.400 270.713,132.220 271.264,132.000 271.400 C 131.751 271.554,131.600 275.404,131.600 281.624 C 131.600 288.008,131.744 291.600,132.000 291.600 C 132.220 291.600,132.400 292.489,132.400 293.576 C 132.400 294.663,132.580 295.664,132.800 295.800 C 133.020 295.936,133.200 296.746,133.200 297.600 C 133.200 298.454,133.380 299.264,133.600 299.400 C 133.820 299.536,134.000 300.177,134.000 300.824 C 134.000 301.471,134.180 302.000,134.400 302.000 C 134.620 302.000,134.800 302.540,134.800 303.200 C 134.800 303.860,134.980 304.400,135.200 304.400 C 135.420 304.400,135.600 304.724,135.600 305.120 C 135.600 306.014,136.494 307.993,136.900 307.997 C 137.065 307.999,137.200 308.540,137.200 309.200 C 137.200 309.860,137.380 310.400,137.600 310.400 C 137.820 310.400,138.000 310.760,138.000 311.200 C 138.000 311.640,138.180 312.000,138.400 312.000 C 138.620 312.000,138.800 312.360,138.800 312.800 C 138.800 313.240,138.980 313.600,139.200 313.600 C 139.420 313.600,139.600 313.836,139.600 314.125 C 139.600 314.413,139.960 315.036,140.400 315.508 C 140.840 315.980,141.200 316.644,141.200 316.983 C 141.200 317.322,141.380 317.600,141.600 317.600 C 141.820 317.600,142.000 317.827,142.000 318.105 C 142.000 318.587,144.124 321.947,145.535 323.698 C 147.054 325.582,157.267 335.600,157.670 335.600 C 157.910 335.600,158.397 335.928,158.753 336.328 C 159.545 337.220,164.213 340.400,164.729 340.400 C 164.934 340.400,165.326 340.670,165.600 341.000 C 165.874 341.330,166.436 341.600,166.849 341.600 C 167.262 341.600,167.600 341.780,167.600 342.000 C 167.600 342.220,167.960 342.400,168.400 342.400 C 168.840 342.400,169.200 342.580,169.200 342.800 C 169.200 343.020,169.560 343.200,170.000 343.200 C 170.440 343.200,170.800 343.380,170.800 343.600 C 170.800 343.820,171.149 344.000,171.576 344.000 C 172.003 344.000,172.464 344.180,172.600 344.400 C 172.736 344.620,173.287 344.800,173.824 344.800 C 174.361 344.800,174.800 344.980,174.800 345.200 C 174.800 345.420,175.250 345.600,175.800 345.600 C 176.350 345.600,176.800 345.780,176.800 346.000 C 176.800 346.220,177.340 346.400,178.000 346.400 C 178.660 346.400,179.200 346.580,179.200 346.800 C 179.200 347.020,179.740 347.200,180.400 347.200 C 181.060 347.200,181.600 347.380,181.600 347.600 C 181.600 347.820,182.320 348.000,183.200 348.000 C 184.080 348.000,184.800 348.180,184.800 348.400 C 184.800 348.620,185.664 348.800,186.720 348.800 C 187.776 348.800,188.826 348.986,189.053 349.213 C 189.907 350.067,215.200 349.245,215.200 348.363 C 215.200 348.163,215.920 348.000,216.800 348.000 C 217.680 348.000,218.400 347.820,218.400 347.600 C 218.400 347.380,218.940 347.200,219.600 347.200 C 220.260 347.200,220.800 347.020,220.800 346.800 C 220.800 346.580,221.340 346.400,222.000 346.400 C 222.660 346.400,223.200 346.220,223.200 346.000 C 223.200 345.780,223.650 345.600,224.200 345.600 C 224.750 345.600,225.200 345.420,225.200 345.200 C 225.200 344.980,225.639 344.800,226.176 344.800 C 226.713 344.800,227.264 344.620,227.400 344.400 C 227.536 344.180,227.997 344.000,228.424 344.000 C 228.851 344.000,229.200 343.820,229.200 343.600 C 229.200 343.380,229.560 343.200,230.000 343.200 C 230.440 343.200,230.800 343.020,230.800 342.800 C 230.800 342.580,231.160 342.400,231.600 342.400 C 232.040 342.400,232.400 342.220,232.400 342.000 C 232.400 341.780,232.738 341.600,233.151 341.600 C 233.564 341.600,234.126 341.330,234.400 341.000 C 234.674 340.670,235.066 340.400,235.271 340.400 C 235.786 340.400,240.394 337.241,241.518 336.118 C 242.023 335.613,242.607 335.200,242.815 335.200 C 243.172 335.200,253.043 325.451,254.465 323.695 C 255.865 321.965,258.000 318.589,258.000 318.105 C 258.000 317.827,258.180 317.600,258.400 317.600 C 258.620 317.600,258.800 317.322,258.800 316.983 C 258.800 316.644,259.160 315.980,259.600 315.508 C 260.040 315.036,260.400 314.413,260.400 314.125 C 260.400 313.836,260.580 313.600,260.800 313.600 C 261.020 313.600,261.200 313.240,261.200 312.800 C 261.200 312.360,261.380 312.000,261.600 312.000 C 261.820 312.000,262.000 311.640,262.000 311.200 C 262.000 310.760,262.180 310.400,262.400 310.400 C 262.620 310.400,262.800 309.860,262.800 309.200 C 262.800 308.540,262.935 307.999,263.100 307.997 C 263.506 307.993,264.400 306.014,264.400 305.120 C 264.400 304.724,264.580 304.400,264.800 304.400 C 265.020 304.400,265.200 303.860,265.200 303.200 C 265.200 302.540,265.380 302.000,265.600 302.000 C 265.820 302.000,266.000 301.471,266.000 300.824 C 266.000 300.177,266.180 299.536,266.400 299.400 C 266.620 299.264,266.800 298.454,266.800 297.600 C 266.800 296.746,266.980 295.936,267.200 295.800 C 267.420 295.664,267.600 294.674,267.600 293.600 C 267.600 292.526,267.780 291.536,268.000 291.400 C 268.249 291.246,268.400 287.470,268.400 281.400 C 268.400 275.330,268.249 271.554,268.000 271.400 C 267.780 271.264,267.600 270.713,267.600 270.176 L 267.600 269.200 284.800 269.200 L 302.000 269.200 302.000 281.357 C 302.000 292.074,301.925 293.543,301.367 293.757 C 301.019 293.891,298.184 294.000,295.067 294.000 C 289.600 294.001,289.359 294.036,288.238 295.000 C 287.599 295.550,286.924 296.000,286.738 296.000 C 286.552 296.000,286.400 296.230,286.400 296.512 C 286.400 296.793,286.040 297.283,285.600 297.600 C 285.137 297.933,284.800 298.635,284.800 299.265 C 284.800 299.863,284.620 300.464,284.400 300.600 C 284.180 300.736,284.000 301.467,284.000 302.224 C 284.000 302.981,283.820 303.600,283.600 303.600 C 283.380 303.600,283.200 304.320,283.200 305.200 C 283.200 306.080,283.020 306.800,282.800 306.800 C 282.580 306.800,282.400 307.239,282.400 307.776 C 282.400 308.313,282.220 308.864,282.000 309.000 C 281.780 309.136,281.600 309.687,281.600 310.224 C 281.600 310.761,281.420 311.200,281.200 311.200 C 280.980 311.200,280.800 311.549,280.800 311.976 C 280.800 312.403,280.620 312.864,280.400 313.000 C 280.180 313.136,280.000 313.687,280.000 314.224 C 280.000 314.761,279.820 315.200,279.600 315.200 C 279.380 315.200,279.200 315.560,279.200 316.000 C 279.200 316.440,279.020 316.800,278.800 316.800 C 278.580 316.800,278.400 317.160,278.400 317.600 C 278.400 318.040,278.220 318.400,278.000 318.400 C 277.780 318.400,277.600 318.612,277.600 318.870 C 277.600 319.602,274.674 325.600,274.318 325.600 C 274.143 325.600,274.000 325.870,274.000 326.200 C 274.000 326.530,273.820 326.800,273.600 326.800 C 273.380 326.800,273.200 327.160,273.200 327.600 C 273.200 328.040,273.020 328.400,272.800 328.400 C 272.560 328.400,272.400 330.000,272.400 332.400 C 272.400 334.800,272.560 336.400,272.800 336.400 C 273.020 336.400,273.200 336.599,273.200 336.842 C 273.200 337.084,274.262 338.389,275.560 339.742 C 276.858 341.094,278.488 342.815,279.182 343.566 L 280.445 344.933 277.923 347.525 C 274.432 351.111,266.861 358.680,264.898 360.546 L 263.271 362.093 261.444 360.346 C 260.439 359.386,259.208 358.207,258.708 357.727 C 258.209 357.247,257.350 356.307,256.800 355.639 C 256.250 354.971,255.485 354.419,255.100 354.412 C 254.715 354.405,254.400 354.220,254.400 354.000 C 254.400 353.763,252.933 353.600,250.800 353.600 C 248.667 353.600,247.200 353.763,247.200 354.000 C 247.200 354.220,246.840 354.400,246.400 354.400 C 245.960 354.400,245.600 354.580,245.600 354.800 C 245.600 355.020,245.330 355.200,245.000 355.200 C 244.670 355.200,244.400 355.380,244.400 355.600 C 244.400 355.820,244.130 356.000,243.800 356.000 C 243.470 356.000,243.200 356.180,243.200 356.400 C 243.200 356.620,242.930 356.800,242.600 356.800 C 242.270 356.800,242.000 356.980,242.000 357.200 C 242.000 357.420,241.640 357.600,241.200 357.600 C 240.760 357.600,240.400 357.780,240.400 358.000 C 240.400 358.220,240.129 358.400,239.798 358.400 C 239.467 358.400,238.263 358.850,237.123 359.400 C 235.983 359.950,234.814 360.400,234.525 360.400 C 234.236 360.400,234.000 360.580,234.000 360.800 C 234.000 361.020,233.651 361.200,233.224 361.200 C 232.797 361.200,232.336 361.380,232.200 361.600 C 232.064 361.820,231.513 362.000,230.976 362.000 C 230.439 362.000,230.000 362.180,230.000 362.400 C 230.000 362.620,229.561 362.800,229.024 362.800 C 228.487 362.800,227.936 362.980,227.800 363.200 C 227.664 363.420,227.113 363.600,226.576 363.600 C 226.039 363.600,225.600 363.780,225.600 364.000 C 225.600 364.220,225.060 364.400,224.400 364.400 C 223.740 364.400,223.200 364.580,223.200 364.800 C 223.200 365.020,222.480 365.200,221.600 365.200 C 220.720 365.200,220.000 365.380,220.000 365.600 C 220.000 365.820,219.404 366.000,218.675 366.000 C 217.904 366.000,216.992 366.334,216.492 366.800 C 216.020 367.240,215.446 367.600,215.217 367.600 C 214.988 367.600,214.800 367.772,214.800 367.982 C 214.800 368.192,214.375 368.788,213.856 369.307 C 212.627 370.536,212.359 371.890,212.053 378.400 L 211.800 383.800 200.000 383.800 L 188.200 383.800 187.947 378.400 C 187.641 371.890,187.373 370.536,186.144 369.307 C 185.625 368.788,185.200 368.192,185.200 367.982 C 185.200 367.772,185.012 367.600,184.783 367.600 C 184.554 367.600,183.980 367.240,183.508 366.800 C 183.008 366.334,182.096 366.000,181.325 366.000 C 180.596 366.000,180.000 365.820,180.000 365.600 C 180.000 365.380,179.280 365.200,178.400 365.200 C 177.520 365.200,176.800 365.020,176.800 364.800 C 176.800 364.580,176.260 364.400,175.600 364.400 C 174.940 364.400,174.400 364.220,174.400 364.000 C 174.400 363.780,173.961 363.600,173.424 363.600 C 172.887 363.600,172.336 363.420,172.200 363.200 C 172.064 362.980,171.513 362.800,170.976 362.800 C 170.439 362.800,170.000 362.620,170.000 362.400 C 170.000 362.180,169.561 362.000,169.024 362.000 C 168.487 362.000,167.936 361.820,167.800 361.600 C 167.664 361.380,167.203 361.200,166.776 361.200 C 166.349 361.200,166.000 361.020,166.000 360.800 C 166.000 360.580,165.764 360.400,165.475 360.400 C 165.186 360.400,164.017 359.950,162.877 359.400 C 161.737 358.850,160.533 358.400,160.202 358.400 C 159.871 358.400,159.600 358.220,159.600 358.000 C 159.600 357.780,159.240 357.600,158.800 357.600 C 158.360 357.600,158.000 357.420,158.000 357.200 C 158.000 356.980,157.730 356.800,157.400 356.800 C 157.070 356.800,156.800 356.620,156.800 356.400 C 156.800 356.180,156.530 356.000,156.200 356.000 C 155.870 356.000,155.600 355.820,155.600 355.600 C 155.600 355.380,155.330 355.200,155.000 355.200 C 154.670 355.200,154.400 355.020,154.400 354.800 C 154.400 354.580,154.040 354.400,153.600 354.400 C 153.160 354.400,152.800 354.220,152.800 354.000 C 152.800 353.763,151.333 353.600,149.200 353.600 C 147.067 353.600,145.600 353.763,145.600 354.000 C 145.600 354.220,145.285 354.405,144.900 354.412 C 144.515 354.419,143.750 354.971,143.200 355.639 C 142.650 356.307,141.791 357.247,141.292 357.727 C 140.792 358.207,139.561 359.386,138.556 360.346 L 136.729 362.093 135.102 360.546 C 133.139 358.680,125.568 351.111,122.075 347.522 L 119.550 344.928 122.393 341.964 C 127.281 336.870,127.600 336.261,127.600 332.028 C 127.600 329.876,127.437 328.400,127.200 328.400 C 126.980 328.400,126.800 328.040,126.800 327.600 C 126.800 327.160,126.620 326.800,126.400 326.800 C 126.180 326.800,126.000 326.530,126.000 326.200 C 126.000 325.870,125.857 325.600,125.682 325.600 C 125.326 325.600,122.400 319.602,122.400 318.870 C 122.400 318.612,122.220 318.400,122.000 318.400 C 121.780 318.400,121.600 318.040,121.600 317.600 C 121.600 317.160,121.420 316.800,121.200 316.800 C 120.980 316.800,120.800 316.440,120.800 316.000 C 120.800 315.560,120.620 315.200,120.400 315.200 C 120.180 315.200,120.000 314.761,120.000 314.224 C 120.000 313.687,119.820 313.136,119.600 313.000 C 119.380 312.864,119.200 312.403,119.200 311.976 C 119.200 311.549,119.020 311.200,118.800 311.200 C 118.580 311.200,118.400 310.750,118.400 310.200 C 118.400 309.650,118.220 309.200,118.000 309.200 C 117.780 309.200,117.600 308.660,117.600 308.000 C 117.600 307.340,117.420 306.800,117.200 306.800 C 116.980 306.800,116.800 306.181,116.800 305.424 C 116.800 304.667,116.620 303.936,116.400 303.800 C 116.180 303.664,116.000 302.944,116.000 302.200 C 116.000 301.456,115.820 300.736,115.600 300.600 C 115.380 300.464,115.200 299.863,115.200 299.265 C 115.200 298.635,114.863 297.933,114.400 297.600 C 113.960 297.283,113.600 296.793,113.600 296.512 C 113.600 296.230,113.448 296.000,113.262 296.000 C 113.076 296.000,112.401 295.550,111.762 295.000 C 110.641 294.036,110.400 294.001,104.933 294.000 C 101.816 294.000,98.981 293.891,98.633 293.757 C 98.075 293.543,98.000 292.074,98.000 281.357 L 98.000 269.200 115.200 269.200 L 132.400 269.200 132.400 270.176 " stroke="none" fill="#040404" fill-rule="evenodd"></path><path id="path1" d="" stroke="none" fill="#080404" fill-rule="evenodd"></path><path id="path2" d="" stroke="none" fill="#080404" fill-rule="evenodd"></path><path id="path3" d="" stroke="none" fill="#080404" fill-rule="evenodd"></path><path id="path4" d="" stroke="none" fill="#080404" fill-rule="evenodd"></path></g></svg>