<svg id="svg" version="1.1" xmlns="http://www.w3.org/2000/svg" xmlns:xlink="http://www.w3.org/1999/xlink" width="400" height="400" viewBox="0, 0, 400,400"><g id="svgg"><path id="path0" d="M22.400 6.400 C 22.400 6.620,21.691 6.800,20.824 6.800 C 19.957 6.800,19.136 6.980,19.000 7.200 C 18.864 7.420,18.133 7.600,17.376 7.600 C 16.619 7.600,16.000 7.780,16.000 8.000 C 16.000 8.220,15.685 8.402,15.300 8.404 C 14.401 8.409,10.920 10.435,9.517 11.770 C 8.922 12.336,8.313 12.800,8.164 12.800 C 7.800 12.800,6.001 14.911,6.000 15.340 C 6.000 15.526,5.460 16.183,4.800 16.800 C 4.140 17.417,3.600 18.209,3.600 18.560 C 3.600 18.912,3.420 19.200,3.200 19.200 C 2.980 19.200,2.800 19.560,2.800 20.000 C 2.800 20.440,2.665 20.801,2.500 20.803 C 2.149 20.807,1.200 22.737,1.200 23.446 C 1.200 23.714,0.975 24.008,0.700 24.100 C -0.036 24.345,-0.036 295.255,0.700 295.500 C 0.975 295.592,1.200 296.192,1.200 296.833 C 1.200 297.475,1.380 298.000,1.600 298.000 C 1.820 298.000,2.000 298.360,2.000 298.800 C 2.000 299.240,2.180 299.600,2.400 299.600 C 2.620 299.600,2.800 299.960,2.800 300.400 C 2.800 300.840,2.980 301.200,3.200 301.200 C 3.420 301.200,3.600 301.470,3.600 301.800 C 3.600 302.130,3.780 302.400,4.000 302.400 C 4.220 302.400,4.400 302.590,4.400 302.822 C 4.400 303.545,10.835 309.600,11.603 309.600 C 11.821 309.600,12.000 309.780,12.000 310.000 C 12.000 310.220,12.360 310.400,12.800 310.400 C 13.240 310.400,13.600 310.580,13.600 310.800 C 13.600 311.020,13.960 311.200,14.400 311.200 C 14.840 311.200,15.200 311.380,15.200 311.600 C 15.200 311.820,15.740 312.000,16.400 312.000 C 17.060 312.000,17.600 312.180,17.600 312.400 C 17.600 312.620,18.140 312.800,18.800 312.800 C 19.460 312.800,20.000 312.980,20.000 313.200 C 20.000 313.428,21.192 313.600,22.776 313.600 C 24.303 313.600,25.664 313.780,25.800 314.000 C 25.963 314.264,48.612 314.400,92.448 314.400 L 158.848 314.400 158.568 318.300 C 158.413 320.445,158.132 322.260,157.944 322.333 C 157.755 322.407,157.600 323.442,157.600 324.633 C 157.600 325.825,157.420 326.800,157.200 326.800 C 156.980 326.800,156.800 327.340,156.800 328.000 C 156.800 328.660,156.620 329.200,156.400 329.200 C 156.180 329.200,156.000 329.740,156.000 330.400 C 156.000 331.060,155.820 331.600,155.600 331.600 C 155.380 331.600,155.200 332.140,155.200 332.800 C 155.200 333.460,155.020 334.000,154.800 334.000 C 154.580 334.000,154.400 334.360,154.400 334.800 C 154.400 335.240,154.220 335.600,154.000 335.600 C 153.780 335.600,153.600 335.960,153.600 336.400 C 153.600 336.840,153.420 337.200,153.200 337.200 C 152.980 337.200,152.800 337.560,152.800 338.000 C 152.800 338.440,152.650 338.800,152.468 338.800 C 152.285 338.800,151.880 339.289,151.568 339.888 C 150.558 341.822,147.030 345.583,145.223 346.650 C 144.550 347.047,144.000 347.514,144.000 347.686 C 144.000 347.859,143.730 348.000,143.400 348.000 C 143.070 348.000,142.800 348.180,142.800 348.400 C 142.800 348.620,142.440 348.800,142.000 348.800 C 141.560 348.800,141.200 348.980,141.200 349.200 C 141.200 349.420,140.840 349.600,140.400 349.600 C 139.960 349.600,139.600 349.780,139.600 350.000 C 139.600 350.220,139.240 350.400,138.800 350.400 C 138.360 350.400,138.000 350.580,138.000 350.800 C 138.000 351.020,137.280 351.200,136.400 351.200 C 135.520 351.200,134.800 351.380,134.800 351.600 C 134.800 351.831,133.541 352.000,131.824 352.000 C 130.187 352.000,128.736 352.180,128.600 352.400 C 128.446 352.649,124.596 352.800,118.376 352.800 C 111.992 352.800,108.400 352.944,108.400 353.200 C 108.400 353.420,107.860 353.600,107.200 353.600 C 106.540 353.600,106.000 353.780,106.000 354.000 C 106.000 354.220,105.584 354.400,105.075 354.400 C 104.567 354.400,103.764 354.760,103.292 355.200 C 102.820 355.640,102.228 356.000,101.977 356.000 C 101.726 356.000,101.017 356.540,100.400 357.200 C 99.783 357.860,98.991 358.400,98.640 358.400 C 98.288 358.400,98.000 358.582,98.000 358.804 C 98.000 359.026,97.460 359.772,96.800 360.463 C 96.140 361.154,95.600 361.962,95.600 362.259 C 95.600 362.557,95.420 362.800,95.200 362.800 C 94.980 362.800,94.800 363.160,94.800 363.600 C 94.800 364.040,94.659 364.400,94.487 364.400 C 94.315 364.400,93.948 365.255,93.671 366.300 C 93.395 367.345,92.995 368.753,92.784 369.428 C 92.289 371.013,92.289 375.787,92.784 377.372 C 92.995 378.047,93.395 379.455,93.671 380.500 C 93.948 381.545,94.315 382.400,94.487 382.400 C 94.659 382.400,94.800 382.760,94.800 383.200 C 94.800 383.640,94.980 384.000,95.200 384.000 C 95.420 384.000,95.600 384.246,95.600 384.546 C 95.600 385.917,102.090 391.600,103.656 391.600 C 104.065 391.600,104.400 391.780,104.400 392.000 C 104.400 392.220,104.940 392.400,105.600 392.400 C 106.260 392.400,106.800 392.580,106.800 392.800 C 106.800 393.020,107.340 393.200,108.000 393.200 C 108.660 393.200,109.200 393.380,109.200 393.600 C 109.200 393.865,139.733 394.000,200.000 394.000 C 260.267 394.000,290.800 393.865,290.800 393.600 C 290.800 393.380,291.340 393.200,292.000 393.200 C 292.660 393.200,293.200 393.020,293.200 392.800 C 293.200 392.580,293.740 392.400,294.400 392.400 C 295.060 392.400,295.600 392.220,295.600 392.000 C 295.600 391.780,295.935 391.600,296.344 391.600 C 297.910 391.600,304.400 385.917,304.400 384.546 C 304.400 384.246,304.580 384.000,304.800 384.000 C 305.020 384.000,305.200 383.640,305.200 383.200 C 305.200 382.760,305.341 382.400,305.513 382.400 C 305.685 382.400,306.052 381.545,306.329 380.500 C 306.605 379.455,307.005 378.047,307.216 377.372 C 307.711 375.787,307.711 371.013,307.216 369.428 C 307.005 368.753,306.605 367.345,306.329 366.300 C 306.052 365.255,305.685 364.400,305.513 364.400 C 305.341 364.400,305.200 364.040,305.200 363.600 C 305.200 363.160,305.020 362.800,304.800 362.800 C 304.580 362.800,304.400 362.557,304.400 362.259 C 304.400 361.962,303.860 361.154,303.200 360.463 C 302.540 359.772,302.000 359.026,302.000 358.804 C 302.000 358.582,301.712 358.400,301.360 358.400 C 301.009 358.400,300.217 357.860,299.600 357.200 C 298.983 356.540,298.274 356.000,298.023 356.000 C 297.772 356.000,297.180 355.640,296.708 355.200 C 296.236 354.760,295.433 354.400,294.925 354.400 C 294.416 354.400,294.000 354.220,294.000 354.000 C 294.000 353.780,293.460 353.600,292.800 353.600 C 292.140 353.600,291.600 353.420,291.600 353.200 C 291.600 352.944,288.008 352.800,281.624 352.800 C 275.404 352.800,271.554 352.649,271.400 352.400 C 271.264 352.180,269.813 352.000,268.176 352.000 C 266.459 352.000,265.200 351.831,265.200 351.600 C 265.200 351.380,264.480 351.200,263.600 351.200 C 262.720 351.200,262.000 351.020,262.000 350.800 C 262.000 350.580,261.640 350.400,261.200 350.400 C 260.760 350.400,260.400 350.220,260.400 350.000 C 260.400 349.780,260.040 349.600,259.600 349.600 C 259.160 349.600,258.800 349.420,258.800 349.200 C 258.800 348.980,258.440 348.800,258.000 348.800 C 257.560 348.800,257.200 348.620,257.200 348.400 C 257.200 348.180,256.930 348.000,256.600 348.000 C 256.270 348.000,256.000 347.859,256.000 347.686 C 256.000 347.514,255.450 347.047,254.777 346.650 C 252.970 345.583,249.442 341.822,248.432 339.888 C 248.120 339.289,247.715 338.800,247.532 338.800 C 247.350 338.800,247.200 338.440,247.200 338.000 C 247.200 337.560,247.020 337.200,246.800 337.200 C 246.580 337.200,246.400 336.840,246.400 336.400 C 246.400 335.960,246.220 335.600,246.000 335.600 C 245.780 335.600,245.600 335.240,245.600 334.800 C 245.600 334.360,245.420 334.000,245.200 334.000 C 244.980 334.000,244.800 333.460,244.800 332.800 C 244.800 332.140,244.620 331.600,244.400 331.600 C 244.180 331.600,244.000 331.060,244.000 330.400 C 244.000 329.740,243.820 329.200,243.600 329.200 C 243.380 329.200,243.200 328.660,243.200 328.000 C 243.200 327.340,243.020 326.800,242.800 326.800 C 242.580 326.800,242.400 325.825,242.400 324.633 C 242.400 323.442,242.245 322.407,242.056 322.333 C 241.868 322.260,241.587 320.445,241.432 318.300 L 241.152 314.400 307.552 314.400 C 351.388 314.400,374.037 314.264,374.200 314.000 C 374.336 313.780,375.697 313.600,377.224 313.600 C 378.808 313.600,380.000 313.428,380.000 313.200 C 380.000 312.980,380.540 312.800,381.200 312.800 C 381.860 312.800,382.400 312.620,382.400 312.400 C 382.400 312.180,382.940 312.000,383.600 312.000 C 384.260 312.000,384.800 311.820,384.800 311.600 C 384.800 311.380,385.160 311.200,385.600 311.200 C 386.040 311.200,386.400 311.020,386.400 310.800 C 386.400 310.580,386.760 310.400,387.200 310.400 C 387.640 310.400,388.000 310.220,388.000 310.000 C 388.000 309.780,388.179 309.600,388.397 309.600 C 389.165 309.600,395.600 303.545,395.600 302.822 C 395.600 302.590,395.780 302.400,396.000 302.400 C 396.220 302.400,396.400 302.130,396.400 301.800 C 396.400 301.470,396.580 301.200,396.800 301.200 C 397.020 301.200,397.200 300.840,397.200 300.400 C 397.200 299.960,397.380 299.600,397.600 299.600 C 397.820 299.600,398.000 299.240,398.000 298.800 C 398.000 298.360,398.180 298.000,398.400 298.000 C 398.620 298.000,398.800 297.475,398.800 296.833 C 398.800 296.192,399.025 295.592,399.300 295.500 C 400.036 295.255,400.036 24.345,399.300 24.100 C 399.025 24.008,398.800 23.714,398.800 23.446 C 398.800 22.737,397.851 20.807,397.500 20.803 C 397.335 20.801,397.200 20.440,397.200 20.000 C 397.200 19.560,397.020 19.200,396.800 19.200 C 396.580 19.200,396.400 18.912,396.400 18.560 C 396.400 18.209,395.860 17.417,395.200 16.800 C 394.540 16.183,394.000 15.526,394.000 15.340 C 393.999 14.911,392.200 12.800,391.836 12.800 C 391.687 12.800,391.078 12.336,390.483 11.770 C 389.080 10.435,385.599 8.409,384.700 8.404 C 384.315 8.402,384.000 8.220,384.000 8.000 C 384.000 7.780,383.381 7.600,382.624 7.600 C 381.867 7.600,381.136 7.420,381.000 7.200 C 380.864 6.980,380.043 6.800,379.176 6.800 C 378.309 6.800,377.600 6.620,377.600 6.400 C 377.600 6.134,318.133 6.000,200.000 6.000 C 81.867 6.000,22.400 6.134,22.400 6.400 M375.600 21.200 C 375.600 21.420,376.095 21.604,376.700 21.609 C 377.305 21.614,378.250 21.970,378.800 22.400 C 379.350 22.830,379.943 23.186,380.117 23.191 C 380.864 23.212,384.000 26.337,384.000 27.059 C 384.000 27.357,384.180 27.600,384.400 27.600 C 384.620 27.600,384.800 28.039,384.800 28.576 C 384.800 29.113,384.980 29.664,385.200 29.800 C 385.465 29.964,385.600 66.404,385.600 137.824 L 385.600 245.600 379.800 245.600 L 374.000 245.600 374.000 141.574 C 374.000 65.887,373.879 37.321,373.554 36.715 C 372.695 35.109,370.446 33.200,369.413 33.200 C 368.856 33.200,368.400 33.020,368.400 32.800 C 368.400 32.534,312.000 32.400,200.000 32.400 C 88.000 32.400,31.600 32.534,31.600 32.800 C 31.600 33.020,31.144 33.200,30.587 33.200 C 29.554 33.200,27.305 35.109,26.446 36.715 C 26.121 37.321,26.000 65.887,26.000 141.574 L 26.000 245.600 20.200 245.600 L 14.400 245.600 14.400 137.824 C 14.400 66.404,14.535 29.964,14.800 29.800 C 15.020 29.664,15.200 29.113,15.200 28.576 C 15.200 28.039,15.380 27.600,15.600 27.600 C 15.820 27.600,16.000 27.357,16.000 27.059 C 16.000 26.337,19.136 23.212,19.883 23.191 C 20.057 23.186,20.650 22.830,21.200 22.400 C 21.750 21.970,22.695 21.614,23.300 21.609 C 23.905 21.604,24.400 21.420,24.400 21.200 C 24.400 20.934,83.200 20.800,200.000 20.800 C 316.800 20.800,375.600 20.934,375.600 21.200 M358.800 146.400 L 358.800 245.600 200.000 245.600 L 41.200 245.600 41.200 146.400 L 41.200 47.200 200.000 47.200 L 358.800 47.200 358.800 146.400 M92.400 59.199 C 92.070 59.413,91.390 59.591,90.889 59.594 C 89.356 59.604,86.400 62.893,86.400 64.589 C 86.400 65.365,86.220 66.000,86.000 66.000 C 85.735 66.000,85.600 87.600,85.600 130.000 C 85.600 172.400,85.735 194.000,86.000 194.000 C 86.220 194.000,86.400 194.635,86.400 195.411 C 86.400 196.548,86.747 197.168,88.189 198.611 L 89.979 200.400 168.189 200.400 L 246.400 200.400 246.400 201.376 C 246.400 201.913,246.580 202.464,246.800 202.600 C 247.020 202.736,247.200 203.276,247.200 203.800 C 247.200 204.324,247.380 204.864,247.600 205.000 C 247.820 205.136,248.000 205.676,248.000 206.200 C 248.000 206.724,248.180 207.264,248.400 207.400 C 248.620 207.536,248.800 208.267,248.800 209.024 C 248.800 209.781,248.980 210.400,249.200 210.400 C 249.420 210.400,249.600 210.940,249.600 211.600 C 249.600 212.260,249.780 212.800,250.000 212.800 C 250.220 212.800,250.400 213.340,250.400 214.000 C 250.400 214.660,250.580 215.200,250.800 215.200 C 251.020 215.200,251.200 215.819,251.200 216.576 C 251.200 217.333,251.380 218.064,251.600 218.200 C 251.820 218.336,252.000 218.977,252.000 219.624 C 252.000 220.271,252.180 220.800,252.400 220.800 C 252.620 220.800,252.800 221.340,252.800 222.000 C 252.800 222.660,252.980 223.200,253.200 223.200 C 253.420 223.200,253.600 223.386,253.600 223.613 C 253.600 224.677,256.390 226.800,257.787 226.800 C 258.564 226.800,259.200 226.980,259.200 227.200 C 259.200 227.420,259.650 227.600,260.200 227.600 C 260.750 227.600,261.200 227.420,261.200 227.200 C 261.200 226.980,261.740 226.800,262.400 226.800 C 263.060 226.800,263.600 226.620,263.600 226.400 C 263.600 226.180,263.865 226.000,264.189 226.000 C 264.863 226.000,267.284 223.883,271.388 219.704 L 274.233 216.808 282.541 225.004 C 287.111 229.512,291.108 233.200,291.425 233.200 C 291.741 233.200,292.000 233.380,292.000 233.600 C 292.000 233.831,293.267 234.000,295.000 234.000 C 296.733 234.000,298.000 233.831,298.000 233.600 C 298.000 233.380,298.272 233.200,298.605 233.200 C 299.241 233.200,319.438 213.160,320.300 211.673 C 320.575 211.199,320.800 210.459,320.800 210.029 C 320.800 209.599,320.980 209.136,321.200 209.000 C 321.420 208.864,321.600 208.324,321.600 207.800 C 321.600 207.276,321.420 206.736,321.200 206.600 C 320.980 206.464,320.800 206.001,320.800 205.571 C 320.800 204.201,319.959 203.213,312.100 195.353 C 307.865 191.117,304.400 187.465,304.400 187.236 C 304.400 186.776,306.503 184.392,310.300 180.547 C 311.675 179.154,312.800 177.741,312.800 177.407 C 312.800 177.073,312.980 176.800,313.200 176.800 C 313.420 176.800,313.600 176.260,313.600 175.600 C 313.600 174.940,313.780 174.400,314.000 174.400 C 314.220 174.400,314.400 173.950,314.400 173.400 C 314.400 172.850,314.220 172.400,314.000 172.400 C 313.780 172.400,313.600 171.764,313.600 170.987 C 313.600 169.467,311.442 166.800,310.213 166.800 C 309.876 166.800,309.600 166.620,309.600 166.400 C 309.600 166.180,309.060 166.000,308.400 166.000 C 307.740 166.000,307.200 165.820,307.200 165.600 C 307.200 165.380,306.660 165.200,306.000 165.200 C 305.340 165.200,304.800 165.020,304.800 164.800 C 304.800 164.580,304.170 164.400,303.400 164.400 C 302.630 164.400,302.000 164.220,302.000 164.000 C 302.000 163.780,301.460 163.600,300.800 163.600 C 300.140 163.600,299.600 163.420,299.600 163.200 C 299.600 162.980,299.071 162.800,298.424 162.800 C 297.777 162.800,297.136 162.620,297.000 162.400 C 296.864 162.180,296.133 162.000,295.376 162.000 C 294.619 162.000,294.000 161.820,294.000 161.600 C 294.000 161.380,293.460 161.200,292.800 161.200 C 292.140 161.200,291.600 161.020,291.600 160.800 C 291.600 160.580,291.208 160.400,290.728 160.400 C 290.249 160.400,289.259 160.184,288.528 159.920 L 287.200 159.439 287.200 111.351 L 287.200 63.263 285.416 61.479 C 284.431 60.494,283.043 59.552,282.316 59.375 C 280.354 58.898,93.133 58.724,92.400 59.199 M272.400 83.200 L 272.400 92.400 186.400 92.400 L 100.400 92.400 100.400 83.200 L 100.400 74.000 186.400 74.000 L 272.400 74.000 272.400 83.200 M272.400 131.400 C 272.400 154.933,272.391 155.200,271.600 155.200 C 271.160 155.200,270.800 155.020,270.800 154.800 C 270.800 154.580,270.260 154.400,269.600 154.400 C 268.940 154.400,268.400 154.220,268.400 154.000 C 268.400 153.780,267.860 153.600,267.200 153.600 C 266.540 153.600,266.000 153.420,266.000 153.200 C 266.000 152.980,265.280 152.800,264.400 152.800 C 263.520 152.800,262.800 152.620,262.800 152.400 C 262.800 152.180,262.260 152.000,261.600 152.000 C 260.940 152.000,260.400 151.820,260.400 151.600 C 260.400 151.380,259.860 151.200,259.200 151.200 C 258.540 151.200,258.000 151.020,258.000 150.800 C 258.000 150.580,257.370 150.400,256.600 150.400 C 255.830 150.400,255.200 150.220,255.200 150.000 C 255.200 149.780,254.660 149.600,254.000 149.600 C 253.340 149.600,252.800 149.420,252.800 149.200 C 252.800 148.980,252.271 148.800,251.624 148.800 C 250.977 148.800,250.336 148.620,250.200 148.400 C 250.064 148.180,249.333 148.000,248.576 148.000 C 247.819 148.000,247.200 147.820,247.200 147.600 C 247.200 147.380,246.660 147.200,246.000 147.200 C 245.340 147.200,244.800 147.020,244.800 146.800 C 244.800 146.580,244.080 146.400,243.200 146.400 C 242.320 146.400,241.600 146.220,241.600 146.000 C 241.600 145.780,240.790 145.600,239.800 145.600 C 238.810 145.600,238.000 145.758,238.000 145.950 C 238.000 146.143,237.467 146.407,236.816 146.537 C 235.322 146.836,233.200 149.020,233.200 150.259 C 233.200 150.777,233.020 151.200,232.800 151.200 C 232.580 151.200,232.400 152.100,232.400 153.200 C 232.400 154.300,232.580 155.200,232.800 155.200 C 233.020 155.200,233.200 155.830,233.200 156.600 C 233.200 157.370,233.380 158.000,233.600 158.000 C 233.820 158.000,234.000 158.529,234.000 159.176 C 234.000 159.823,234.180 160.464,234.400 160.600 C 234.620 160.736,234.800 161.467,234.800 162.224 C 234.800 162.981,234.980 163.600,235.200 163.600 C 235.420 163.600,235.600 164.140,235.600 164.800 C 235.600 165.460,235.780 166.000,236.000 166.000 C 236.220 166.000,236.400 166.540,236.400 167.200 C 236.400 167.860,236.580 168.400,236.800 168.400 C 237.020 168.400,237.200 169.019,237.200 169.776 C 237.200 170.533,237.380 171.264,237.600 171.400 C 237.820 171.536,238.000 172.177,238.000 172.824 C 238.000 173.471,238.180 174.000,238.400 174.000 C 238.620 174.000,238.800 174.450,238.800 175.000 C 238.800 175.550,238.980 176.000,239.200 176.000 C 239.420 176.000,239.600 176.720,239.600 177.600 C 239.600 178.480,239.780 179.200,240.000 179.200 C 240.220 179.200,240.400 179.740,240.400 180.400 C 240.400 181.060,240.580 181.600,240.800 181.600 C 241.020 181.600,241.200 182.038,241.200 182.574 C 241.200 183.110,241.376 184.010,241.590 184.574 L 241.980 185.600 171.190 185.600 L 100.400 185.600 100.400 146.600 L 100.400 107.600 186.400 107.600 L 272.400 107.600 272.400 131.400 M118.400 132.800 C 118.400 133.020,117.860 133.200,117.200 133.200 C 116.540 133.200,116.000 133.380,116.000 133.600 C 116.000 133.820,115.730 134.000,115.400 134.000 C 115.070 134.000,114.800 134.172,114.800 134.382 C 114.800 134.592,114.350 135.214,113.800 135.764 L 112.800 136.764 112.800 153.382 C 112.800 162.522,112.936 170.000,113.102 170.000 C 113.269 170.000,113.629 170.507,113.903 171.126 C 114.177 171.746,115.138 172.646,116.039 173.126 L 117.676 174.000 146.938 174.000 L 176.200 173.999 177.362 173.000 C 178.001 172.450,178.676 172.000,178.862 172.000 C 179.048 172.000,179.200 171.730,179.200 171.400 C 179.200 171.070,179.380 170.800,179.600 170.800 C 179.820 170.800,180.000 170.361,180.000 169.824 C 180.000 169.287,180.180 168.736,180.400 168.600 C 180.655 168.442,180.800 162.863,180.800 153.176 C 180.800 143.325,180.660 138.000,180.400 138.000 C 180.180 138.000,180.000 137.577,180.000 137.059 C 180.000 135.820,177.878 133.636,176.384 133.337 C 175.733 133.207,175.200 132.942,175.200 132.750 C 175.200 132.553,162.762 132.400,146.800 132.400 C 128.133 132.400,118.400 132.537,118.400 132.800 M166.000 153.000 L 166.000 158.800 146.800 158.800 L 127.600 158.800 127.600 153.000 L 127.600 147.200 146.800 147.200 L 166.000 147.200 166.000 153.000 M252.000 164.800 C 252.000 165.020,252.540 165.200,253.200 165.200 C 253.860 165.200,254.400 165.380,254.400 165.600 C 254.400 165.820,255.120 166.000,256.000 166.000 C 256.880 166.000,257.600 166.180,257.600 166.400 C 257.600 166.620,258.039 166.800,258.576 166.800 C 259.113 166.800,259.664 166.980,259.800 167.200 C 259.936 167.420,260.476 167.600,261.000 167.600 C 261.524 167.600,262.064 167.780,262.200 168.000 C 262.336 168.220,263.067 168.400,263.824 168.400 C 264.581 168.400,265.200 168.580,265.200 168.800 C 265.200 169.020,265.740 169.200,266.400 169.200 C 267.060 169.200,267.600 169.380,267.600 169.600 C 267.600 169.820,268.129 170.000,268.776 170.000 C 269.423 170.000,270.064 170.180,270.200 170.400 C 270.336 170.620,271.067 170.800,271.824 170.800 C 272.581 170.800,273.200 170.980,273.200 171.200 C 273.200 171.420,273.740 171.600,274.400 171.600 C 275.060 171.600,275.600 171.780,275.600 172.000 C 275.600 172.220,276.129 172.400,276.776 172.400 C 277.423 172.400,278.064 172.580,278.200 172.800 C 278.336 173.020,278.889 173.200,279.429 173.200 C 279.969 173.200,280.723 173.360,281.105 173.557 C 282.377 174.209,286.253 175.200,287.535 175.200 C 288.231 175.200,288.800 175.380,288.800 175.600 C 288.800 175.820,289.263 176.000,289.829 176.000 C 292.161 176.000,292.226 177.032,290.028 179.173 C 288.912 180.259,288.000 181.340,288.000 181.574 C 288.000 181.808,287.820 182.000,287.600 182.000 C 287.380 182.000,287.200 182.270,287.200 182.600 C 287.200 182.930,287.020 183.200,286.800 183.200 C 285.947 183.200,286.315 190.562,287.200 191.200 C 287.640 191.517,288.000 192.013,288.000 192.303 C 288.000 192.592,291.330 196.192,295.400 200.302 C 299.470 204.412,302.800 207.834,302.800 207.906 C 302.800 207.977,302.379 208.433,301.864 208.918 C 301.350 209.403,299.576 211.119,297.923 212.731 L 294.918 215.663 287.664 208.431 C 283.675 204.454,280.178 201.200,279.894 201.200 C 279.609 201.200,279.117 200.840,278.800 200.400 C 278.289 199.691,277.765 199.600,274.200 199.600 C 270.635 199.600,270.111 199.691,269.600 200.400 C 269.283 200.840,268.781 201.200,268.486 201.200 C 268.190 201.200,267.059 202.112,265.973 203.228 C 263.832 205.426,262.800 205.361,262.800 203.029 C 262.800 202.463,262.620 202.000,262.400 202.000 C 262.180 202.000,262.000 201.381,262.000 200.624 C 262.000 199.867,261.820 199.136,261.600 199.000 C 261.380 198.864,261.200 198.223,261.200 197.576 C 261.200 196.929,261.020 196.400,260.800 196.400 C 260.580 196.400,260.400 195.860,260.400 195.200 C 260.400 194.540,260.220 194.000,260.000 194.000 C 259.780 194.000,259.600 193.370,259.600 192.600 C 259.600 191.830,259.440 191.200,259.244 191.200 C 259.048 191.200,258.805 190.615,258.703 189.900 C 258.450 188.109,257.579 184.746,257.153 183.905 C 256.959 183.523,256.800 182.769,256.800 182.229 C 256.800 181.689,256.620 181.136,256.400 181.000 C 256.180 180.864,256.000 180.324,256.000 179.800 C 256.000 179.276,255.820 178.736,255.600 178.600 C 255.380 178.464,255.200 177.834,255.200 177.200 C 255.200 176.566,255.020 175.936,254.800 175.800 C 254.580 175.664,254.400 175.023,254.400 174.376 C 254.400 173.729,254.220 173.200,254.000 173.200 C 253.780 173.200,253.600 172.660,253.600 172.000 C 253.600 171.340,253.440 170.800,253.244 170.800 C 253.048 170.800,252.778 170.170,252.644 169.400 C 252.510 168.630,252.290 167.370,252.156 166.600 C 252.022 165.830,251.752 165.200,251.556 165.200 C 251.360 165.200,251.200 165.020,251.200 164.800 C 251.200 164.580,251.380 164.400,251.600 164.400 C 251.820 164.400,252.000 164.580,252.000 164.800 M385.600 275.400 C 385.600 285.133,385.460 290.400,385.200 290.400 C 384.980 290.400,384.800 290.760,384.800 291.200 C 384.800 291.640,384.620 292.000,384.400 292.000 C 384.180 292.000,384.000 292.236,384.000 292.525 C 384.000 292.813,383.640 293.436,383.200 293.908 C 382.760 294.380,382.400 294.954,382.400 295.183 C 382.400 295.412,382.175 295.600,381.900 295.601 C 381.625 295.601,380.770 296.141,380.000 296.800 C 379.230 297.459,378.296 297.999,377.924 297.999 C 377.552 298.000,377.136 298.180,377.000 298.400 C 376.864 298.620,375.953 298.800,374.976 298.800 C 373.999 298.800,373.200 298.980,373.200 299.200 C 373.200 299.466,315.200 299.600,200.000 299.600 C 84.800 299.600,26.800 299.466,26.800 299.200 C 26.800 298.980,26.001 298.800,25.024 298.800 C 24.047 298.800,23.136 298.620,23.000 298.400 C 22.864 298.180,22.448 298.000,22.076 297.999 C 21.704 297.999,20.770 297.459,20.000 296.800 C 19.230 296.141,18.375 295.601,18.100 295.601 C 17.825 295.600,17.600 295.412,17.600 295.183 C 17.600 294.954,17.240 294.380,16.800 293.908 C 16.360 293.436,16.000 292.813,16.000 292.525 C 16.000 292.236,15.820 292.000,15.600 292.000 C 15.380 292.000,15.200 291.640,15.200 291.200 C 15.200 290.760,15.020 290.400,14.800 290.400 C 14.540 290.400,14.400 285.133,14.400 275.400 L 14.400 260.400 200.000 260.400 L 385.600 260.400 385.600 275.400 M179.000 272.800 C 178.864 273.020,178.261 273.200,177.660 273.200 C 176.182 273.200,173.200 276.203,173.200 277.692 C 173.200 278.275,173.020 278.864,172.800 279.000 C 172.580 279.136,172.400 279.597,172.400 280.024 C 172.400 280.451,172.580 280.800,172.800 280.800 C 173.020 280.800,173.200 281.448,173.200 282.240 C 173.200 283.435,173.517 283.978,175.064 285.440 L 176.927 287.200 200.000 287.200 L 223.073 287.200 224.936 285.440 C 226.483 283.978,226.800 283.435,226.800 282.240 C 226.800 281.448,226.980 280.800,227.200 280.800 C 227.420 280.800,227.600 280.451,227.600 280.024 C 227.600 279.597,227.420 279.136,227.200 279.000 C 226.980 278.864,226.800 278.275,226.800 277.692 C 226.800 276.203,223.818 273.200,222.340 273.200 C 221.739 273.200,221.136 273.020,221.000 272.800 C 220.840 272.542,213.404 272.400,200.000 272.400 C 186.596 272.400,179.160 272.542,179.000 272.800 M226.152 316.500 C 226.377 318.590,226.941 322.970,227.427 326.400 C 227.567 327.390,227.844 328.371,228.041 328.580 C 228.238 328.789,228.400 329.633,228.400 330.456 C 228.400 331.279,228.580 332.064,228.800 332.200 C 229.020 332.336,229.200 332.977,229.200 333.624 C 229.200 334.271,229.380 334.800,229.600 334.800 C 229.820 334.800,230.000 335.340,230.000 336.000 C 230.000 336.660,230.180 337.200,230.400 337.200 C 230.620 337.200,230.800 337.650,230.800 338.200 C 230.800 338.750,230.980 339.200,231.200 339.200 C 231.420 339.200,231.600 339.434,231.600 339.720 C 231.600 340.456,232.541 342.393,232.900 342.397 C 233.065 342.399,233.200 342.760,233.200 343.200 C 233.200 343.640,233.380 344.000,233.600 344.000 C 233.820 344.000,234.000 344.360,234.000 344.800 C 234.000 345.240,234.180 345.600,234.400 345.600 C 234.620 345.600,234.800 345.960,234.800 346.400 C 234.800 346.840,234.980 347.200,235.200 347.200 C 235.420 347.200,235.600 347.425,235.601 347.700 C 235.601 347.975,236.141 348.830,236.800 349.600 C 237.459 350.370,237.999 351.225,237.999 351.500 C 238.000 351.775,238.180 352.000,238.400 352.000 C 238.620 352.000,238.800 352.180,238.800 352.400 C 238.800 352.664,225.600 352.800,200.000 352.800 C 174.400 352.800,161.200 352.664,161.200 352.400 C 161.200 352.180,161.380 352.000,161.600 352.000 C 161.820 352.000,162.000 351.775,162.001 351.500 C 162.001 351.225,162.541 350.370,163.200 349.600 C 163.859 348.830,164.399 347.975,164.399 347.700 C 164.400 347.425,164.580 347.200,164.800 347.200 C 165.020 347.200,165.200 346.840,165.200 346.400 C 165.200 345.960,165.380 345.600,165.600 345.600 C 165.820 345.600,166.000 345.240,166.000 344.800 C 166.000 344.360,166.180 344.000,166.400 344.000 C 166.620 344.000,166.800 343.640,166.800 343.200 C 166.800 342.760,166.935 342.399,167.100 342.397 C 167.459 342.393,168.400 340.456,168.400 339.720 C 168.400 339.434,168.580 339.200,168.800 339.200 C 169.020 339.200,169.200 338.750,169.200 338.200 C 169.200 337.650,169.380 337.200,169.600 337.200 C 169.820 337.200,170.000 336.660,170.000 336.000 C 170.000 335.340,170.180 334.800,170.400 334.800 C 170.620 334.800,170.800 334.271,170.800 333.624 C 170.800 332.977,170.980 332.336,171.200 332.200 C 171.420 332.064,171.600 331.279,171.600 330.456 C 171.600 329.633,171.762 328.789,171.959 328.580 C 172.156 328.371,172.433 327.390,172.573 326.400 C 173.059 322.970,173.623 318.590,173.848 316.500 L 174.074 314.400 200.000 314.400 L 225.926 314.400 226.152 316.500 M289.292 368.400 C 289.764 368.840,290.387 369.200,290.675 369.200 C 290.964 369.200,291.200 369.545,291.200 369.967 C 291.200 370.388,291.392 370.797,291.626 370.875 C 293.124 371.375,292.009 377.063,290.328 377.503 C 289.927 377.608,289.600 377.852,289.600 378.047 C 289.600 378.241,289.240 378.400,288.800 378.400 C 288.360 378.400,288.000 378.580,288.000 378.800 C 288.000 379.065,258.400 379.200,200.000 379.200 C 141.600 379.200,112.000 379.065,112.000 378.800 C 112.000 378.580,111.640 378.400,111.200 378.400 C 110.760 378.400,110.400 378.241,110.400 378.047 C 110.400 377.852,110.073 377.608,109.672 377.503 C 107.991 377.063,106.876 371.375,108.374 370.875 C 108.608 370.797,108.800 370.388,108.800 369.967 C 108.800 369.545,109.039 369.200,109.330 369.200 C 109.622 369.200,110.207 368.851,110.630 368.424 C 111.863 367.181,287.959 367.158,289.292 368.400 " stroke="none" fill="#040404" fill-rule="evenodd"></path><path id="path1" d="" stroke="none" fill="#080404" fill-rule="evenodd"></path><path id="path2" d="" stroke="none" fill="#080404" fill-rule="evenodd"></path><path id="path3" d="" stroke="none" fill="#080404" fill-rule="evenodd"></path><path id="path4" d="" stroke="none" fill="#080404" fill-rule="evenodd"></path></g></svg>